MonaSans-BlackItalic.ufo
<glyph name="exclam" format="2">
  <advance width="291"/>
  <unicode hex="0021"/>
  <outline>
    <contour>
      <point x="88" y="231" type="line"/>
      <point x="186" y="231" type="line"/>
      <point x="287" y="487" type="line"/>
      <point x="337" y="729" type="line"/>
      <point x="145" y="729" type="line"/>
      <point x="95" y="487" type="line"/>
    </contour>
    <contour>
      <point x="96" y="-8" type="curve" smooth="yes"/>
      <point x="160" y="-8"/>
      <point x="204" y="29"/>
      <point x="204" y="87" type="curve" smooth="yes"/>
      <point x="204" y="135"/>
      <point x="168" y="167"/>
      <point x="114" y="167" type="curve" smooth="yes"/>
      <point x="50" y="167"/>
      <point x="6" y="130"/>
      <point x="6" y="72" type="curve" smooth="yes"/>
      <point x="6" y="24"/>
      <point x="42" y="-8"/>
    </contour>
  </outline>
</glyph>
<glyph name="numbersign" format="2">
  <advance width="695"/>
  <unicode hex="0023"/>
  <outline>
    <contour>
      <point x="94" y="0" type="line"/>
      <point x="236" y="0" type="line"/>
      <point x="273" y="182" type="line"/>
      <point x="387" y="182" type="line"/>
      <point x="350" y="0" type="line"/>
      <point x="490" y="0" type="line"/>
      <point x="527" y="182" type="line"/>
      <point x="650" y="182" type="line"/>
      <point x="677" y="309" type="line"/>
      <point x="554" y="309" type="line"/>
      <point x="577" y="423" type="line"/>
      <point x="700" y="423" type="line"/>
      <point x="727" y="551" type="line"/>
      <point x="604" y="551" type="line"/>
      <point x="640" y="729" type="line"/>
      <point x="500" y="729" type="line"/>
      <point x="464" y="551" type="line"/>
      <point x="350" y="551" type="line"/>
      <point x="386" y="729" type="line"/>
      <point x="244" y="729" type="line"/>
      <point x="208" y="551" type="line"/>
      <point x="84" y="551" type="line"/>
      <point x="57" y="423" type="line"/>
      <point x="181" y="423" type="line"/>
      <point x="158" y="309" type="line"/>
      <point x="34" y="309" type="line"/>
      <point x="7" y="182" type="line"/>
      <point x="131" y="182" type="line"/>
    </contour>
    <contour>
      <point x="300" y="309" type="line"/>
      <point x="323" y="423" type="line"/>
      <point x="437" y="423" type="line"/>
      <point x="414" y="309" type="line"/>
    </contour>
  </outline>
</glyph>
<glyph name="dollar" format="2">
  <advance width="670"/>
  <unicode hex="0024"/>
  <outline>
    <contour>
      <point x="312" y="9" type="curve" smooth="yes"/>
      <point x="509" y="9"/>
      <point x="629" y="104"/>
      <point x="629" y="267" type="curve" smooth="yes"/>
      <point x="629" y="374"/>
      <point x="573" y="424"/>
      <point x="404" y="462" type="curve" smooth="yes"/>
      <point x="342" y="476"/>
      <point x="312" y="489"/>
      <point x="312" y="518" type="curve" smooth="yes"/>
      <point x="312" y="549"/>
      <point x="338" y="567"/>
      <point x="383" y="567" type="curve" smooth="yes"/>
      <point x="433" y="567"/>
      <point x="461" y="544"/>
      <point x="458" y="503" type="curve"/>
      <point x="663" y="503" type="line"/>
      <point x="667" y="629"/>
      <point x="564" y="721"/>
      <point x="399" y="721" type="curve" smooth="yes"/>
      <point x="232" y="721"/>
      <point x="94" y="643"/>
      <point x="94" y="482" type="curve" smooth="yes"/>
      <point x="94" y="380"/>
      <point x="160" y="323"/>
      <point x="319" y="282" type="curve" smooth="yes"/>
      <point x="396" y="262"/>
      <point x="412" y="255"/>
      <point x="412" y="222" type="curve" smooth="yes"/>
      <point x="412" y="185"/>
      <point x="381" y="165"/>
      <point x="322" y="165" type="curve" smooth="yes"/>
      <point x="262" y="165"/>
      <point x="224" y="197"/>
      <point x="225" y="243" type="curve"/>
      <point x="27" y="243" type="line"/>
      <point x="19" y="97"/>
      <point x="127" y="9"/>
    </contour>
    <contour>
      <point x="186" y="-85" type="line"/>
      <point x="318" y="-85" type="line"/>
      <point x="359" y="112" type="line"/>
      <point x="227" y="112" type="line"/>
    </contour>
    <contour>
      <point x="332" y="622" type="line"/>
      <point x="464" y="622" type="line"/>
      <point x="504" y="815" type="line"/>
      <point x="372" y="815" type="line"/>
    </contour>
  </outline>
</glyph>
<glyph name="ampersand" format="2">
  <advance width="741"/>
  <unicode hex="0026"/>
  <outline>
    <contour>
      <point x="568" y="-8" type="curve" smooth="yes"/>
      <point x="597" y="-8"/>
      <point x="619" y="-6"/>
      <point x="644" y="-1" type="curve"/>
      <point x="683" y="152" type="line"/>
      <point x="669" y="148"/>
      <point x="650" y="145"/>
      <point x="631" y="145" type="curve" smooth="yes"/>
      <point x="584" y="145"/>
      <point x="560" y="162"/>
      <point x="509" y="232" type="curve" smooth="yes"/>
      <point x="356" y="440" type="line" smooth="yes"/>
      <point x="330" y="475"/>
      <point x="316" y="509"/>
      <point x="316" y="537" type="curve" smooth="yes"/>
      <point x="316" y="567"/>
      <point x="336" y="589"/>
      <point x="368" y="589" type="curve" smooth="yes"/>
      <point x="395" y="589"/>
      <point x="413" y="570"/>
      <point x="413" y="543" type="curve" smooth="yes"/>
      <point x="413" y="506"/>
      <point x="381" y="473"/>
      <point x="326" y="446" type="curve"/>
      <point x="391" y="355" type="line"/>
      <point x="507" y="400"/>
      <point x="567" y="471"/>
      <point x="567" y="560" type="curve" smooth="yes"/>
      <point x="567" y="663"/>
      <point x="491" y="739"/>
      <point x="367" y="739" type="curve" smooth="yes"/>
      <point x="230" y="739"/>
      <point x="137" y="653"/>
      <point x="137" y="524" type="curve" smooth="yes"/>
      <point x="137" y="469"/>
      <point x="151" y="408"/>
      <point x="229" y="302" type="curve" smooth="yes"/>
      <point x="366" y="115" type="line" smooth="yes"/>
      <point x="432" y="25"/>
      <point x="483" y="-8"/>
    </contour>
    <contour>
      <point x="222" y="-10" type="curve" smooth="yes"/>
      <point x="330" y="-10"/>
      <point x="423" y="34"/>
      <point x="466" y="115" type="curve"/>
      <point x="362" y="195" type="line"/>
      <point x="337" y="157"/>
      <point x="306" y="142"/>
      <point x="268" y="142" type="curve" smooth="yes"/>
      <point x="226" y="142"/>
      <point x="198" y="167"/>
      <point x="198" y="209" type="curve" smooth="yes"/>
      <point x="198" y="256"/>
      <point x="231" y="283"/>
      <point x="276" y="297" type="curve"/>
      <point x="200" y="399" type="line"/>
      <point x="91" y="367"/>
      <point x="14" y="288"/>
      <point x="14" y="178" type="curve" smooth="yes"/>
      <point x="14" y="60"/>
      <point x="98" y="-10"/>
    </contour>
    <contour>
      <point x="518" y="143" type="line"/>
      <point x="556" y="179"/>
      <point x="589" y="220"/>
      <point x="612" y="256" type="curve"/>
      <point x="688" y="253" type="line"/>
      <point x="683" y="398" type="line"/>
      <point x="515" y="398" type="line"/>
      <point x="511" y="366" type="line"/>
      <point x="491" y="325"/>
      <point x="468" y="293"/>
      <point x="431" y="245" type="curve"/>
    </contour>
  </outline>
</glyph>
<glyph name="quotesingle" format="2">
  <advance width="229"/>
  <unicode hex="0027"/>
  <anchor x="-35" y="0" name="#entry"/>
  <anchor x="207" y="0" name="#exit"/>
  <outline>
    <contour>
      <point x="102" y="410" type="line"/>
      <point x="185" y="410" type="line"/>
      <point x="270" y="608" type="line"/>
      <point x="295" y="729" type="line"/>
      <point x="125" y="729" type="line"/>
      <point x="100" y="608" type="line"/>
    </contour>
  </outline>
</glyph>
<glyph name="parenleft" format="2">
  <advance width="393"/>
  <unicode hex="0028"/>
  <outline>
    <contour>
      <point x="126" y="-167" type="curve"/>
      <point x="279" y="-167" type="line"/>
      <point x="217" y="-41"/>
      <point x="196" y="150"/>
      <point x="227" y="311" type="curve" smooth="yes"/>
      <point x="263" y="496"/>
      <point x="363" y="682"/>
      <point x="487" y="793" type="curve"/>
      <point x="313" y="793" type="line"/>
      <point x="187" y="692"/>
      <point x="80" y="506"/>
      <point x="45" y="329" type="curve" smooth="yes"/>
      <point x="10" y="152"/>
      <point x="43" y="-46"/>
    </contour>
  </outline>
</glyph>
<glyph name="asterisk" format="2">
  <advance width="303"/>
  <unicode hex="002A"/>
  <outline>
    <contour>
      <point x="155" y="444" type="line"/>
      <point x="228" y="444" type="line"/>
      <point x="236" y="487" type="line"/>
      <point x="231" y="548" type="line"/>
      <point x="269" y="504" type="line"/>
      <point x="303" y="483" type="line"/>
      <point x="350" y="546" type="line"/>
      <point x="317" y="567" type="line"/>
      <point x="259" y="586" type="line"/>
      <point x="324" y="605" type="line"/>
      <point x="364" y="626" type="line"/>
      <point x="339" y="689" type="line"/>
      <point x="298" y="668" type="line"/>
      <point x="244" y="624" type="line"/>
      <point x="270" y="686" type="line"/>
      <point x="278" y="729" type="line"/>
      <point x="205" y="729" type="line"/>
      <point x="197" y="686" type="line"/>
      <point x="202" y="624" type="line"/>
      <point x="163" y="668" type="line"/>
      <point x="129" y="689" type="line"/>
      <point x="83" y="626" type="line"/>
      <point x="116" y="605" type="line"/>
      <point x="174" y="586" type="line"/>
      <point x="109" y="567" type="line"/>
      <point x="69" y="546" type="line"/>
      <point x="93" y="483" type="line"/>
      <point x="134" y="504" type="line"/>
      <point x="189" y="548" type="line"/>
      <point x="163" y="487" type="line"/>
    </contour>
  </outline>
</glyph>
<glyph name="plus" format="2">
  <advance width="600"/>
  <unicode hex="002B"/>
  <outline>
    <contour>
      <point x="193" y="124" type="line"/>
      <point x="344" y="124" type="line"/>
      <point x="379" y="286" type="line"/>
      <point x="537" y="286" type="line"/>
      <point x="568" y="435" type="line"/>
      <point x="410" y="435" type="line"/>
      <point x="444" y="597" type="line"/>
      <point x="292" y="597" type="line"/>
      <point x="258" y="435" type="line"/>
      <point x="100" y="435" type="line"/>
      <point x="69" y="286" type="line"/>
      <point x="227" y="286" type="line"/>
    </contour>
  </outline>
</glyph>
<glyph name="comma" format="2">
  <advance width="247"/>
  <unicode hex="002C"/>
  <anchor x="-16" y="0" name="#entry"/>
  <anchor x="232" y="0" name="#exit"/>
  <anchor x="177" y="552" name="top"/>
  <outline>
    <contour>
      <point x="-91" y="-167" type="curve"/>
      <point x="21" y="-167" type="line"/>
      <point x="89" y="-122"/>
      <point x="180" y="-15"/>
      <point x="180" y="75" type="curve" smooth="yes"/>
      <point x="180" y="131"/>
      <point x="142" y="167"/>
      <point x="86" y="167" type="curve" smooth="yes"/>
      <point x="24" y="167"/>
      <point x="-17" y="130"/>
      <point x="-17" y="77" type="curve" smooth="yes"/>
      <point x="-17" y="32"/>
      <point x="18" y="1"/>
      <point x="65" y="1" type="curve" smooth="yes"/>
      <point x="78" y="1"/>
      <point x="88" y="3"/>
      <point x="95" y="6" type="curve"/>
      <point x="79" y="19" type="line"/>
      <point x="53" y="-37"/>
      <point x="-8" y="-107"/>
    </contour>
  </outline>
</glyph>
<glyph name="hyphen" format="2">
  <advance width="426"/>
  <unicode hex="002D"/>
  <outline>
    <contour>
      <point x="22" y="192" type="line"/>
      <point x="372" y="192" type="line"/>
      <point x="406" y="352" type="line"/>
      <point x="55" y="352" type="line"/>
    </contour>
  </outline>
</glyph>
<glyph name="period" format="2">
  <advance width="242"/>
  <unicode hex="002E"/>
  <anchor x="-80" y="0" name="#entry"/>
  <anchor x="172" y="0" name="#exit"/>
  <anchor x="97" y="167" name="_top"/>
  <anchor x="177" y="552" name="top"/>
  <outline>
    <contour>
      <point x="72" y="-8" type="curve" smooth="yes"/>
      <point x="136" y="-8"/>
      <point x="180" y="29"/>
      <point x="180" y="87" type="curve" smooth="yes"/>
      <point x="180" y="135"/>
      <point x="144" y="167"/>
      <point x="90" y="167" type="curve" smooth="yes"/>
      <point x="26" y="167"/>
      <point x="-18" y="130"/>
      <point x="-18" y="72" type="curve" smooth="yes"/>
      <point x="-18" y="24"/>
      <point x="18" y="-8"/>
    </contour>
  </outline>
</glyph>
<glyph name="slash" format="2">
  <advance width="495"/>
  <unicode hex="002F"/>
  <outline>
    <contour>
      <point x="-76" y="-82" type="line"/>
      <point x="115" y="-82" type="line"/>
      <point x="572" y="729" type="line"/>
      <point x="379" y="729" type="line"/>
    </contour>
  </outline>
</glyph>
<glyph name="zero" format="2">
  <advance width="623"/>
  <unicode hex="0030"/>
  <outline>
    <contour>
      <point x="279" y="-10" type="curve" smooth="yes"/>
      <point x="432" y="-10"/>
      <point x="555" y="93"/>
      <point x="601" y="311" type="curve" smooth="yes"/>
      <point x="654" y="562"/>
      <point x="578" y="729"/>
      <point x="380" y="729" type="curve" smooth="yes"/>
      <point x="227" y="729"/>
      <point x="104" y="626"/>
      <point x="58" y="408" type="curve" smooth="yes"/>
      <point x="5" y="157"/>
      <point x="86" y="-10"/>
    </contour>
    <contour>
      <point x="293" y="150" type="curve" smooth="yes"/>
      <point x="221" y="150"/>
      <point x="216" y="238"/>
      <point x="243" y="374" type="curve" smooth="yes"/>
      <point x="273" y="528"/>
      <point x="312" y="569"/>
      <point x="366" y="569" type="curve" smooth="yes"/>
      <point x="438" y="569"/>
      <point x="443" y="481"/>
      <point x="416" y="345" type="curve" smooth="yes"/>
      <point x="386" y="191"/>
      <point x="347" y="150"/>
    </contour>
  </outline>
</glyph>
<glyph name="one" format="2">
  <advance width="450"/>
  <unicode hex="0031"/>
  <outline>
    <contour>
      <point x="141" y="0" type="line"/>
      <point x="334" y="0" type="line"/>
      <point x="484" y="721" type="line"/>
      <point x="303" y="721" type="line"/>
      <point x="278" y="643"/>
      <point x="202" y="591"/>
      <point x="116" y="591" type="curve" smooth="yes"/>
      <point x="86" y="591" type="line"/>
      <point x="55" y="443" type="line"/>
      <point x="232" y="443" type="line"/>
    </contour>
  </outline>
</glyph>
<glyph name="two" format="2">
  <advance width="592"/>
  <unicode hex="0032"/>
  <outline>
    <contour>
      <point x="-21" y="0" type="line"/>
      <point x="508" y="0" type="line"/>
      <point x="543" y="165" type="line"/>
      <point x="245" y="165" type="line"/>
      <point x="320" y="250"/>
      <point x="594" y="311"/>
      <point x="594" y="521" type="curve" smooth="yes"/>
      <point x="594" y="646"/>
      <point x="506" y="729"/>
      <point x="354" y="729" type="curve" smooth="yes"/>
      <point x="199" y="729"/>
      <point x="84" y="631"/>
      <point x="74" y="486" type="curve"/>
      <point x="258" y="486" type="line"/>
      <point x="259" y="538"/>
      <point x="293" y="569"/>
      <point x="341" y="569" type="curve" smooth="yes"/>
      <point x="380" y="569"/>
      <point x="405" y="547"/>
      <point x="405" y="509" type="curve" smooth="yes"/>
      <point x="405" y="379"/>
      <point x="39" y="337"/>
      <point x="-15" y="36" type="curve" smooth="yes"/>
    </contour>
  </outline>
</glyph>
<glyph name="three" format="2">
  <advance width="601"/>
  <unicode hex="0033"/>
  <outline>
    <contour>
      <point x="269" y="-10" type="curve" smooth="yes"/>
      <point x="438" y="-10"/>
      <point x="563" y="80"/>
      <point x="563" y="214" type="curve" smooth="yes"/>
      <point x="563" y="293"/>
      <point x="515" y="349"/>
      <point x="469" y="365" type="curve"/>
      <point x="471" y="372" type="line"/>
      <point x="561" y="407"/>
      <point x="603" y="472"/>
      <point x="603" y="545" type="curve" smooth="yes"/>
      <point x="603" y="655"/>
      <point x="512" y="729"/>
      <point x="375" y="729" type="curve" smooth="yes"/>
      <point x="213" y="729"/>
      <point x="91" y="648"/>
      <point x="74" y="505" type="curve"/>
      <point x="262" y="505" type="line"/>
      <point x="268" y="542"/>
      <point x="295" y="567"/>
      <point x="343" y="567" type="curve" smooth="yes"/>
      <point x="384" y="567"/>
      <point x="406" y="545"/>
      <point x="406" y="511" type="curve" smooth="yes"/>
      <point x="406" y="466"/>
      <point x="370" y="436"/>
      <point x="315" y="436" type="curve" smooth="yes"/>
      <point x="243" y="436" type="line"/>
      <point x="212" y="295" type="line"/>
      <point x="293" y="295" type="line" smooth="yes"/>
      <point x="333" y="295"/>
      <point x="367" y="277"/>
      <point x="367" y="229" type="curve" smooth="yes"/>
      <point x="367" y="180"/>
      <point x="333" y="152"/>
      <point x="280" y="152" type="curve" smooth="yes"/>
      <point x="237" y="152"/>
      <point x="201" y="171"/>
      <point x="199" y="219" type="curve"/>
      <point x="12" y="219" type="line"/>
      <point x="10" y="83"/>
      <point x="104" y="-10"/>
    </contour>
  </outline>
</glyph>
<glyph name="four" format="2">
  <advance width="662"/>
  <unicode hex="0034"/>
  <outline>
    <contour>
      <point x="286" y="0" type="line"/>
      <point x="477" y="0" type="line"/>
      <point x="627" y="721" type="line"/>
      <point x="396" y="721" type="line"/>
      <point x="24" y="293" type="line"/>
      <point x="-5" y="152" type="line"/>
      <point x="616" y="152" type="line"/>
      <point x="649" y="307" type="line"/>
      <point x="214" y="307" type="line"/>
      <point x="393" y="514" type="line"/>
      <point x="392" y="514" type="line"/>
    </contour>
  </outline>
</glyph>
<glyph name="five" format="2">
  <advance width="610"/>
  <unicode hex="0035"/>
  <outline>
    <contour>
      <point x="276" y="-10" type="curve" smooth="yes"/>
      <point x="452" y="-10"/>
      <point x="577" y="98"/>
      <point x="577" y="261" type="curve" smooth="yes"/>
      <point x="577" y="384"/>
      <point x="497" y="470"/>
      <point x="376" y="470" type="curve" smooth="yes"/>
      <point x="342" y="470"/>
      <point x="300" y="464"/>
      <point x="268" y="443" type="curve"/>
      <point x="261" y="446" type="line"/>
      <point x="297" y="555" type="line"/>
      <point x="602" y="555" type="line"/>
      <point x="636" y="721" type="line"/>
      <point x="158" y="721" type="line"/>
      <point x="43" y="271" type="line"/>
      <point x="227" y="271" type="line"/>
      <point x="236" y="300"/>
      <point x="270" y="321"/>
      <point x="309" y="321" type="curve" smooth="yes"/>
      <point x="355" y="321"/>
      <point x="385" y="292"/>
      <point x="385" y="247" type="curve" smooth="yes"/>
      <point x="385" y="194"/>
      <point x="352" y="152"/>
      <point x="292" y="152" type="curve" smooth="yes"/>
      <point x="252" y="152"/>
      <point x="225" y="171"/>
      <point x="216" y="204" type="curve"/>
      <point x="21" y="204" type="line"/>
      <point x="25" y="73"/>
      <point x="125" y="-10"/>
    </contour>
  </outline>
</glyph>
<glyph name="six" format="2">
  <advance width="640"/>
  <unicode hex="0036"/>
  <outline>
    <contour>
      <point x="320" y="-10" type="curve" smooth="yes"/>
      <point x="483" y="-10"/>
      <point x="606" y="94"/>
      <point x="606" y="256" type="curve" smooth="yes"/>
      <point x="606" y="388"/>
      <point x="508" y="470"/>
      <point x="389" y="470" type="curve" smooth="yes"/>
      <point x="330" y="470"/>
      <point x="274" y="449"/>
      <point x="249" y="417" type="curve"/>
      <point x="242" y="420" type="line"/>
      <point x="257" y="521"/>
      <point x="307" y="569"/>
      <point x="380" y="569" type="curve" smooth="yes"/>
      <point x="425" y="569"/>
      <point x="459" y="551"/>
      <point x="465" y="518" type="curve"/>
      <point x="653" y="518" type="line"/>
      <point x="643" y="645"/>
      <point x="540" y="729"/>
      <point x="396" y="729" type="curve" smooth="yes"/>
      <point x="164" y="729"/>
      <point x="47" y="539"/>
      <point x="47" y="289" type="curve" smooth="yes"/>
      <point x="47" y="108"/>
      <point x="137" y="-10"/>
    </contour>
    <contour>
      <point x="315" y="152" type="curve" smooth="yes"/>
      <point x="267" y="152"/>
      <point x="235" y="185"/>
      <point x="235" y="234" type="curve" smooth="yes"/>
      <point x="235" y="288"/>
      <point x="266" y="335"/>
      <point x="333" y="335" type="curve" smooth="yes"/>
      <point x="382" y="335"/>
      <point x="414" y="302"/>
      <point x="414" y="253" type="curve" smooth="yes"/>
      <point x="414" y="191"/>
      <point x="377" y="152"/>
    </contour>
  </outline>
</glyph>
<glyph name="seven" format="2">
  <advance width="603"/>
  <unicode hex="0037"/>
  <outline>
    <contour>
      <point x="115" y="0" type="curve"/>
      <point x="315" y="0" type="line"/>
      <point x="398" y="265"/>
      <point x="525" y="432"/>
      <point x="648" y="582" type="curve"/>
      <point x="677" y="721" type="line"/>
      <point x="122" y="721" type="line"/>
      <point x="64" y="445" type="line"/>
      <point x="215" y="445" type="line"/>
      <point x="238" y="555" type="line"/>
      <point x="437" y="555" type="line"/>
      <point x="309" y="419"/>
      <point x="184" y="210"/>
    </contour>
  </outline>
</glyph>
<glyph name="eight" format="2">
  <advance width="622"/>
  <unicode hex="0038"/>
  <outline>
    <contour>
      <point x="289" y="-10" type="curve" smooth="yes"/>
      <point x="464" y="-10"/>
      <point x="581" y="65"/>
      <point x="581" y="198" type="curve" smooth="yes"/>
      <point x="581" y="271"/>
      <point x="529" y="333"/>
      <point x="466" y="353" type="curve"/>
      <point x="468" y="361" type="line"/>
      <point x="557" y="383"/>
      <point x="618" y="445"/>
      <point x="618" y="535" type="curve" smooth="yes"/>
      <point x="618" y="651"/>
      <point x="516" y="729"/>
      <point x="363" y="729" type="curve" smooth="yes"/>
      <point x="213" y="729"/>
      <point x="97" y="652"/>
      <point x="97" y="522" type="curve" smooth="yes"/>
      <point x="97" y="459"/>
      <point x="132" y="404"/>
      <point x="181" y="384" type="curve"/>
      <point x="180" y="375" type="line"/>
      <point x="86" y="358"/>
      <point x="13" y="287"/>
      <point x="13" y="188" type="curve" smooth="yes"/>
      <point x="13" y="69"/>
      <point x="109" y="-10"/>
    </contour>
    <contour>
      <point x="290" y="152" type="curve" smooth="yes"/>
      <point x="236" y="152"/>
      <point x="206" y="180"/>
      <point x="206" y="222" type="curve" smooth="yes"/>
      <point x="206" y="270"/>
      <point x="240" y="302"/>
      <point x="301" y="302" type="curve" smooth="yes"/>
      <point x="355" y="302"/>
      <point x="386" y="273"/>
      <point x="386" y="230" type="curve" smooth="yes"/>
      <point x="386" y="183"/>
      <point x="351" y="152"/>
    </contour>
    <contour>
      <point x="351" y="441" type="curve" smooth="yes"/>
      <point x="307" y="441"/>
      <point x="276" y="465"/>
      <point x="276" y="504" type="curve" smooth="yes"/>
      <point x="276" y="547"/>
      <point x="308" y="575"/>
      <point x="364" y="575" type="curve" smooth="yes"/>
      <point x="408" y="575"/>
      <point x="439" y="550"/>
      <point x="439" y="512" type="curve" smooth="yes"/>
      <point x="439" y="467"/>
      <point x="404" y="441"/>
    </contour>
  </outline>
</glyph>
<glyph name="equal" format="2">
  <advance width="600"/>
  <unicode hex="003D"/>
  <anchor x="320" y="366" name="center"/>
  <outline>
    <contour>
      <point x="94" y="406" type="line"/>
      <point x="562" y="406" type="line"/>
      <point x="594" y="555" type="line"/>
      <point x="126" y="555" type="line"/>
    </contour>
    <contour>
      <point x="44" y="166" type="line"/>
      <point x="512" y="166" type="line"/>
      <point x="543" y="315" type="line"/>
      <point x="75" y="315" type="line"/>
    </contour>
  </outline>
</glyph>
<glyph name="greater" format="2">
  <advance width="600"/>
  <unicode hex="003E"/>
  <outline>
    <contour>
      <point x="16" y="77" type="line"/>
      <point x="554" y="252" type="line"/>
      <point x="599" y="466" type="line"/>
      <point x="135" y="644" type="line"/>
      <point x="95" y="453" type="line"/>
      <point x="388" y="366" type="line"/>
      <point x="384" y="352" type="line"/>
      <point x="57" y="268" type="line"/>
    </contour>
  </outline>
</glyph>
<glyph name="question" format="2">
  <advance width="578"/>
  <unicode hex="003F"/>
  <outline>
    <contour>
      <point x="200" y="220" type="line"/>
      <point x="368" y="220" type="line"/>
      <point x="369" y="226" type="line" smooth="yes"/>
      <point x="384" y="317"/>
      <point x="599" y="354"/>
      <point x="605" y="534" type="curve" smooth="yes"/>
      <point x="610" y="682"/>
      <point x="494" y="738"/>
      <point x="356" y="738" type="curve" smooth="yes"/>
      <point x="202" y="738"/>
      <point x="88" y="650"/>
      <point x="71" y="506" type="curve"/>
      <point x="255" y="506" type="line"/>
      <point x="264" y="552"/>
      <point x="295" y="577"/>
      <point x="341" y="577" type="curve" smooth="yes"/>
      <point x="382" y="577"/>
      <point x="408" y="555"/>
      <point x="406" y="517" type="curve" smooth="yes"/>
      <point x="403" y="411"/>
      <point x="232" y="402"/>
      <point x="206" y="254" type="curve" smooth="yes"/>
    </contour>
    <contour>
      <point x="247" y="-8" type="curve" smooth="yes"/>
      <point x="311" y="-8"/>
      <point x="355" y="29"/>
      <point x="355" y="87" type="curve" smooth="yes"/>
      <point x="355" y="135"/>
      <point x="319" y="167"/>
      <point x="265" y="167" type="curve" smooth="yes"/>
      <point x="201" y="167"/>
      <point x="157" y="130"/>
      <point x="157" y="72" type="curve" smooth="yes"/>
      <point x="157" y="24"/>
      <point x="193" y="-8"/>
    </contour>
  </outline>
</glyph>
<glyph name="at" format="2">
  <advance width="877"/>
  <unicode hex="0040"/>
  <outline>
    <contour>
      <point x="413" y="-98" type="curve" smooth="yes"/>
      <point x="505" y="-98"/>
      <point x="597" y="-74"/>
      <point x="648" y="-37" type="curve"/>
      <point x="623" y="45" type="line"/>
      <point x="573" y="13"/>
      <point x="503" y="-6"/>
      <point x="432" y="-6" type="curve" smooth="yes"/>
      <point x="267" y="-6"/>
      <point x="154" y="92"/>
      <point x="154" y="270" type="curve" smooth="yes"/>
      <point x="154" y="476"/>
      <point x="294" y="640"/>
      <point x="498" y="640" type="curve" smooth="yes"/>
      <point x="655" y="640"/>
      <point x="757" y="549"/>
      <point x="757" y="387" type="curve" smooth="yes"/>
      <point x="757" y="273"/>
      <point x="708" y="184"/>
      <point x="637" y="184" type="curve" smooth="yes"/>
      <point x="586" y="184"/>
      <point x="581" y="230"/>
      <point x="596" y="289" type="curve" smooth="yes"/>
      <point x="648" y="492" type="line"/>
      <point x="582" y="496" type="line"/>
      <point x="560" y="443" type="line"/>
      <point x="553" y="443" type="line"/>
      <point x="543" y="486"/>
      <point x="503" y="515"/>
      <point x="450" y="515" type="curve" smooth="yes"/>
      <point x="350" y="515"/>
      <point x="259" y="403"/>
      <point x="259" y="264" type="curve" smooth="yes"/>
      <point x="259" y="167"/>
      <point x="304" y="112"/>
      <point x="383" y="112" type="curve" smooth="yes"/>
      <point x="438" y="112"/>
      <point x="482" y="139"/>
      <point x="504" y="178" type="curve"/>
      <point x="511" y="178" type="line"/>
      <point x="518" y="128"/>
      <point x="560" y="91"/>
      <point x="629" y="91" type="curve" smooth="yes"/>
      <point x="758" y="91"/>
      <point x="861" y="217"/>
      <point x="861" y="396" type="curve" smooth="yes"/>
      <point x="861" y="600"/>
      <point x="718" y="735"/>
      <point x="501" y="735" type="curve" smooth="yes"/>
      <point x="243" y="735"/>
      <point x="45" y="538"/>
      <point x="45" y="267" type="curve" smooth="yes"/>
      <point x="45" y="41"/>
      <point x="195" y="-98"/>
    </contour>
    <contour>
      <point x="415" y="202" type="curve" smooth="yes"/>
      <point x="379" y="202"/>
      <point x="360" y="229"/>
      <point x="360" y="278" type="curve" smooth="yes"/>
      <point x="360" y="361"/>
      <point x="403" y="424"/>
      <point x="457" y="424" type="curve" smooth="yes"/>
      <point x="496" y="424"/>
      <point x="514" y="393"/>
      <point x="514" y="346" type="curve" smooth="yes"/>
      <point x="514" y="268"/>
      <point x="471" y="202"/>
    </contour>
  </outline>
</glyph>
<glyph name="A" format="2">
  <advance width="724"/>
  <unicode hex="0041"/>
  <anchor x="317" y="0" name="bottom"/>
  <anchor x="657" y="0" name="ogonek"/>
  <anchor x="453" y="729" name="top"/>
  <outline>
    <contour>
      <point x="-45" y="0" type="line"/>
      <point x="157" y="0" type="line"/>
      <point x="375" y="449" type="line"/>
      <point x="411" y="527" type="line"/>
      <point x="418" y="527" type="line"/>
      <point x="425" y="449" type="line"/>
      <point x="465" y="0" type="line"/>
      <point x="657" y="0" type="line"/>
      <point x="574" y="729" type="line"/>
      <point x="332" y="729" type="line"/>
    </contour>
    <contour>
      <point x="205" y="130" type="line"/>
      <point x="469" y="130" type="line"/>
      <point x="455" y="284" type="line"/>
      <point x="279" y="284" type="line"/>
    </contour>
  </outline>
</glyph>
<glyph name="B" format="2">
  <advance width="704"/>
  <unicode hex="0042"/>
  <anchor x="304" y="0" name="bottom"/>
  <anchor x="455" y="729" name="top"/>
  <outline>
    <contour>
      <point x="3" y="0" type="line"/>
      <point x="368" y="0" type="line" smooth="yes"/>
      <point x="553" y="0"/>
      <point x="660" y="77"/>
      <point x="665" y="212" type="curve" smooth="yes"/>
      <point x="668" y="289"/>
      <point x="625" y="351"/>
      <point x="556" y="371" type="curve"/>
      <point x="557" y="378" type="line"/>
      <point x="648" y="403"/>
      <point x="703" y="467"/>
      <point x="706" y="550" type="curve" smooth="yes"/>
      <point x="710" y="657"/>
      <point x="645" y="729"/>
      <point x="491" y="729" type="curve" smooth="yes"/>
      <point x="154" y="729" type="line"/>
    </contour>
    <contour>
      <point x="230" y="153" type="line"/>
      <point x="319" y="576" type="line"/>
      <point x="438" y="576" type="line" smooth="yes"/>
      <point x="477" y="576"/>
      <point x="503" y="558"/>
      <point x="503" y="521" type="curve" smooth="yes"/>
      <point x="503" y="474"/>
      <point x="469" y="445"/>
      <point x="415" y="445" type="curve" smooth="yes"/>
      <point x="276" y="445" type="line"/>
      <point x="244" y="300" type="line"/>
      <point x="387" y="300" type="line" smooth="yes"/>
      <point x="431" y="300"/>
      <point x="461" y="280"/>
      <point x="461" y="238" type="curve" smooth="yes"/>
      <point x="461" y="185"/>
      <point x="422" y="153"/>
      <point x="362" y="153" type="curve" smooth="yes"/>
    </contour>
  </outline>
</glyph>
<glyph name="C" format="2">
  <advance width="759"/>
  <unicode hex="0043"/>
  <anchor x="378" y="0" name="bottom"/>
  <anchor x="472" y="729" name="top"/>
  <outline>
    <contour>
      <point x="391" y="-9" type="curve" smooth="yes"/>
      <point x="574" y="-9"/>
      <point x="705" y="93"/>
      <point x="733" y="255" type="curve"/>
      <point x="529" y="255" type="line"/>
      <point x="508" y="190"/>
      <point x="459" y="157"/>
      <point x="381" y="159" type="curve" smooth="yes"/>
      <point x="304" y="161"/>
      <point x="250" y="215"/>
      <point x="254" y="329" type="curve" smooth="yes"/>
      <point x="259" y="473"/>
      <point x="328" y="569"/>
      <point x="439" y="569" type="curve" smooth="yes"/>
      <point x="512" y="569"/>
      <point x="565" y="531"/>
      <point x="572" y="469" type="curve"/>
      <point x="774" y="469" type="line"/>
      <point x="770" y="628"/>
      <point x="638" y="737"/>
      <point x="440" y="737" type="curve" smooth="yes"/>
      <point x="214" y="737"/>
      <point x="56" y="580"/>
      <point x="47" y="337" type="curve" smooth="yes"/>
      <point x="40" y="129"/>
      <point x="162" y="-9"/>
    </contour>
  </outline>
</glyph>
<glyph name="D" format="2">
  <advance width="739"/>
  <unicode hex="0044"/>
  <anchor x="311" y="0" name="bottom"/>
  <anchor x="209" y="365" name="center"/>
  <anchor x="445" y="729" name="top"/>
  <outline>
    <contour>
      <point x="3" y="0" type="line"/>
      <point x="316" y="0" type="line" smooth="yes"/>
      <point x="563" y="0"/>
      <point x="726" y="166"/>
      <point x="735" y="428" type="curve" smooth="yes"/>
      <point x="741" y="609"/>
      <point x="633" y="729"/>
      <point x="445" y="729" type="curve" smooth="yes"/>
      <point x="154" y="729" type="line"/>
    </contour>
    <contour>
      <point x="239" y="168" type="line"/>
      <point x="320" y="561" type="line"/>
      <point x="397" y="561" type="line" smooth="yes"/>
      <point x="477" y="561"/>
      <point x="531" y="518"/>
      <point x="527" y="414" type="curve" smooth="yes"/>
      <point x="522" y="255"/>
      <point x="446" y="168"/>
      <point x="316" y="168" type="curve" smooth="yes"/>
    </contour>
  </outline>
</glyph>
<glyph name="E" format="2">
  <advance width="631"/>
  <unicode hex="0045"/>
  <anchor x="272" y="0" name="bottom"/>
  <anchor x="541" y="0" name="ogonek"/>
  <anchor x="423" y="729" name="top"/>
  <anchor x="115" y="729" name="topleft"/>
  <outline>
    <contour>
      <point x="3" y="0" type="line"/>
      <point x="541" y="0" type="line"/>
      <point x="576" y="172" type="line"/>
      <point x="195" y="172" type="line"/>
      <point x="231" y="128" type="line"/>
      <point x="328" y="601" type="line"/>
      <point x="274" y="557" type="line"/>
      <point x="653" y="557" type="line"/>
      <point x="689" y="729" type="line"/>
      <point x="154" y="729" type="line"/>
    </contour>
    <contour>
      <point x="218" y="285" type="line"/>
      <point x="549" y="285" type="line"/>
      <point x="582" y="446" type="line"/>
      <point x="251" y="446" type="line"/>
    </contour>
  </outline>
</glyph>
<glyph name="F" format="2">
  <advance width="606"/>
  <unicode hex="0046"/>
  <anchor x="252" y="0" name="bottom"/>
  <anchor x="403" y="729" name="top"/>
  <outline>
    <contour>
      <point x="3" y="0" type="line"/>
      <point x="204" y="0" type="line"/>
      <point x="328" y="601" type="line"/>
      <point x="274" y="557" type="line"/>
      <point x="642" y="557" type="line"/>
      <point x="678" y="729" type="line"/>
      <point x="154" y="729" type="line"/>
    </contour>
    <contour>
      <point x="197" y="262" type="line"/>
      <point x="542" y="262" type="line"/>
      <point x="576" y="425" type="line"/>
      <point x="231" y="425" type="line"/>
    </contour>
  </outline>
</glyph>
<glyph name="G" format="2">
  <advance width="802"/>
  <unicode hex="0047"/>
  <anchor x="343" y="0" name="bottom"/>
  <anchor x="477" y="729" name="top"/>
  <outline>
    <contour>
      <point x="341" y="-9" type="curve" smooth="yes"/>
      <point x="444" y="-9"/>
      <point x="517" y="24"/>
      <point x="556" y="79" type="curve"/>
      <point x="563" y="79" type="line"/>
      <point x="558" y="0" type="line"/>
      <point x="704" y="0" type="line"/>
      <point x="789" y="408" type="line"/>
      <point x="426" y="408" type="line"/>
      <point x="395" y="264" type="line"/>
      <point x="571" y="264" type="line"/>
      <point x="555" y="281" type="line"/>
      <point x="552" y="269" type="line" smooth="yes"/>
      <point x="534" y="199"/>
      <point x="480" y="158"/>
      <point x="396" y="158" type="curve" smooth="yes"/>
      <point x="306" y="158"/>
      <point x="251" y="213"/>
      <point x="251" y="314" type="curve" smooth="yes"/>
      <point x="251" y="468"/>
      <point x="327" y="566"/>
      <point x="443" y="566" type="curve" smooth="yes"/>
      <point x="525" y="566"/>
      <point x="581" y="529"/>
      <point x="587" y="474" type="curve"/>
      <point x="791" y="474" type="line"/>
      <point x="787" y="633"/>
      <point x="643" y="737"/>
      <point x="460" y="737" type="curve" smooth="yes"/>
      <point x="206" y="737"/>
      <point x="44" y="559"/>
      <point x="44" y="299" type="curve" smooth="yes"/>
      <point x="44" y="108"/>
      <point x="165" y="-9"/>
    </contour>
  </outline>
</glyph>
<glyph name="H" format="2">
  <advance width="785"/>
  <unicode hex="0048"/>
  <anchor x="347" y="0" name="bottom"/>
  <anchor x="459" y="591" name="center"/>
  <anchor x="498" y="729" name="top"/>
  <anchor x="115" y="729" name="topleft"/>
  <outline>
    <contour>
      <point x="3" y="0" type="line"/>
      <point x="204" y="0" type="line"/>
      <point x="355" y="729" type="line"/>
      <point x="154" y="729" type="line"/>
    </contour>
    <contour>
      <point x="469" y="0" type="line"/>
      <point x="670" y="0" type="line"/>
      <point x="821" y="729" type="line"/>
      <point x="620" y="729" type="line"/>
    </contour>
    <contour>
      <point x="202" y="283" type="line"/>
      <point x="590" y="283" type="line"/>
      <point x="624" y="455" type="line"/>
      <point x="238" y="455" type="line"/>
    </contour>
  </outline>
</glyph>
<glyph name="I" format="2">
  <advance width="319"/>
  <unicode hex="0049"/>
  <anchor x="104" y="0" name="bottom"/>
  <anchor x="204" y="0" name="ogonek"/>
  <anchor x="254" y="729" name="top"/>
  <anchor x="115" y="729" name="topleft"/>
  <outline>
    <contour>
      <point x="3" y="0" type="line"/>
      <point x="204" y="0" type="line"/>
      <point x="355" y="729" type="line"/>
      <point x="154" y="729" type="line"/>
    </contour>
  </outline>
</glyph>
<glyph name="J" format="2">
  <advance width="429"/>
  <unicode hex="004A"/>
  <anchor x="183" y="0" name="bottom"/>
  <anchor x="371" y="729" name="top"/>
  <outline>
    <contour>
      <point x="-38" y="0" type="line"/>
      <point x="122" y="0" type="line" smooth="yes"/>
      <point x="244" y="0"/>
      <point x="329" y="43"/>
      <point x="366" y="221" type="curve" smooth="yes"/>
      <point x="471" y="729" type="line"/>
      <point x="270" y="729" type="line"/>
      <point x="168" y="234" type="line" smooth="yes"/>
      <point x="155" y="170"/>
      <point x="128" y="156"/>
      <point x="72" y="156" type="curve" smooth="yes"/>
      <point x="-6" y="156" type="line"/>
    </contour>
  </outline>
</glyph>
<glyph name="K" format="2">
  <advance width="741"/>
  <unicode hex="004B"/>
  <anchor x="316" y="0" name="bottom"/>
  <anchor x="467" y="729" name="top"/>
  <outline>
    <contour>
      <point x="454" y="0" type="line"/>
      <point x="675" y="0" type="line"/>
      <point x="494" y="421" type="line"/>
      <point x="816" y="729" type="line"/>
      <point x="569" y="729" type="line"/>
      <point x="286" y="439" type="line"/>
      <point x="231" y="181" type="line"/>
      <point x="341" y="283" type="line"/>
    </contour>
    <contour>
      <point x="3" y="0" type="line"/>
      <point x="204" y="0" type="line"/>
      <point x="355" y="729" type="line"/>
      <point x="154" y="729" type="line"/>
    </contour>
  </outline>
</glyph>
<glyph name="L" format="2">
  <advance width="569"/>
  <unicode hex="004C"/>
  <anchor x="228" y="0" name="bottom"/>
  <anchor x="400" y="365" name="center"/>
  <anchor x="255" y="729" name="top"/>
  <anchor x="383" y="729" name="topright"/>
  <outline>
    <contour>
      <point x="3" y="0" type="line"/>
      <point x="493" y="0" type="line"/>
      <point x="530" y="179" type="line"/>
      <point x="230" y="179" type="line"/>
      <point x="239" y="168" type="line"/>
      <point x="355" y="729" type="line"/>
      <point x="154" y="729" type="line"/>
    </contour>
  </outline>
</glyph>
<glyph name="M" format="2">
  <advance width="922"/>
  <unicode hex="004D"/>
  <anchor x="405" y="0" name="bottom"/>
  <anchor x="556" y="729" name="top"/>
  <outline>
    <contour>
      <point x="3" y="0" type="line"/>
      <point x="198" y="0" type="line"/>
      <point x="263" y="312" type="line"/>
      <point x="306" y="538" type="line"/>
      <point x="315" y="538" type="line"/>
      <point x="317" y="331" type="line"/>
      <point x="324" y="0" type="line"/>
      <point x="488" y="0" type="line"/>
      <point x="631" y="326" type="line"/>
      <point x="717" y="538" type="line"/>
      <point x="725" y="538" type="line"/>
      <point x="677" y="312" type="line"/>
      <point x="612" y="0" type="line"/>
      <point x="807" y="0" type="line"/>
      <point x="958" y="729" type="line"/>
      <point x="654" y="729" type="line"/>
      <point x="523" y="430" type="line"/>
      <point x="472" y="293" type="line"/>
      <point x="464" y="293" type="line"/>
      <point x="468" y="430" type="line"/>
      <point x="458" y="729" type="line"/>
      <point x="154" y="729" type="line"/>
    </contour>
  </outline>
</glyph>
<glyph name="O" format="2">
  <advance width="790"/>
  <unicode hex="004F"/>
  <anchor x="357" y="0" name="bottom"/>
  <anchor x="414" y="365" name="center"/>
  <anchor x="653" y="10" name="ogonek"/>
  <anchor x="472" y="729" name="top"/>
  <anchor x="120" y="729" name="topleft"/>
  <anchor x="538" y="729" name="topright"/>
  <outline>
    <contour>
      <point x="387" y="-9" type="curve" smooth="yes"/>
      <point x="614" y="-9"/>
      <point x="772" y="148"/>
      <point x="781" y="392" type="curve" smooth="yes"/>
      <point x="788" y="599"/>
      <point x="667" y="738"/>
      <point x="442" y="738" type="curve" smooth="yes"/>
      <point x="215" y="738"/>
      <point x="56" y="581"/>
      <point x="47" y="337" type="curve" smooth="yes"/>
      <point x="40" y="130"/>
      <point x="161" y="-9"/>
    </contour>
    <contour>
      <point x="390" y="160" type="curve" smooth="yes"/>
      <point x="305" y="160"/>
      <point x="250" y="215"/>
      <point x="254" y="329" type="curve" smooth="yes"/>
      <point x="259" y="474"/>
      <point x="328" y="569"/>
      <point x="439" y="569" type="curve" smooth="yes"/>
      <point x="524" y="569"/>
      <point x="578" y="514"/>
      <point x="574" y="400" type="curve" smooth="yes"/>
      <point x="569" y="255"/>
      <point x="502" y="160"/>
    </contour>
  </outline>
</glyph>
<glyph name="P" format="2">
  <advance width="665"/>
  <unicode hex="0050"/>
  <anchor x="281" y="0" name="bottom"/>
  <anchor x="432" y="729" name="top"/>
  <outline>
    <contour>
      <point x="3" y="0" type="line"/>
      <point x="206" y="0" type="line"/>
      <point x="324" y="573" type="line"/>
      <point x="308" y="559" type="line"/>
      <point x="393" y="559" type="line" smooth="yes"/>
      <point x="444" y="559"/>
      <point x="480" y="536"/>
      <point x="480" y="487" type="curve" smooth="yes"/>
      <point x="480" y="425"/>
      <point x="434" y="387"/>
      <point x="364" y="387" type="curve" smooth="yes"/>
      <point x="270" y="387" type="line"/>
      <point x="238" y="232" type="line"/>
      <point x="382" y="232" type="line" smooth="yes"/>
      <point x="556" y="232"/>
      <point x="681" y="336"/>
      <point x="686" y="498" type="curve" smooth="yes"/>
      <point x="691" y="637"/>
      <point x="607" y="729"/>
      <point x="421" y="729" type="curve" smooth="yes"/>
      <point x="154" y="729" type="line"/>
    </contour>
  </outline>
</glyph>
<glyph name="R" format="2">
  <advance width="722"/>
  <unicode hex="0052"/>
  <anchor x="314" y="0" name="bottom"/>
  <anchor x="432" y="729" name="top"/>
  <outline>
    <contour>
      <point x="3" y="0" type="line"/>
      <point x="204" y="0" type="line"/>
      <point x="321" y="569" type="line"/>
      <point x="452" y="569" type="line" smooth="yes"/>
      <point x="531" y="569"/>
      <point x="540" y="514"/>
      <point x="531" y="478" type="curve" smooth="yes"/>
      <point x="522" y="432"/>
      <point x="482" y="405"/>
      <point x="424" y="405" type="curve" smooth="yes"/>
      <point x="271" y="405" type="line"/>
      <point x="238" y="246" type="line"/>
      <point x="387" y="246" type="line" smooth="yes"/>
      <point x="436" y="246"/>
      <point x="463" y="228"/>
      <point x="449" y="161" type="curve" smooth="yes"/>
      <point x="428" y="59" type="line" smooth="yes"/>
      <point x="423" y="36"/>
      <point x="421" y="16"/>
      <point x="422" y="0" type="curve"/>
      <point x="625" y="0" type="line"/>
      <point x="621" y="15"/>
      <point x="621" y="26"/>
      <point x="630" y="69" type="curve" smooth="yes"/>
      <point x="654" y="186" type="line" smooth="yes"/>
      <point x="668" y="257"/>
      <point x="647" y="302"/>
      <point x="579" y="327" type="curve"/>
      <point x="580" y="334" type="line"/>
      <point x="664" y="356"/>
      <point x="720" y="412"/>
      <point x="736" y="488" type="curve" smooth="yes"/>
      <point x="756" y="574"/>
      <point x="725" y="729"/>
      <point x="491" y="729" type="curve" smooth="yes"/>
      <point x="154" y="729" type="line"/>
    </contour>
  </outline>
</glyph>
<glyph name="S" format="2">
  <advance width="657"/>
  <unicode hex="0053"/>
  <anchor x="304" y="0" name="bottom"/>
  <anchor x="394" y="729" name="top"/>
  <outline>
    <contour>
      <point x="302" y="-10" type="curve" smooth="yes"/>
      <point x="503" y="-10"/>
      <point x="624" y="92"/>
      <point x="624" y="261" type="curve" smooth="yes"/>
      <point x="624" y="369"/>
      <point x="567" y="422"/>
      <point x="396" y="462" type="curve" smooth="yes"/>
      <point x="334" y="477"/>
      <point x="303" y="491"/>
      <point x="303" y="523" type="curve" smooth="yes"/>
      <point x="303" y="562"/>
      <point x="331" y="584"/>
      <point x="379" y="584" type="curve" smooth="yes"/>
      <point x="433" y="584"/>
      <point x="461" y="556"/>
      <point x="457" y="510" type="curve"/>
      <point x="661" y="510" type="line"/>
      <point x="666" y="642"/>
      <point x="563" y="738"/>
      <point x="396" y="738" type="curve" smooth="yes"/>
      <point x="218" y="738"/>
      <point x="86" y="649"/>
      <point x="86" y="489" type="curve" smooth="yes"/>
      <point x="86" y="383"/>
      <point x="153" y="325"/>
      <point x="312" y="282" type="curve" smooth="yes"/>
      <point x="386" y="262"/>
      <point x="407" y="251"/>
      <point x="407" y="218" type="curve" smooth="yes"/>
      <point x="407" y="171"/>
      <point x="376" y="146"/>
      <point x="312" y="146" type="curve" smooth="yes"/>
      <point x="249" y="146"/>
      <point x="210" y="181"/>
      <point x="212" y="235" type="curve"/>
      <point x="15" y="235" type="line"/>
      <point x="6" y="82"/>
      <point x="114" y="-10"/>
    </contour>
  </outline>
</glyph>
<glyph name="T" format="2">
  <advance width="635"/>
  <unicode hex="0054"/>
  <anchor x="259" y="0" name="bottom"/>
  <anchor x="326" y="324" name="center"/>
  <anchor x="409" y="729" name="top"/>
  <outline>
    <contour>
      <point x="158" y="0" type="line"/>
      <point x="359" y="0" type="line"/>
      <point x="477" y="571" type="line"/>
      <point x="276" y="571" type="line"/>
    </contour>
    <contour>
      <point x="79" y="555" type="line"/>
      <point x="674" y="555" type="line"/>
      <point x="710" y="729" type="line"/>
      <point x="115" y="729" type="line"/>
    </contour>
  </outline>
</glyph>
<glyph name="U" format="2">
  <advance width="722"/>
  <unicode hex="0055"/>
  <anchor x="314" y="0" name="bottom"/>
  <anchor x="437" y="0" name="ogonek"/>
  <anchor x="455" y="729" name="top"/>
  <anchor x="595" y="729" name="topright"/>
  <outline>
    <contour>
      <point x="324" y="-10" type="curve" smooth="yes"/>
      <point x="499" y="-10"/>
      <point x="632" y="77"/>
      <point x="671" y="263" type="curve" smooth="yes"/>
      <point x="769" y="729" type="line"/>
      <point x="572" y="729" type="line"/>
      <point x="483" y="302" type="line" smooth="yes"/>
      <point x="466" y="222"/>
      <point x="430" y="169"/>
      <point x="344" y="169" type="curve" smooth="yes"/>
      <point x="272" y="169"/>
      <point x="231" y="211"/>
      <point x="249" y="300" type="curve" smooth="yes"/>
      <point x="338" y="729" type="line"/>
      <point x="141" y="729" type="line"/>
      <point x="53" y="306" type="line" smooth="yes"/>
      <point x="15" y="121"/>
      <point x="107" y="-10"/>
    </contour>
  </outline>
</glyph>
<glyph name="V" format="2">
  <advance width="762"/>
  <unicode hex="0056"/>
  <anchor x="334" y="0" name="bottom"/>
  <anchor x="485" y="729" name="top"/>
  <outline>
    <contour>
      <point x="200" y="0" type="line"/>
      <point x="451" y="0" type="line"/>
      <point x="846" y="729" type="line"/>
      <point x="618" y="729" type="line"/>
      <point x="422" y="317" type="line"/>
      <point x="368" y="195" type="line"/>
      <point x="360" y="195" type="line"/>
      <point x="349" y="314" type="line"/>
      <point x="316" y="729" type="line"/>
      <point x="106" y="729" type="line"/>
    </contour>
  </outline>
</glyph>
<glyph name="W" format="2">
  <advance width="1023"/>
  <unicode hex="0057"/>
  <anchor x="457" y="0" name="bottom"/>
  <anchor x="608" y="729" name="top"/>
  <outline>
    <contour>
      <point x="103" y="0" type="line"/>
      <point x="381" y="0" type="line"/>
      <point x="492" y="304" type="line"/>
      <point x="546" y="450" type="line"/>
      <point x="553" y="450" type="line"/>
      <point x="547" y="303" type="line"/>
      <point x="534" y="0" type="line"/>
      <point x="807" y="0" type="line"/>
      <point x="1103" y="729" type="line"/>
      <point x="881" y="729" type="line"/>
      <point x="764" y="397" type="line"/>
      <point x="708" y="219" type="line"/>
      <point x="700" y="219" type="line"/>
      <point x="711" y="398" type="line"/>
      <point x="730" y="729" type="line"/>
      <point x="486" y="729" type="line"/>
      <point x="368" y="393" type="line"/>
      <point x="307" y="221" type="line"/>
      <point x="298" y="221" type="line"/>
      <point x="313" y="400" type="line"/>
      <point x="332" y="729" type="line"/>
      <point x="110" y="729" type="line"/>
    </contour>
  </outline>
</glyph>
<glyph name="X" format="2">
  <advance width="799"/>
  <unicode hex="0058"/>
  <anchor x="353" y="0" name="bottom"/>
  <anchor x="504" y="729" name="top"/>
  <outline>
    <contour>
      <point x="-48" y="0" type="line"/>
      <point x="184" y="0" type="line"/>
      <point x="318" y="155" type="line"/>
      <point x="396" y="245" type="line"/>
      <point x="401" y="245" type="line"/>
      <point x="440" y="152" type="line"/>
      <point x="504" y="0" type="line"/>
      <point x="732" y="0" type="line"/>
      <point x="555" y="378" type="line"/>
      <point x="880" y="729" type="line"/>
      <point x="638" y="729" type="line"/>
      <point x="534" y="605" type="line"/>
      <point x="463" y="520" type="line"/>
      <point x="458" y="520" type="line"/>
      <point x="429" y="600" type="line"/>
      <point x="381" y="729" type="line"/>
      <point x="153" y="729" type="line"/>
      <point x="309" y="399" type="line"/>
    </contour>
  </outline>
</glyph>
<glyph name="Y" format="2">
  <advance width="743"/>
  <unicode hex="0059"/>
  <anchor x="315" y="0" name="bottom"/>
  <anchor x="457" y="729" name="top"/>
  <anchor x="132" y="729" name="topleft"/>
  <outline>
    <contour>
      <point x="214" y="0" type="line"/>
      <point x="415" y="0" type="line"/>
      <point x="469" y="262" type="line"/>
      <point x="830" y="729" type="line"/>
      <point x="595" y="729" type="line"/>
      <point x="472" y="556" type="line"/>
      <point x="404" y="452" type="line"/>
      <point x="396" y="452" type="line"/>
      <point x="370" y="557" type="line"/>
      <point x="325" y="729" type="line"/>
      <point x="103" y="729" type="line"/>
      <point x="269" y="269" type="line"/>
    </contour>
  </outline>
</glyph>
<glyph name="Z" format="2">
  <advance width="634"/>
  <unicode hex="005A"/>
  <anchor x="261" y="0" name="bottom"/>
  <anchor x="336" y="365" name="center"/>
  <anchor x="411" y="729" name="top"/>
  <outline>
    <contour>
      <point x="-28" y="0" type="line"/>
      <point x="547" y="0" type="line"/>
      <point x="582" y="172" type="line"/>
      <point x="266" y="172" type="line"/>
      <point x="657" y="574" type="line"/>
      <point x="689" y="729" type="line"/>
      <point x="142" y="729" type="line"/>
      <point x="107" y="556" type="line"/>
      <point x="393" y="556" type="line"/>
      <point x="5" y="157" type="line"/>
    </contour>
  </outline>
</glyph>
<glyph name="bracketleft" format="2">
  <advance width="390"/>
  <unicode hex="005B"/>
  <outline>
    <contour>
      <point x="-28" y="-167" type="line"/>
      <point x="267" y="-167" type="line"/>
      <point x="298" y="-24" type="line"/>
      <point x="179" y="-24" type="line"/>
      <point x="320" y="649" type="line"/>
      <point x="439" y="649" type="line"/>
      <point x="469" y="793" type="line"/>
      <point x="174" y="793" type="line"/>
    </contour>
  </outline>
</glyph>
<glyph name="backslash" format="2">
  <advance width="433"/>
  <unicode hex="005C"/>
  <outline>
    <contour>
      <point x="200" y="-82" type="line"/>
      <point x="371" y="-82" type="line"/>
      <point x="258" y="729" type="line"/>
      <point x="84" y="729" type="line"/>
    </contour>
  </outline>
</glyph>
<glyph name="asciicircum" format="2">
  <advance width="600"/>
  <unicode hex="005E"/>
  <outline>
    <contour>
      <point x="118" y="468" type="line"/>
      <point x="271" y="468" type="line"/>
      <point x="368" y="586" type="line"/>
      <point x="413" y="468" type="line"/>
      <point x="566" y="468" type="line"/>
      <point x="466" y="729" type="line"/>
      <point x="328" y="729" type="line"/>
    </contour>
  </outline>
</glyph>
<glyph name="underscore" format="2">
  <advance width="475"/>
  <unicode hex="005F"/>
  <outline>
    <contour>
      <point x="-52" y="-160" type="line"/>
      <point x="348" y="-160" type="line"/>
      <point x="382" y="0" type="line"/>
      <point x="-18" y="0" type="line"/>
    </contour>
  </outline>
</glyph>
<glyph name="a" format="2">
  <advance width="657"/>
  <unicode hex="0061"/>
  <anchor x="266" y="0" name="bottom"/>
  <anchor x="546" y="0" name="ogonek"/>
  <anchor x="378" y="544" name="top"/>
  <outline>
    <contour>
      <point x="208" y="-10" type="curve" smooth="yes"/>
      <point x="276" y="-10"/>
      <point x="336" y="20"/>
      <point x="361" y="67" type="curve"/>
      <point x="369" y="66" type="line"/>
      <point x="360" y="0" type="line"/>
      <point x="546" y="0" type="line"/>
      <point x="659" y="544" type="line"/>
      <point x="477" y="544" type="line"/>
      <point x="450" y="457" type="line"/>
      <point x="444" y="457" type="line"/>
      <point x="425" y="515"/>
      <point x="361" y="554"/>
      <point x="291" y="554" type="curve" smooth="yes"/>
      <point x="138" y="554"/>
      <point x="48" y="431"/>
      <point x="29" y="276" type="curve" smooth="yes"/>
      <point x="8" y="105"/>
      <point x="80" y="-10"/>
    </contour>
    <contour>
      <point x="304" y="143" type="curve" smooth="yes"/>
      <point x="244" y="143"/>
      <point x="211" y="193"/>
      <point x="224" y="281" type="curve" smooth="yes"/>
      <point x="235" y="353"/>
      <point x="276" y="401"/>
      <point x="337" y="401" type="curve" smooth="yes"/>
      <point x="399" y="401"/>
      <point x="428" y="351"/>
      <point x="414" y="287" type="curve" smooth="yes"/>
      <point x="405" y="241" type="line" smooth="yes"/>
      <point x="392" y="182"/>
      <point x="361" y="143"/>
    </contour>
  </outline>
</glyph>
<glyph name="b" format="2">
  <advance width="656"/>
  <unicode hex="0062"/>
  <anchor x="32" y="22" name="bottom"/>
  <anchor x="395" y="729" name="top"/>
  <outline>
    <contour>
      <point x="365" y="-10" type="curve" smooth="yes"/>
      <point x="518" y="-10"/>
      <point x="608" y="113"/>
      <point x="627" y="268" type="curve" smooth="yes"/>
      <point x="648" y="439"/>
      <point x="576" y="554"/>
      <point x="448" y="554" type="curve" smooth="yes"/>
      <point x="381" y="554"/>
      <point x="321" y="524"/>
      <point x="295" y="477" type="curve"/>
      <point x="288" y="478" type="line"/>
      <point x="340" y="729" type="line"/>
      <point x="149" y="729" type="line"/>
      <point x="-2" y="0" type="line"/>
      <point x="180" y="0" type="line"/>
      <point x="207" y="87" type="line"/>
      <point x="213" y="87" type="line"/>
      <point x="231" y="29"/>
      <point x="295" y="-10"/>
    </contour>
    <contour>
      <point x="319" y="143" type="curve" smooth="yes"/>
      <point x="257" y="143"/>
      <point x="228" y="193"/>
      <point x="242" y="257" type="curve" smooth="yes"/>
      <point x="252" y="303" type="line" smooth="yes"/>
      <point x="264" y="362"/>
      <point x="295" y="401"/>
      <point x="353" y="401" type="curve" smooth="yes"/>
      <point x="413" y="401"/>
      <point x="445" y="351"/>
      <point x="432" y="263" type="curve" smooth="yes"/>
      <point x="421" y="191"/>
      <point x="380" y="143"/>
    </contour>
  </outline>
</glyph>
<glyph name="c" format="2">
  <advance width="586"/>
  <unicode hex="0063"/>
  <anchor x="276" y="0" name="bottom"/>
  <anchor x="350" y="544" name="top"/>
  <outline>
    <contour>
      <point x="274" y="-10" type="curve" smooth="yes"/>
      <point x="422" y="-10"/>
      <point x="533" y="75"/>
      <point x="552" y="205" type="curve"/>
      <point x="369" y="205" type="line"/>
      <point x="355" y="161"/>
      <point x="325" y="141"/>
      <point x="286" y="141" type="curve" smooth="yes"/>
      <point x="241" y="141"/>
      <point x="214" y="172"/>
      <point x="218" y="237" type="curve" smooth="yes"/>
      <point x="224" y="336"/>
      <point x="256" y="403"/>
      <point x="321" y="403" type="curve" smooth="yes"/>
      <point x="360" y="403"/>
      <point x="386" y="378"/>
      <point x="385" y="334" type="curve"/>
      <point x="570" y="334" type="line"/>
      <point x="568" y="465"/>
      <point x="473" y="554"/>
      <point x="327" y="554" type="curve" smooth="yes"/>
      <point x="162" y="554"/>
      <point x="57" y="453"/>
      <point x="32" y="302" type="curve" smooth="yes"/>
      <point x="0" y="110"/>
      <point x="103" y="-10"/>
    </contour>
  </outline>
</glyph>
<glyph name="d" format="2">
  <advance width="656"/>
  <unicode hex="0064"/>
  <anchor x="205" y="0" name="bottom"/>
  <anchor x="556" y="631" name="center"/>
  <anchor x="433" y="729" name="top"/>
  <anchor x="698" y="729" name="topright"/>
  <outline>
    <contour>
      <point x="207" y="-10" type="curve" smooth="yes"/>
      <point x="275" y="-10"/>
      <point x="335" y="20"/>
      <point x="361" y="67" type="curve"/>
      <point x="368" y="66" type="line"/>
      <point x="360" y="0" type="line"/>
      <point x="546" y="0" type="line"/>
      <point x="697" y="729" type="line"/>
      <point x="506" y="729" type="line"/>
      <point x="449" y="457" type="line"/>
      <point x="443" y="457" type="line"/>
      <point x="425" y="515"/>
      <point x="361" y="554"/>
      <point x="291" y="554" type="curve" smooth="yes"/>
      <point x="138" y="554"/>
      <point x="48" y="431"/>
      <point x="29" y="276" type="curve" smooth="yes"/>
      <point x="7" y="105"/>
      <point x="79" y="-10"/>
    </contour>
    <contour>
      <point x="303" y="143" type="curve" smooth="yes"/>
      <point x="243" y="143"/>
      <point x="210" y="193"/>
      <point x="224" y="281" type="curve" smooth="yes"/>
      <point x="235" y="353"/>
      <point x="276" y="401"/>
      <point x="337" y="401" type="curve" smooth="yes"/>
      <point x="399" y="401"/>
      <point x="428" y="351"/>
      <point x="414" y="287" type="curve" smooth="yes"/>
      <point x="404" y="241" type="line" smooth="yes"/>
      <point x="391" y="182"/>
      <point x="361" y="143"/>
    </contour>
  </outline>
</glyph>
<glyph name="e" format="2">
  <advance width="597"/>
  <unicode hex="0065"/>
  <anchor x="286" y="0" name="bottom"/>
  <anchor x="392" y="0" name="ogonek"/>
  <anchor x="330" y="544" name="top"/>
  <outline>
    <contour>
      <point x="284" y="-10" type="curve" smooth="yes"/>
      <point x="420" y="-10"/>
      <point x="526" y="63"/>
      <point x="551" y="173" type="curve"/>
      <point x="368" y="176" type="line"/>
      <point x="358" y="150"/>
      <point x="332" y="132"/>
      <point x="293" y="132" type="curve" smooth="yes"/>
      <point x="240" y="132"/>
      <point x="207" y="163"/>
      <point x="211" y="227" type="curve"/>
      <point x="561" y="227" type="line"/>
      <point x="600" y="410"/>
      <point x="506" y="554"/>
      <point x="323" y="554" type="curve" smooth="yes"/>
      <point x="142" y="554"/>
      <point x="26" y="422"/>
      <point x="26" y="238" type="curve" smooth="yes"/>
      <point x="26" y="89"/>
      <point x="119" y="-10"/>
    </contour>
    <contour>
      <point x="227" y="334" type="line"/>
      <point x="234" y="381"/>
      <point x="264" y="413"/>
      <point x="317" y="413" type="curve" smooth="yes"/>
      <point x="366" y="413"/>
      <point x="397" y="381"/>
      <point x="390" y="332" type="curve"/>
      <point x="397" y="341" type="line"/>
      <point x="220" y="341" type="line"/>
    </contour>
  </outline>
</glyph>
<glyph name="f" format="2">
  <advance width="405"/>
  <unicode hex="0066"/>
  <anchor x="157" y="0" name="bottom"/>
  <anchor x="308" y="729" name="top"/>
  <outline>
    <contour>
      <point x="40" y="0" type="line"/>
      <point x="229" y="0" type="line"/>
      <point x="311" y="391" type="line"/>
      <point x="414" y="391" type="line"/>
      <point x="445" y="544" type="line"/>
      <point x="343" y="544" type="line"/>
      <point x="347" y="560" type="line" smooth="yes"/>
      <point x="354" y="591"/>
      <point x="375" y="599"/>
      <point x="412" y="599" type="curve" smooth="yes"/>
      <point x="467" y="599" type="line"/>
      <point x="494" y="729" type="line"/>
      <point x="360" y="729" type="line" smooth="yes"/>
      <point x="240" y="729"/>
      <point x="181" y="676"/>
      <point x="164" y="593" type="curve" smooth="yes"/>
      <point x="154" y="544" type="line"/>
      <point x="73" y="544" type="line"/>
      <point x="42" y="391" type="line"/>
      <point x="122" y="391" type="line"/>
    </contour>
  </outline>
</glyph>
<glyph name="g" format="2">
  <advance width="641"/>
  <unicode hex="0067"/>
  <anchor x="238" y="-167" name="bottom"/>
  <anchor x="385" y="544" name="top"/>
  <outline>
    <contour>
      <point x="254" y="-176" type="curve" smooth="yes"/>
      <point x="426" y="-176"/>
      <point x="512" y="-86"/>
      <point x="540" y="48" type="curve" smooth="yes"/>
      <point x="643" y="544" type="line"/>
      <point x="464" y="544" type="line"/>
      <point x="436" y="457" type="line"/>
      <point x="430" y="457" type="line"/>
      <point x="413" y="514"/>
      <point x="357" y="554"/>
      <point x="274" y="554" type="curve" smooth="yes"/>
      <point x="126" y="554"/>
      <point x="28" y="419"/>
      <point x="28" y="241" type="curve" smooth="yes"/>
      <point x="28" y="116"/>
      <point x="94" y="34"/>
      <point x="205" y="34" type="curve" smooth="yes"/>
      <point x="268" y="34"/>
      <point x="326" y="64"/>
      <point x="354" y="107" type="curve"/>
      <point x="361" y="107" type="line"/>
      <point x="344" y="26" type="line" smooth="yes"/>
      <point x="335" y="-16"/>
      <point x="310" y="-44"/>
      <point x="258" y="-44" type="curve" smooth="yes"/>
      <point x="217" y="-44"/>
      <point x="189" y="-32"/>
      <point x="185" y="-2" type="curve"/>
      <point x="9" y="-2" type="line"/>
      <point x="14" y="-110"/>
      <point x="115" y="-176"/>
    </contour>
    <contour>
      <point x="299" y="173" type="curve" smooth="yes"/>
      <point x="253" y="173"/>
      <point x="222" y="202"/>
      <point x="222" y="260" type="curve" smooth="yes"/>
      <point x="222" y="348"/>
      <point x="264" y="415"/>
      <point x="332" y="415" type="curve" smooth="yes"/>
      <point x="385" y="415"/>
      <point x="415" y="378"/>
      <point x="402" y="304" type="curve" smooth="yes"/>
      <point x="393" y="263" type="line" smooth="yes"/>
      <point x="381" y="207"/>
      <point x="352" y="173"/>
    </contour>
  </outline>
</glyph>
<glyph name="h" format="2">
  <advance width="638"/>
  <unicode hex="0068"/>
  <anchor x="277" y="0" name="bottom"/>
  <anchor x="244" y="631" name="center"/>
  <anchor x="245" y="729" name="top"/>
  <outline>
    <contour>
      <point x="-2" y="0" type="line"/>
      <point x="189" y="0" type="line"/>
      <point x="253" y="310" type="line" smooth="yes"/>
      <point x="265" y="369"/>
      <point x="305" y="401"/>
      <point x="350" y="401" type="curve" smooth="yes"/>
      <point x="404" y="401"/>
      <point x="420" y="361"/>
      <point x="406" y="292" type="curve" smooth="yes"/>
      <point x="346" y="0" type="line"/>
      <point x="537" y="0" type="line"/>
      <point x="603" y="311" type="line" smooth="yes"/>
      <point x="643" y="501"/>
      <point x="545" y="554"/>
      <point x="460" y="554" type="curve" smooth="yes"/>
      <point x="394" y="554"/>
      <point x="326" y="519"/>
      <point x="294" y="467" type="curve"/>
      <point x="286" y="467" type="line"/>
      <point x="340" y="729" type="line"/>
      <point x="149" y="729" type="line"/>
    </contour>
  </outline>
</glyph>
<glyph name="k" format="2">
  <advance width="638"/>
  <unicode hex="006B"/>
  <anchor x="280" y="0" name="bottom"/>
  <anchor x="431" y="729" name="top"/>
  <outline>
    <contour>
      <point x="-2" y="0" type="line"/>
      <point x="190" y="0" type="line"/>
      <point x="221" y="144" type="line"/>
      <point x="287" y="203" type="line"/>
      <point x="308" y="147" type="line"/>
      <point x="366" y="0" type="line"/>
      <point x="574" y="0" type="line"/>
      <point x="439" y="316" type="line"/>
      <point x="687" y="544" type="line"/>
      <point x="456" y="544" type="line"/>
      <point x="311" y="400" type="line"/>
      <point x="263" y="351" type="line"/>
      <point x="342" y="729" type="line"/>
      <point x="150" y="729" type="line"/>
    </contour>
  </outline>
</glyph>
<glyph name="l" format="2">
  <advance width="299"/>
  <unicode hex="006C"/>
  <anchor x="93" y="0" name="bottom"/>
  <anchor x="169" y="365" name="center"/>
  <anchor x="244" y="729" name="top"/>
  <anchor x="340" y="729" name="topright"/>
  <outline>
    <contour>
      <point x="-2" y="0" type="line"/>
      <point x="188" y="0" type="line"/>
      <point x="340" y="729" type="line"/>
      <point x="149" y="729" type="line"/>
    </contour>
  </outline>
</glyph>
<glyph name="m" format="2">
  <advance width="968"/>
  <unicode hex="006D"/>
  <anchor x="442" y="0" name="bottom"/>
  <anchor x="554" y="544" name="top"/>
  <outline>
    <contour>
      <point x="-2" y="0" type="line"/>
      <point x="189" y="0" type="line"/>
      <point x="256" y="311" type="line" smooth="yes"/>
      <point x="270" y="375"/>
      <point x="308" y="400"/>
      <point x="348" y="400" type="curve" smooth="yes"/>
      <point x="402" y="400"/>
      <point x="412" y="353"/>
      <point x="398" y="286" type="curve" smooth="yes"/>
      <point x="338" y="0" type="line"/>
      <point x="529" y="0" type="line"/>
      <point x="594" y="311" type="line" smooth="yes"/>
      <point x="606" y="368"/>
      <point x="642" y="400"/>
      <point x="685" y="400" type="curve" smooth="yes"/>
      <point x="741" y="400"/>
      <point x="751" y="354"/>
      <point x="737" y="286" type="curve" smooth="yes"/>
      <point x="676" y="0" type="line"/>
      <point x="867" y="0" type="line"/>
      <point x="935" y="321" type="line" smooth="yes"/>
      <point x="967" y="474"/>
      <point x="901" y="554"/>
      <point x="784" y="554" type="curve" smooth="yes"/>
      <point x="711" y="554"/>
      <point x="641" y="516"/>
      <point x="606" y="448" type="curve"/>
      <point x="597" y="448" type="line"/>
      <point x="586" y="512"/>
      <point x="528" y="554"/>
      <point x="454" y="554" type="curve" smooth="yes"/>
      <point x="391" y="554"/>
      <point x="326" y="519"/>
      <point x="295" y="467" type="curve"/>
      <point x="287" y="467" type="line"/>
      <point x="298" y="544" type="line"/>
      <point x="113" y="544" type="line"/>
    </contour>
  </outline>
</glyph>
<glyph name="o" format="2">
  <advance width="605"/>
  <unicode hex="006F"/>
  <anchor x="277" y="0" name="bottom"/>
  <anchor x="303" y="273" name="center"/>
  <anchor x="494" y="10" name="ogonek"/>
  <anchor x="347" y="544" name="top"/>
  <anchor x="410" y="524" name="topright"/>
  <outline>
    <contour>
      <point x="275" y="-10" type="curve" smooth="yes"/>
      <point x="446" y="-10"/>
      <point x="548" y="90"/>
      <point x="574" y="244" type="curve" smooth="yes"/>
      <point x="606" y="435"/>
      <point x="502" y="554"/>
      <point x="331" y="554" type="curve" smooth="yes"/>
      <point x="162" y="554"/>
      <point x="57" y="453"/>
      <point x="32" y="302" type="curve" smooth="yes"/>
      <point x="0" y="110"/>
      <point x="103" y="-10"/>
    </contour>
    <contour>
      <point x="285" y="141" type="curve" smooth="yes"/>
      <point x="241" y="141"/>
      <point x="214" y="172"/>
      <point x="218" y="237" type="curve" smooth="yes"/>
      <point x="224" y="337"/>
      <point x="256" y="404"/>
      <point x="321" y="404" type="curve" smooth="yes"/>
      <point x="365" y="404"/>
      <point x="392" y="373"/>
      <point x="388" y="308" type="curve" smooth="yes"/>
      <point x="382" y="208"/>
      <point x="350" y="141"/>
    </contour>
  </outline>
</glyph>
<glyph name="p" format="2">
  <advance width="656"/>
  <unicode hex="0070"/>
  <anchor x="271" y="0" name="bottom"/>
  <anchor x="383" y="544" name="top"/>
  <outline>
    <contour>
      <point x="-37" y="-167" type="line"/>
      <point x="154" y="-167" type="line"/>
      <point x="207" y="87" type="line"/>
      <point x="213" y="87" type="line"/>
      <point x="231" y="29"/>
      <point x="295" y="-10"/>
      <point x="365" y="-10" type="curve" smooth="yes"/>
      <point x="518" y="-10"/>
      <point x="608" y="113"/>
      <point x="627" y="268" type="curve" smooth="yes"/>
      <point x="648" y="439"/>
      <point x="576" y="554"/>
      <point x="448" y="554" type="curve" smooth="yes"/>
      <point x="381" y="554"/>
      <point x="321" y="524"/>
      <point x="295" y="477" type="curve"/>
      <point x="288" y="478" type="line"/>
      <point x="296" y="544" type="line"/>
      <point x="110" y="544" type="line"/>
    </contour>
    <contour>
      <point x="319" y="143" type="curve" smooth="yes"/>
      <point x="257" y="143"/>
      <point x="228" y="193"/>
      <point x="242" y="257" type="curve" smooth="yes"/>
      <point x="252" y="303" type="line" smooth="yes"/>
      <point x="264" y="362"/>
      <point x="295" y="401"/>
      <point x="353" y="401" type="curve" smooth="yes"/>
      <point x="413" y="401"/>
      <point x="445" y="351"/>
      <point x="432" y="263" type="curve" smooth="yes"/>
      <point x="421" y="191"/>
      <point x="380" y="143"/>
    </contour>
  </outline>
</glyph>
<glyph name="r" format="2">
  <advance width="418"/>
  <unicode hex="0072"/>
  <anchor x="93" y="0" name="bottom"/>
  <anchor x="271" y="544" name="top"/>
  <outline>
    <contour>
      <point x="-2" y="0" type="line"/>
      <point x="187" y="0" type="line"/>
      <point x="230" y="206" type="line" smooth="yes"/>
      <point x="255" y="327"/>
      <point x="315" y="366"/>
      <point x="377" y="366" type="curve" smooth="yes"/>
      <point x="393" y="366"/>
      <point x="408" y="364"/>
      <point x="416" y="359" type="curve"/>
      <point x="455" y="550" type="line"/>
      <point x="443" y="553"/>
      <point x="430" y="554"/>
      <point x="415" y="554" type="curve" smooth="yes"/>
      <point x="361" y="554"/>
      <point x="304" y="517"/>
      <point x="278" y="453" type="curve"/>
      <point x="271" y="453" type="line"/>
      <point x="282" y="544" type="line"/>
      <point x="111" y="544" type="line"/>
    </contour>
  </outline>
</glyph>
<glyph name="s" format="2">
  <advance width="538"/>
  <unicode hex="0073"/>
  <anchor x="239" y="0" name="bottom"/>
  <anchor x="316" y="544" name="top"/>
  <outline>
    <contour>
      <point x="230" y="-10" type="curve" smooth="yes"/>
      <point x="396" y="-10"/>
      <point x="495" y="64"/>
      <point x="495" y="192" type="curve" smooth="yes"/>
      <point x="495" y="282"/>
      <point x="444" y="325"/>
      <point x="330" y="345" type="curve" smooth="yes"/>
      <point x="271" y="356"/>
      <point x="251" y="362"/>
      <point x="251" y="385" type="curve" smooth="yes"/>
      <point x="251" y="409"/>
      <point x="269" y="422"/>
      <point x="299" y="422" type="curve" smooth="yes"/>
      <point x="326" y="422"/>
      <point x="345" y="405"/>
      <point x="344" y="380" type="curve"/>
      <point x="521" y="380" type="line"/>
      <point x="525" y="491"/>
      <point x="439" y="554"/>
      <point x="305" y="554" type="curve" smooth="yes"/>
      <point x="154" y="554"/>
      <point x="56" y="476"/>
      <point x="56" y="352" type="curve" smooth="yes"/>
      <point x="56" y="266"/>
      <point x="108" y="224"/>
      <point x="232" y="200" type="curve" smooth="yes"/>
      <point x="282" y="190"/>
      <point x="298" y="185"/>
      <point x="298" y="164" type="curve" smooth="yes"/>
      <point x="298" y="134"/>
      <point x="274" y="122"/>
      <point x="240" y="122" type="curve" smooth="yes"/>
      <point x="201" y="122"/>
      <point x="180" y="140"/>
      <point x="182" y="174" type="curve"/>
      <point x="0" y="174" type="line"/>
      <point x="-4" y="64"/>
      <point x="81" y="-10"/>
    </contour>
  </outline>
</glyph>
<glyph name="t" format="2">
  <advance width="430"/>
  <unicode hex="0074"/>
  <anchor x="223" y="0" name="bottom"/>
  <anchor x="206" y="272" name="center"/>
  <anchor x="259" y="544" name="top"/>
  <anchor x="393" y="739" name="topright"/>
  <outline>
    <contour>
      <point x="223" y="0" type="curve" smooth="yes"/>
      <point x="337" y="0" type="line"/>
      <point x="369" y="153" type="line"/>
      <point x="314" y="153" type="line" smooth="yes"/>
      <point x="286" y="153"/>
      <point x="272" y="160"/>
      <point x="278" y="188" type="curve" smooth="yes"/>
      <point x="321" y="391" type="line"/>
      <point x="419" y="391" type="line"/>
      <point x="451" y="544" type="line"/>
      <point x="353" y="544" type="line"/>
      <point x="385" y="699" type="line"/>
      <point x="193" y="683" type="line"/>
      <point x="164" y="544" type="line"/>
      <point x="74" y="544" type="line"/>
      <point x="42" y="391" type="line"/>
      <point x="132" y="391" type="line"/>
      <point x="84" y="166" type="line" smooth="yes"/>
      <point x="63" y="66"/>
      <point x="106" y="0"/>
    </contour>
  </outline>
</glyph>
<glyph name="u" format="2">
  <advance width="638"/>
  <unicode hex="0075"/>
  <anchor x="269" y="0" name="bottom"/>
  <anchor x="527" y="0" name="ogonek"/>
  <anchor x="371" y="544" name="top"/>
  <anchor x="475" y="544" name="topright"/>
  <outline>
    <contour>
      <point x="178" y="-10" type="curve" smooth="yes"/>
      <point x="244" y="-10"/>
      <point x="304" y="14"/>
      <point x="344" y="77" type="curve"/>
      <point x="352" y="77" type="line"/>
      <point x="344" y="0" type="line"/>
      <point x="527" y="0" type="line"/>
      <point x="640" y="544" type="line"/>
      <point x="449" y="544" type="line"/>
      <point x="383" y="231" type="line" smooth="yes"/>
      <point x="372" y="178"/>
      <point x="341" y="143"/>
      <point x="291" y="143" type="curve" smooth="yes"/>
      <point x="235" y="143"/>
      <point x="218" y="183"/>
      <point x="232" y="252" type="curve" smooth="yes"/>
      <point x="292" y="544" type="line"/>
      <point x="101" y="544" type="line"/>
      <point x="36" y="233" type="line" smooth="yes"/>
      <point x="4" y="78"/>
      <point x="54" y="-10"/>
    </contour>
  </outline>
</glyph>
<glyph name="v" format="2">
  <advance width="586"/>
  <unicode hex="0076"/>
  <anchor x="246" y="0" name="bottom"/>
  <anchor x="358" y="544" name="top"/>
  <outline>
    <contour>
      <point x="133" y="0" type="line"/>
      <point x="361" y="0" type="line"/>
      <point x="633" y="544" type="line"/>
      <point x="431" y="544" type="line"/>
      <point x="316" y="256" type="line"/>
      <point x="277" y="154" type="line"/>
      <point x="271" y="154" type="line"/>
      <point x="268" y="260" type="line"/>
      <point x="255" y="544" type="line"/>
      <point x="64" y="544" type="line"/>
    </contour>
  </outline>
</glyph>
<glyph name="w" format="2">
  <advance width="849"/>
  <unicode hex="0077"/>
  <anchor x="389" y="0" name="bottom"/>
  <anchor x="481" y="544" name="top"/>
  <outline>
    <contour>
      <point x="72" y="0" type="line"/>
      <point x="314" y="0" type="line"/>
      <point x="376" y="173" type="line"/>
      <point x="421" y="310" type="line"/>
      <point x="427" y="310" type="line"/>
      <point x="420" y="173" type="line"/>
      <point x="411" y="0" type="line"/>
      <point x="659" y="0" type="line"/>
      <point x="893" y="544" type="line"/>
      <point x="697" y="544" type="line"/>
      <point x="616" y="333" type="line"/>
      <point x="560" y="178" type="line"/>
      <point x="555" y="178" type="line"/>
      <point x="566" y="333" type="line"/>
      <point x="583" y="544" type="line"/>
      <point x="379" y="544" type="line"/>
      <point x="304" y="330" type="line"/>
      <point x="256" y="181" type="line"/>
      <point x="249" y="181" type="line"/>
      <point x="254" y="330" type="line"/>
      <point x="262" y="544" type="line"/>
      <point x="69" y="544" type="line"/>
    </contour>
  </outline>
</glyph>
<glyph name="x" format="2">
  <advance width="674"/>
  <unicode hex="0078"/>
  <anchor x="292" y="0" name="bottom"/>
  <anchor x="404" y="544" name="top"/>
  <outline>
    <contour>
      <point x="-52" y="0" type="line"/>
      <point x="175" y="0" type="line"/>
      <point x="289" y="134" type="line"/>
      <point x="310" y="159" type="line"/>
      <point x="318" y="159" type="line"/>
      <point x="330" y="134" type="line"/>
      <point x="398" y="0" type="line"/>
      <point x="613" y="0" type="line"/>
      <point x="463" y="281" type="line"/>
      <point x="705" y="544" type="line"/>
      <point x="475" y="544" type="line"/>
      <point x="387" y="435" type="line"/>
      <point x="369" y="413" type="line"/>
      <point x="361" y="413" type="line"/>
      <point x="351" y="435" type="line"/>
      <point x="302" y="544" type="line"/>
      <point x="84" y="544" type="line"/>
      <point x="217" y="299" type="line"/>
    </contour>
  </outline>
</glyph>
<glyph name="y" format="2">
  <advance width="586"/>
  <unicode hex="0079"/>
  <anchor x="453" y="0" name="bottom"/>
  <anchor x="339" y="544" name="top"/>
  <outline>
    <contour>
      <point x="-38" y="-167" type="line"/>
      <point x="47" y="-167" type="line" smooth="yes"/>
      <point x="219" y="-167"/>
      <point x="284" y="-109"/>
      <point x="344" y="2" type="curve" smooth="yes"/>
      <point x="634" y="544" type="line"/>
      <point x="420" y="544" type="line"/>
      <point x="316" y="296" type="line"/>
      <point x="286" y="218" type="line"/>
      <point x="279" y="218" type="line"/>
      <point x="275" y="296" type="line"/>
      <point x="257" y="544" type="line"/>
      <point x="63" y="544" type="line"/>
      <point x="156" y="9" type="line"/>
      <point x="160" y="76" type="line"/>
      <point x="142" y="41" type="line" smooth="yes"/>
      <point x="122" y="2"/>
      <point x="88" y="-10"/>
      <point x="41" y="-10" type="curve" smooth="yes"/>
      <point x="-7" y="-10" type="line"/>
    </contour>
  </outline>
</glyph>
<glyph name="z" format="2">
  <advance width="542"/>
  <unicode hex="007A"/>
  <anchor x="226" y="0" name="bottom"/>
  <anchor x="282" y="272" name="center"/>
  <anchor x="338" y="544" name="top"/>
  <outline>
    <contour>
      <point x="-29" y="0" type="line"/>
      <point x="456" y="0" type="line"/>
      <point x="488" y="153" type="line"/>
      <point x="248" y="153" type="line"/>
      <point x="528" y="411" type="line"/>
      <point x="556" y="544" type="line"/>
      <point x="102" y="544" type="line"/>
      <point x="71" y="391" type="line"/>
      <point x="280" y="391" type="line"/>
      <point x="0" y="136" type="line"/>
    </contour>
  </outline>
</glyph>
<glyph name="braceleft" format="2">
  <advance width="431"/>
  <unicode hex="007B"/>
  <outline>
    <contour>
      <point x="141" y="-167" type="curve" smooth="yes"/>
      <point x="309" y="-167" type="line"/>
      <point x="340" y="-24" type="line"/>
      <point x="221" y="-24" type="line"/>
      <point x="261" y="171" type="line" smooth="yes"/>
      <point x="274" y="234"/>
      <point x="264" y="284"/>
      <point x="202" y="309" type="curve"/>
      <point x="203" y="312" type="line"/>
      <point x="258" y="324"/>
      <point x="301" y="359"/>
      <point x="318" y="445" type="curve" smooth="yes"/>
      <point x="361" y="649" type="line"/>
      <point x="480" y="649" type="line"/>
      <point x="511" y="793" type="line"/>
      <point x="342" y="793" type="line" smooth="yes"/>
      <point x="256" y="793"/>
      <point x="204" y="738"/>
      <point x="189" y="667" type="curve" smooth="yes"/>
      <point x="144" y="452" type="line" smooth="yes"/>
      <point x="134" y="405"/>
      <point x="105" y="374"/>
      <point x="65" y="374" type="curve" smooth="yes"/>
      <point x="43" y="374" type="line"/>
      <point x="13" y="235" type="line"/>
      <point x="36" y="235" type="line" smooth="yes"/>
      <point x="73" y="235"/>
      <point x="92" y="207"/>
      <point x="83" y="159" type="curve" smooth="yes"/>
      <point x="41" y="-41" type="line" smooth="yes"/>
      <point x="26" y="-112"/>
      <point x="54" y="-167"/>
    </contour>
  </outline>
</glyph>
<glyph name="bar" format="2">
  <advance width="308"/>
  <unicode hex="007C"/>
  <outline>
    <contour>
      <point x="-1" y="-67" type="line"/>
      <point x="168" y="-67" type="line"/>
      <point x="334" y="729" type="line"/>
      <point x="165" y="729" type="line"/>
    </contour>
  </outline>
</glyph>
<glyph name="asciitilde" format="2">
  <advance width="600"/>
  <unicode hex="007E"/>
  <outline>
    <contour>
      <point x="95" y="273" type="curve"/>
      <point x="176" y="273" type="line"/>
      <point x="178" y="297"/>
      <point x="199" y="325"/>
      <point x="230" y="325" type="curve" smooth="yes"/>
      <point x="281" y="325"/>
      <point x="307" y="267"/>
      <point x="397" y="267" type="curve" smooth="yes"/>
      <point x="459" y="267"/>
      <point x="539" y="309"/>
      <point x="559" y="451" type="curve"/>
      <point x="479" y="451" type="line"/>
      <point x="473" y="426"/>
      <point x="454" y="399"/>
      <point x="413" y="399" type="curve" smooth="yes"/>
      <point x="353" y="399"/>
      <point x="330" y="454"/>
      <point x="254" y="454" type="curve" smooth="yes"/>
      <point x="191" y="454"/>
      <point x="114" y="410"/>
    </contour>
  </outline>
</glyph>
<glyph name="cent" format="2">
  <advance width="600"/>
  <unicode hex="00A2"/>
  <outline>
    <contour>
      <point x="296" y="83" type="curve" smooth="yes"/>
      <point x="443" y="83"/>
      <point x="554" y="170"/>
      <point x="573" y="298" type="curve"/>
      <point x="390" y="298" type="line"/>
      <point x="372" y="255"/>
      <point x="346" y="236"/>
      <point x="307" y="236" type="curve" smooth="yes"/>
      <point x="269" y="236"/>
      <point x="243" y="264"/>
      <point x="243" y="321" type="curve" smooth="yes"/>
      <point x="243" y="385"/>
      <point x="267" y="494"/>
      <point x="347" y="494" type="curve" smooth="yes"/>
      <point x="381" y="494"/>
      <point x="410" y="470"/>
      <point x="411" y="426" type="curve"/>
      <point x="596" y="426" type="line"/>
      <point x="605" y="560"/>
      <point x="510" y="647"/>
      <point x="357" y="647" type="curve" smooth="yes"/>
      <point x="173" y="647"/>
      <point x="54" y="517"/>
      <point x="54" y="312" type="curve" smooth="yes"/>
      <point x="54" y="160"/>
      <point x="153" y="83"/>
    </contour>
    <contour>
      <point x="189" y="0" type="line"/>
      <point x="312" y="0" type="line"/>
      <point x="346" y="167" type="line"/>
      <point x="223" y="167" type="line"/>
    </contour>
    <contour>
      <point x="303" y="554" type="line"/>
      <point x="426" y="554" type="line"/>
      <point x="462" y="729" type="line"/>
      <point x="339" y="729" type="line"/>
    </contour>
  </outline>
</glyph>
<glyph name="sterling" format="2">
  <advance width="659"/>
  <unicode hex="00A3"/>
  <outline>
    <contour>
      <point x="59" y="146" type="curve"/>
      <point x="206" y="146" type="line"/>
      <point x="318" y="204"/>
      <point x="346" y="273"/>
      <point x="346" y="371" type="curve" smooth="yes"/>
      <point x="346" y="407"/>
      <point x="342" y="444"/>
      <point x="342" y="477" type="curve" smooth="yes"/>
      <point x="342" y="533"/>
      <point x="371" y="571"/>
      <point x="423" y="571" type="curve" smooth="yes"/>
      <point x="471" y="571"/>
      <point x="495" y="542"/>
      <point x="488" y="499" type="curve"/>
      <point x="667" y="499" type="line"/>
      <point x="681" y="641"/>
      <point x="585" y="736"/>
      <point x="428" y="736" type="curve" smooth="yes"/>
      <point x="262" y="736"/>
      <point x="151" y="638"/>
      <point x="151" y="464" type="curve" smooth="yes"/>
      <point x="151" y="422"/>
      <point x="152" y="398"/>
      <point x="152" y="374" type="curve" smooth="yes"/>
      <point x="152" y="282"/>
      <point x="133" y="236"/>
    </contour>
    <contour>
      <point x="-17" y="0" type="line"/>
      <point x="554" y="0" type="line"/>
      <point x="601" y="228" type="line"/>
      <point x="443" y="228" type="line"/>
      <point x="427" y="149" type="line"/>
      <point x="14" y="149" type="line"/>
    </contour>
    <contour>
      <point x="53" y="288" type="line"/>
      <point x="471" y="288" type="line"/>
      <point x="499" y="425" type="line"/>
      <point x="81" y="425" type="line"/>
    </contour>
  </outline>
</glyph>
<glyph name="currency" format="2">
  <advance width="680"/>
  <unicode hex="00A4"/>
  <outline>
    <contour>
      <point x="160" y="60" type="line"/>
      <point x="262" y="158" type="line"/>
      <point x="287" y="151"/>
      <point x="313" y="146"/>
      <point x="348" y="146" type="curve" smooth="yes"/>
      <point x="376" y="146"/>
      <point x="409" y="150"/>
      <point x="436" y="158" type="curve"/>
      <point x="530" y="60" type="line"/>
      <point x="638" y="166" type="line"/>
      <point x="550" y="257" type="line"/>
      <point x="565" y="286"/>
      <point x="572" y="318"/>
      <point x="573" y="348" type="curve" smooth="yes"/>
      <point x="574" y="382"/>
      <point x="569" y="412"/>
      <point x="556" y="442" type="curve"/>
      <point x="650" y="532" type="line"/>
      <point x="550" y="639" type="line"/>
      <point x="447" y="538" type="line"/>
      <point x="418" y="548"/>
      <point x="386" y="552"/>
      <point x="363" y="552" type="curve" smooth="yes"/>
      <point x="337" y="552"/>
      <point x="303" y="547"/>
      <point x="277" y="538" type="curve"/>
      <point x="181" y="639" type="line"/>
      <point x="74" y="532" type="line"/>
      <point x="162" y="442" type="line"/>
      <point x="148" y="416"/>
      <point x="140" y="384"/>
      <point x="139" y="348" type="curve" smooth="yes"/>
      <point x="138" y="321"/>
      <point x="140" y="288"/>
      <point x="154" y="257" type="curve"/>
      <point x="60" y="166" type="line"/>
    </contour>
    <contour>
      <point x="353" y="290" type="curve" smooth="yes"/>
      <point x="320" y="290"/>
      <point x="293" y="312"/>
      <point x="294" y="348" type="curve" smooth="yes"/>
      <point x="295" y="383"/>
      <point x="324" y="408"/>
      <point x="357" y="408" type="curve" smooth="yes"/>
      <point x="392" y="408"/>
      <point x="419" y="383"/>
      <point x="418" y="348" type="curve" smooth="yes"/>
      <point x="417" y="313"/>
      <point x="387" y="290"/>
    </contour>
  </outline>
</glyph>
<glyph name="yen" format="2">
  <advance width="729"/>
  <unicode hex="00A5"/>
  <outline>
    <contour>
      <point x="208" y="0" type="line"/>
      <point x="407" y="0" type="line"/>
      <point x="424" y="83" type="line"/>
      <point x="602" y="83" type="line"/>
      <point x="630" y="214" type="line"/>
      <point x="452" y="214" type="line"/>
      <point x="465" y="276" type="line"/>
      <point x="644" y="276" type="line"/>
      <point x="670" y="408" type="line"/>
      <point x="575" y="408" type="line"/>
      <point x="805" y="729" type="line"/>
      <point x="585" y="729" type="line"/>
      <point x="395" y="435" type="line"/>
      <point x="386" y="435" type="line"/>
      <point x="326" y="729" type="line"/>
      <point x="114" y="729" type="line"/>
      <point x="213" y="408" type="line"/>
      <point x="115" y="408" type="line"/>
      <point x="88" y="276" type="line"/>
      <point x="266" y="276" type="line"/>
      <point x="253" y="214" type="line"/>
      <point x="75" y="214" type="line"/>
      <point x="47" y="83" type="line"/>
      <point x="225" y="83" type="line"/>
    </contour>
  </outline>
</glyph>
<glyph name="brokenbar" format="2">
  <advance width="309"/>
  <unicode hex="00A6"/>
  <outline>
    <contour>
      <point x="93" y="380" type="line"/>
      <point x="262" y="380" type="line"/>
      <point x="334" y="729" type="line"/>
      <point x="165" y="729" type="line"/>
    </contour>
    <contour>
      <point x="-1" y="-67" type="line"/>
      <point x="168" y="-67" type="line"/>
      <point x="241" y="282" type="line"/>
      <point x="71" y="282" type="line"/>
    </contour>
  </outline>
</glyph>
<glyph name="section" format="2">
  <advance width="584"/>
  <unicode hex="00A7"/>
  <outline>
    <contour>
      <point x="277" y="-10" type="curve" smooth="yes"/>
      <point x="405" y="-10"/>
      <point x="513" y="54"/>
      <point x="513" y="168" type="curve" smooth="yes"/>
      <point x="513" y="199"/>
      <point x="503" y="231"/>
      <point x="484" y="256" type="curve"/>
      <point x="534" y="278"/>
      <point x="562" y="322"/>
      <point x="562" y="372" type="curve" smooth="yes"/>
      <point x="562" y="446"/>
      <point x="511" y="486"/>
      <point x="404" y="521" type="curve" smooth="yes"/>
      <point x="345" y="540"/>
      <point x="313" y="552"/>
      <point x="313" y="573" type="curve" smooth="yes"/>
      <point x="313" y="596"/>
      <point x="330" y="605"/>
      <point x="353" y="605" type="curve" smooth="yes"/>
      <point x="385" y="605"/>
      <point x="416" y="594"/>
      <point x="410" y="558" type="curve"/>
      <point x="596" y="558" type="line"/>
      <point x="596" y="672"/>
      <point x="490" y="737"/>
      <point x="353" y="737" type="curve" smooth="yes"/>
      <point x="225" y="737"/>
      <point x="120" y="672"/>
      <point x="120" y="556" type="curve" smooth="yes"/>
      <point x="120" y="526"/>
      <point x="130" y="498"/>
      <point x="154" y="474" type="curve"/>
      <point x="101" y="448"/>
      <point x="70" y="401"/>
      <point x="70" y="351" type="curve" smooth="yes"/>
      <point x="70" y="271"/>
      <point x="135" y="237"/>
      <point x="223" y="208" type="curve" smooth="yes"/>
      <point x="298" y="182"/>
      <point x="317" y="175"/>
      <point x="317" y="155" type="curve" smooth="yes"/>
      <point x="317" y="131"/>
      <point x="299" y="122"/>
      <point x="272" y="122" type="curve" smooth="yes"/>
      <point x="231" y="122"/>
      <point x="199" y="139"/>
      <point x="201" y="175" type="curve"/>
      <point x="13" y="175" type="line"/>
      <point x="9" y="54"/>
      <point x="132" y="-10"/>
    </contour>
    <contour>
      <point x="356" y="324" type="curve"/>
      <point x="336" y="334"/>
      <point x="310" y="344"/>
      <point x="295" y="349" type="curve" smooth="yes"/>
      <point x="261" y="361"/>
      <point x="252" y="372"/>
      <point x="255" y="391" type="curve" smooth="yes"/>
      <point x="256" y="397"/>
      <point x="260" y="404"/>
      <point x="266" y="412" type="curve"/>
      <point x="283" y="404"/>
      <point x="302" y="396"/>
      <point x="318" y="390" type="curve" smooth="yes"/>
      <point x="355" y="376"/>
      <point x="369" y="364"/>
      <point x="365" y="345" type="curve" smooth="yes"/>
      <point x="363" y="337"/>
      <point x="360" y="330"/>
    </contour>
  </outline>
</glyph>
<glyph name="ordfeminine" format="2">
  <advance width="451"/>
  <unicode hex="00AA"/>
  <outline>
    <contour>
      <point x="196" y="370" type="curve" smooth="yes"/>
      <point x="244" y="370"/>
      <point x="277" y="389"/>
      <point x="295" y="423" type="curve"/>
      <point x="302" y="423" type="line"/>
      <point x="292" y="377" type="line"/>
      <point x="419" y="377" type="line"/>
      <point x="493" y="731" type="line"/>
      <point x="369" y="731" type="line"/>
      <point x="354" y="677" type="line"/>
      <point x="347" y="677" type="line"/>
      <point x="336" y="711"/>
      <point x="303" y="738"/>
      <point x="256" y="738" type="curve" smooth="yes"/>
      <point x="162" y="738"/>
      <point x="105" y="661"/>
      <point x="89" y="538" type="curve" smooth="yes"/>
      <point x="76" y="437"/>
      <point x="119" y="370"/>
    </contour>
    <contour>
      <point x="264" y="473" type="curve" smooth="yes"/>
      <point x="235" y="473"/>
      <point x="220" y="491"/>
      <point x="220" y="526" type="curve" smooth="yes"/>
      <point x="220" y="593"/>
      <point x="249" y="636"/>
      <point x="290" y="636" type="curve" smooth="yes"/>
      <point x="326" y="636"/>
      <point x="340" y="602"/>
      <point x="333" y="571" type="curve" smooth="yes"/>
      <point x="322" y="522" type="line" smooth="yes"/>
      <point x="316" y="494"/>
      <point x="296" y="473"/>
    </contour>
  </outline>
</glyph>
<glyph name="guillemetleft" format="2">
  <advance width="605"/>
  <unicode hex="00AB"/>
  <outline>
    <contour>
      <point x="149" y="80" type="line"/>
      <point x="307" y="80" type="line"/>
      <point x="212" y="316" type="line"/>
      <point x="362" y="544" type="line"/>
      <point x="199" y="544" type="line"/>
      <point x="32" y="326" type="line"/>
    </contour>
    <contour>
      <point x="388" y="80" type="line"/>
      <point x="547" y="80" type="line"/>
      <point x="461" y="306" type="line"/>
      <point x="618" y="544" type="line"/>
      <point x="450" y="544" type="line"/>
      <point x="284" y="314" type="line"/>
    </contour>
  </outline>
</glyph>
<glyph name="logicalnot" format="2">
  <advance width="600"/>
  <unicode hex="00AC"/>
  <outline>
    <contour>
      <point x="354" y="139" type="line"/>
      <point x="497" y="139" type="line"/>
      <point x="557" y="428" type="line"/>
      <point x="87" y="428" type="line"/>
      <point x="56" y="281" type="line"/>
      <point x="384" y="281" type="line"/>
    </contour>
  </outline>
</glyph>
<glyph name="registered" format="2">
  <advance width="619"/>
  <unicode hex="00AE"/>
  <outline>
    <contour>
      <point x="334" y="207" type="curve" smooth="yes"/>
      <point x="500" y="207"/>
      <point x="619" y="327"/>
      <point x="619" y="492" type="curve" smooth="yes"/>
      <point x="619" y="645"/>
      <point x="512" y="738"/>
      <point x="367" y="738" type="curve" smooth="yes"/>
      <point x="198" y="738"/>
      <point x="83" y="616"/>
      <point x="83" y="451" type="curve" smooth="yes"/>
      <point x="83" y="301"/>
      <point x="188" y="207"/>
    </contour>
    <contour>
      <point x="340" y="260" type="curve" smooth="yes"/>
      <point x="216" y="260"/>
      <point x="136" y="339"/>
      <point x="136" y="459" type="curve" smooth="yes"/>
      <point x="136" y="593"/>
      <point x="228" y="689"/>
      <point x="362" y="689" type="curve" smooth="yes"/>
      <point x="483" y="689"/>
      <point x="564" y="611"/>
      <point x="564" y="492" type="curve" smooth="yes"/>
      <point x="564" y="359"/>
      <point x="475" y="260"/>
    </contour>
    <contour>
      <point x="208" y="343" type="line"/>
      <point x="297" y="343" type="line"/>
      <point x="338" y="541" type="line"/>
      <point x="374" y="541" type="line" smooth="yes"/>
      <point x="390" y="541"/>
      <point x="399" y="536"/>
      <point x="399" y="522" type="curve" smooth="yes"/>
      <point x="399" y="503"/>
      <point x="386" y="492"/>
      <point x="363" y="492" type="curve" smooth="yes"/>
      <point x="313" y="492" type="line"/>
      <point x="302" y="436" type="line"/>
      <point x="349" y="436" type="line" smooth="yes"/>
      <point x="371" y="436"/>
      <point x="377" y="427"/>
      <point x="373" y="407" type="curve" smooth="yes"/>
      <point x="366" y="373" type="line" smooth="yes"/>
      <point x="364" y="362"/>
      <point x="363" y="349"/>
      <point x="364" y="343" type="curve"/>
      <point x="453" y="343" type="line"/>
      <point x="452" y="350"/>
      <point x="452" y="361"/>
      <point x="455" y="374" type="curve" smooth="yes"/>
      <point x="462" y="407" type="line" smooth="yes"/>
      <point x="470" y="444"/>
      <point x="461" y="462"/>
      <point x="436" y="468" type="curve"/>
      <point x="436" y="470" type="line"/>
      <point x="471" y="480"/>
      <point x="490" y="506"/>
      <point x="490" y="540" type="curve" smooth="yes"/>
      <point x="490" y="579"/>
      <point x="466" y="607"/>
      <point x="400" y="607" type="curve" smooth="yes"/>
      <point x="263" y="607" type="line"/>
    </contour>
  </outline>
</glyph>
<glyph name="degree" format="2">
  <advance width="474"/>
  <unicode hex="00B0"/>
  <outline>
    <contour>
      <point x="288" y="385" type="curve" smooth="yes"/>
      <point x="404" y="385"/>
      <point x="489" y="463"/>
      <point x="489" y="575" type="curve" smooth="yes"/>
      <point x="489" y="676"/>
      <point x="410" y="740"/>
      <point x="308" y="740" type="curve" smooth="yes"/>
      <point x="190" y="740"/>
      <point x="105" y="662"/>
      <point x="105" y="551" type="curve" smooth="yes"/>
      <point x="105" y="445"/>
      <point x="190" y="385"/>
    </contour>
    <contour>
      <point x="294" y="506" type="curve" smooth="yes"/>
      <point x="260" y="506"/>
      <point x="239" y="526"/>
      <point x="239" y="557" type="curve" smooth="yes"/>
      <point x="239" y="592"/>
      <point x="263" y="619"/>
      <point x="301" y="619" type="curve" smooth="yes"/>
      <point x="335" y="619"/>
      <point x="356" y="597"/>
      <point x="356" y="566" type="curve" smooth="yes"/>
      <point x="356" y="530"/>
      <point x="331" y="506"/>
    </contour>
  </outline>
</glyph>
<glyph name="plusminus" format="2">
  <advance width="600"/>
  <unicode hex="00B1"/>
  <outline>
    <contour>
      <point x="208" y="194" type="line"/>
      <point x="359" y="194" type="line"/>
      <point x="387" y="326" type="line"/>
      <point x="565" y="326" type="line"/>
      <point x="597" y="475" type="line"/>
      <point x="418" y="475" type="line"/>
      <point x="446" y="607" type="line"/>
      <point x="294" y="607" type="line"/>
      <point x="267" y="475" type="line"/>
      <point x="89" y="475" type="line"/>
      <point x="57" y="326" type="line"/>
      <point x="235" y="326" type="line"/>
    </contour>
    <contour>
      <point x="-11" y="0" type="line"/>
      <point x="497" y="0" type="line"/>
      <point x="524" y="132" type="line"/>
      <point x="16" y="132" type="line"/>
    </contour>
  </outline>
</glyph>
<glyph name="paragraph" format="2">
  <advance width="785"/>
  <unicode hex="00B6"/>
  <outline>
    <contour>
      <point x="313" y="0" type="line"/>
      <point x="441" y="0" type="line"/>
      <point x="441" y="569" type="line"/>
      <point x="524" y="569" type="line"/>
      <point x="524" y="0" type="line"/>
      <point x="703" y="0" type="line"/>
      <point x="703" y="569" type="line"/>
      <point x="776" y="569" type="line"/>
      <point x="776" y="729" type="line"/>
      <point x="313" y="729" type="line" smooth="yes"/>
      <point x="171" y="729"/>
      <point x="89" y="657"/>
      <point x="89" y="528" type="curve" smooth="yes"/>
      <point x="89" y="409"/>
      <point x="172" y="332"/>
      <point x="313" y="337" type="curve"/>
    </contour>
  </outline>
</glyph>
<glyph name="periodcentered" format="2">
  <advance width="235"/>
  <unicode hex="00B7"/>
  <outline>
    <contour>
      <point x="115" y="181" type="curve" smooth="yes"/>
      <point x="174" y="181"/>
      <point x="214" y="224"/>
      <point x="214" y="281" type="curve" smooth="yes"/>
      <point x="214" y="334"/>
      <point x="178" y="373"/>
      <point x="122" y="373" type="curve" smooth="yes"/>
      <point x="65" y="373"/>
      <point x="22" y="330"/>
      <point x="22" y="273" type="curve" smooth="yes"/>
      <point x="22" y="220"/>
      <point x="61" y="181"/>
    </contour>
  </outline>
</glyph>
<glyph name="ordmasculine" format="2">
  <advance width="413"/>
  <unicode hex="00BA"/>
  <anchor x="235" y="377" name="bottom"/>
  <anchor x="265" y="554" name="center"/>
  <anchor x="391" y="384" name="ogonek"/>
  <anchor x="297" y="731" name="top"/>
  <anchor x="488" y="731" name="topright"/>
  <outline>
    <contour>
      <point x="247" y="370" type="curve" smooth="yes"/>
      <point x="364" y="370"/>
      <point x="438" y="451"/>
      <point x="443" y="581" type="curve" smooth="yes"/>
      <point x="447" y="684"/>
      <point x="379" y="738"/>
      <point x="283" y="738" type="curve" smooth="yes"/>
      <point x="170" y="738"/>
      <point x="92" y="661"/>
      <point x="87" y="528" type="curve" smooth="yes"/>
      <point x="83" y="424"/>
      <point x="149" y="370"/>
    </contour>
    <contour>
      <point x="254" y="473" type="curve" smooth="yes"/>
      <point x="229" y="473"/>
      <point x="212" y="492"/>
      <point x="213" y="529" type="curve" smooth="yes"/>
      <point x="215" y="590"/>
      <point x="239" y="636"/>
      <point x="277" y="636" type="curve" smooth="yes"/>
      <point x="305" y="636"/>
      <point x="317" y="617"/>
      <point x="316" y="575" type="curve" smooth="yes"/>
      <point x="314" y="514"/>
      <point x="291" y="473"/>
    </contour>
  </outline>
</glyph>
<glyph name="AE" format="2">
  <advance width="965"/>
  <unicode hex="00C6"/>
  <anchor x="427" y="0" name="bottom"/>
  <anchor x="578" y="729" name="top"/>
  <outline>
    <contour>
      <point x="-45" y="0" type="line"/>
      <point x="157" y="0" type="line"/>
      <point x="220" y="130" type="line"/>
      <point x="453" y="130" type="line"/>
      <point x="465" y="0" type="line"/>
      <point x="875" y="0" type="line"/>
      <point x="910" y="172" type="line"/>
      <point x="637" y="172" type="line"/>
      <point x="625" y="285" type="line"/>
      <point x="883" y="285" type="line"/>
      <point x="916" y="446" type="line"/>
      <point x="606" y="446" type="line"/>
      <point x="594" y="557" type="line"/>
      <point x="987" y="557" type="line"/>
      <point x="1023" y="729" type="line"/>
      <point x="332" y="729" type="line"/>
    </contour>
    <contour>
      <point x="295" y="284" type="line"/>
      <point x="375" y="449" type="line"/>
      <point x="411" y="527" type="line"/>
      <point x="418" y="527" type="line"/>
      <point x="425" y="449" type="line"/>
      <point x="440" y="284" type="line"/>
    </contour>
  </outline>
</glyph>
<glyph name="multiply" format="2">
  <advance width="600"/>
  <unicode hex="00D7"/>
  <outline>
    <contour>
      <point x="143" y="129" type="line"/>
      <point x="306" y="265" type="line"/>
      <point x="408" y="134" type="line"/>
      <point x="523" y="230" type="line"/>
      <point x="422" y="361" type="line"/>
      <point x="578" y="491" type="line"/>
      <point x="495" y="597" type="line"/>
      <point x="339" y="467" type="line"/>
      <point x="241" y="592" type="line"/>
      <point x="125" y="496" type="line"/>
      <point x="224" y="371" type="line"/>
      <point x="61" y="235" type="line"/>
    </contour>
  </outline>
</glyph>
<glyph name="germandbls" format="2">
  <advance width="694"/>
  <unicode hex="00DF"/>
  <outline>
    <contour>
      <point x="50" y="0" type="line"/>
      <point x="249" y="0" type="line"/>
      <point x="351" y="493" type="line" smooth="yes"/>
      <point x="361" y="541"/>
      <point x="389" y="563"/>
      <point x="432" y="563" type="curve" smooth="yes"/>
      <point x="473" y="563"/>
      <point x="492" y="540"/>
      <point x="492" y="508" type="curve" smooth="yes"/>
      <point x="492" y="466"/>
      <point x="463" y="433"/>
      <point x="410" y="433" type="curve" smooth="yes"/>
      <point x="388" y="433" type="line"/>
      <point x="362" y="311" type="line"/>
      <point x="404" y="311" type="line" smooth="yes"/>
      <point x="443" y="311"/>
      <point x="467" y="291"/>
      <point x="467" y="256" type="curve" smooth="yes"/>
      <point x="467" y="206"/>
      <point x="434" y="168"/>
      <point x="372" y="168" type="curve" smooth="yes"/>
      <point x="332" y="168" type="line"/>
      <point x="298" y="0" type="line"/>
      <point x="394" y="0" type="line" smooth="yes"/>
      <point x="552" y="0"/>
      <point x="659" y="88"/>
      <point x="659" y="220" type="curve" smooth="yes"/>
      <point x="659" y="299"/>
      <point x="622" y="356"/>
      <point x="557" y="373" type="curve"/>
      <point x="559" y="381" type="line"/>
      <point x="635" y="400"/>
      <point x="680" y="467"/>
      <point x="680" y="551" type="curve" smooth="yes"/>
      <point x="680" y="662"/>
      <point x="597" y="736"/>
      <point x="447" y="736" type="curve" smooth="yes"/>
      <point x="318" y="736"/>
      <point x="192" y="675"/>
      <point x="161" y="527" type="curve" smooth="yes"/>
    </contour>
    <contour>
      <point x="41" y="389" type="line"/>
      <point x="147" y="389" type="line"/>
      <point x="183" y="544" type="line"/>
      <point x="75" y="544" type="line"/>
    </contour>
  </outline>
</glyph>
<glyph name="ae" format="2">
  <advance width="913"/>
  <unicode hex="00E6"/>
  <outline>
    <contour>
      <point x="182" y="-10" type="curve" smooth="yes"/>
      <point x="264" y="-10"/>
      <point x="343" y="19"/>
      <point x="384" y="73" type="curve"/>
      <point x="389" y="73" type="line"/>
      <point x="431" y="16"/>
      <point x="507" y="-10"/>
      <point x="601" y="-10" type="curve" smooth="yes"/>
      <point x="737" y="-10"/>
      <point x="843" y="65"/>
      <point x="868" y="175" type="curve"/>
      <point x="684" y="175" type="line"/>
      <point x="674" y="149"/>
      <point x="648" y="132"/>
      <point x="610" y="132" type="curve" smooth="yes"/>
      <point x="552" y="132"/>
      <point x="518" y="165"/>
      <point x="531" y="251" type="curve" smooth="yes"/>
      <point x="544" y="335" type="line" smooth="yes"/>
      <point x="551" y="377"/>
      <point x="577" y="413"/>
      <point x="634" y="413" type="curve" smooth="yes"/>
      <point x="684" y="413"/>
      <point x="714" y="381"/>
      <point x="707" y="331" type="curve"/>
      <point x="519" y="331" type="line"/>
      <point x="502" y="221" type="line"/>
      <point x="877" y="221" type="line"/>
      <point x="923" y="421"/>
      <point x="822" y="554"/>
      <point x="642" y="554" type="curve" smooth="yes"/>
      <point x="582" y="554"/>
      <point x="527" y="539"/>
      <point x="486" y="515" type="curve"/>
      <point x="479" y="515" type="line"/>
      <point x="444" y="538"/>
      <point x="387" y="554"/>
      <point x="326" y="554" type="curve" smooth="yes"/>
      <point x="177" y="554"/>
      <point x="70" y="483"/>
      <point x="56" y="358" type="curve"/>
      <point x="231" y="358" type="line"/>
      <point x="237" y="393"/>
      <point x="263" y="408"/>
      <point x="303" y="408" type="curve" smooth="yes"/>
      <point x="347" y="408"/>
      <point x="373" y="389"/>
      <point x="363" y="340" type="curve" smooth="yes"/>
      <point x="331" y="185" type="line" smooth="yes"/>
      <point x="323" y="146"/>
      <point x="297" y="120"/>
      <point x="248" y="120" type="curve" smooth="yes"/>
      <point x="217" y="120"/>
      <point x="197" y="136"/>
      <point x="197" y="166" type="curve" smooth="yes"/>
      <point x="197" y="199"/>
      <point x="223" y="221"/>
      <point x="278" y="221" type="curve" smooth="yes"/>
      <point x="362" y="221" type="line"/>
      <point x="385" y="331" type="line"/>
      <point x="258" y="331" type="line" smooth="yes"/>
      <point x="106" y="331"/>
      <point x="5" y="269"/>
      <point x="5" y="143" type="curve" smooth="yes"/>
      <point x="5" y="48"/>
      <point x="75" y="-10"/>
    </contour>
  </outline>
</glyph>
<glyph name="eth" format="2">
  <advance width="576"/>
  <unicode hex="00F0"/>
  <outline>
    <contour>
      <point x="254" y="-10" type="curve" smooth="yes"/>
      <point x="435" y="-10"/>
      <point x="548" y="110"/>
      <point x="548" y="300" type="curve" smooth="yes"/>
      <point x="548" y="448"/>
      <point x="476" y="614"/>
      <point x="377" y="729" type="curve"/>
      <point x="156" y="729" type="line"/>
      <point x="245" y="645"/>
      <point x="323" y="528"/>
      <point x="356" y="427" type="curve"/>
      <point x="351" y="425" type="line"/>
      <point x="329" y="452"/>
      <point x="279" y="468"/>
      <point x="227" y="465" type="curve" smooth="yes"/>
      <point x="101" y="456"/>
      <point x="21" y="356"/>
      <point x="21" y="217" type="curve" smooth="yes"/>
      <point x="21" y="80"/>
      <point x="115" y="-10"/>
    </contour>
    <contour>
      <point x="285" y="148" type="curve" smooth="yes"/>
      <point x="240" y="144"/>
      <point x="212" y="172"/>
      <point x="212" y="224" type="curve" smooth="yes"/>
      <point x="212" y="280"/>
      <point x="238" y="337"/>
      <point x="299" y="337" type="curve" smooth="yes"/>
      <point x="339" y="337"/>
      <point x="364" y="310"/>
      <point x="364" y="263" type="curve" smooth="yes"/>
      <point x="364" y="208"/>
      <point x="341" y="151"/>
    </contour>
    <contour>
      <point x="124" y="507" type="line"/>
      <point x="562" y="581" type="line"/>
      <point x="582" y="694" type="line"/>
      <point x="142" y="622" type="line"/>
    </contour>
  </outline>
</glyph>
<glyph name="divide" format="2">
  <advance width="600"/>
  <unicode hex="00F7"/>
  <outline>
    <contour>
      <point x="49" y="286" type="line"/>
      <point x="557" y="286" type="line"/>
      <point x="588" y="435" type="line"/>
      <point x="80" y="435" type="line"/>
    </contour>
    <contour>
      <point x="182" y="99" type="line"/>
      <point x="346" y="99" type="line"/>
      <point x="373" y="231" type="line"/>
      <point x="210" y="231" type="line"/>
    </contour>
    <contour>
      <point x="264" y="490" type="line"/>
      <point x="428" y="490" type="line"/>
      <point x="455" y="623" type="line"/>
      <point x="292" y="623" type="line"/>
    </contour>
  </outline>
</glyph>
<glyph name="thorn" format="2">
  <advance width="665"/>
  <unicode hex="00FE"/>
  <anchor x="276" y="0" name="bottom"/>
  <anchor x="427" y="729" name="top"/>
  <outline>
    <contour>
      <point x="-37" y="-167" type="line"/>
      <point x="164" y="-167" type="line"/>
      <point x="219" y="95" type="line"/>
      <point x="226" y="95" type="line"/>
      <point x="246" y="32"/>
      <point x="304" y="-10"/>
      <point x="383" y="-10" type="curve" smooth="yes"/>
      <point x="511" y="-10"/>
      <point x="609" y="85"/>
      <point x="633" y="254" type="curve" smooth="yes"/>
      <point x="658" y="433"/>
      <point x="586" y="553"/>
      <point x="453" y="553" type="curve" smooth="yes"/>
      <point x="390" y="553"/>
      <point x="330" y="521"/>
      <point x="302" y="473" type="curve"/>
      <point x="297" y="473" type="line"/>
      <point x="350" y="729" type="line"/>
      <point x="149" y="729" type="line"/>
    </contour>
    <contour>
      <point x="326" y="140" type="curve" smooth="yes"/>
      <point x="268" y="140"/>
      <point x="239" y="194"/>
      <point x="253" y="263" type="curve" smooth="yes"/>
      <point x="264" y="316" type="line" smooth="yes"/>
      <point x="276" y="372"/>
      <point x="310" y="403"/>
      <point x="362" y="403" type="curve" smooth="yes"/>
      <point x="410" y="403"/>
      <point x="442" y="366"/>
      <point x="442" y="300" type="curve" smooth="yes"/>
      <point x="442" y="205"/>
      <point x="399" y="140"/>
    </contour>
  </outline>
</glyph>
<glyph name="idotless" format="2">
  <advance width="302"/>
  <unicode hex="0131"/>
  <anchor x="94" y="0" name="bottom"/>
  <anchor x="189" y="0" name="ogonek"/>
  <anchor x="208" y="544" name="top"/>
  <outline>
    <contour>
      <point x="-2" y="0" type="line"/>
      <point x="189" y="0" type="line"/>
      <point x="304" y="544" type="line"/>
      <point x="112" y="544" type="line"/>
    </contour>
  </outline>
</glyph>
<glyph name="Eng" format="2">
  <advance width="769"/>
  <unicode hex="014A"/>
  <outline>
    <contour>
      <point x="3" y="0" type="line"/>
      <point x="204" y="0" type="line"/>
      <point x="253" y="236" type="line"/>
      <point x="283" y="431" type="line"/>
      <point x="291" y="431" type="line"/>
      <point x="426" y="0" type="line"/>
      <point x="653" y="0" type="line"/>
      <point x="805" y="729" type="line"/>
      <point x="606" y="729" type="line"/>
      <point x="557" y="494" type="line"/>
      <point x="526" y="292" type="line"/>
      <point x="518" y="292" type="line"/>
      <point x="382" y="729" type="line"/>
      <point x="154" y="729" type="line"/>
    </contour>
    <contour>
      <point x="338" y="-167" type="line"/>
      <point x="434" y="-167" type="line" smooth="yes"/>
      <point x="569" y="-167"/>
      <point x="631" y="-107"/>
      <point x="652" y="-4" type="curve" smooth="yes"/>
      <point x="657" y="19" type="line"/>
      <point x="466" y="19" type="line"/>
      <point x="461" y="-7" type="line" smooth="yes"/>
      <point x="454" y="-41"/>
      <point x="436" y="-54"/>
      <point x="400" y="-54" type="curve" smooth="yes"/>
      <point x="361" y="-54" type="line"/>
    </contour>
  </outline>
</glyph>
<glyph name="eng" format="2">
  <advance width="638"/>
  <unicode hex="014B"/>
  <outline>
    <contour>
      <point x="229" y="-167" type="line"/>
      <point x="324" y="-167" type="line" smooth="yes"/>
      <point x="438" y="-167"/>
      <point x="514" y="-114"/>
      <point x="538" y="-1" type="curve" smooth="yes"/>
      <point x="603" y="311" type="line" smooth="yes"/>
      <point x="643" y="501"/>
      <point x="545" y="554"/>
      <point x="460" y="554" type="curve" smooth="yes"/>
      <point x="394" y="554"/>
      <point x="326" y="519"/>
      <point x="294" y="467" type="curve"/>
      <point x="286" y="467" type="line"/>
      <point x="295" y="544" type="line"/>
      <point x="112" y="544" type="line"/>
      <point x="-2" y="0" type="line"/>
      <point x="189" y="0" type="line"/>
      <point x="255" y="313" type="line" smooth="yes"/>
      <point x="266" y="366"/>
      <point x="305" y="401"/>
      <point x="350" y="401" type="curve" smooth="yes"/>
      <point x="404" y="401"/>
      <point x="420" y="361"/>
      <point x="406" y="292" type="curve" smooth="yes"/>
      <point x="353" y="35" type="line" smooth="yes"/>
      <point x="341" y="-21"/>
      <point x="321" y="-27"/>
      <point x="276" y="-27" type="curve" smooth="yes"/>
      <point x="257" y="-27" type="line"/>
    </contour>
  </outline>
</glyph>
<glyph name="OE" format="2">
  <advance width="1084"/>
  <unicode hex="0152"/>
  <anchor x="486" y="0" name="bottom"/>
  <anchor x="637" y="729" name="top"/>
  <outline>
    <contour>
      <point x="382" y="-10" type="curve" smooth="yes"/>
      <point x="423" y="-10"/>
      <point x="463" y="-6"/>
      <point x="495" y="0" type="curve"/>
      <point x="994" y="0" type="line"/>
      <point x="1029" y="172" type="line"/>
      <point x="693" y="172" type="line"/>
      <point x="716" y="285" type="line"/>
      <point x="1002" y="285" type="line"/>
      <point x="1035" y="446" type="line"/>
      <point x="749" y="446" type="line"/>
      <point x="772" y="557" type="line"/>
      <point x="1106" y="557" type="line"/>
      <point x="1142" y="729" type="line"/>
      <point x="575" y="729" type="line"/>
      <point x="542" y="735"/>
      <point x="504" y="739"/>
      <point x="465" y="739" type="curve" smooth="yes"/>
      <point x="240" y="739"/>
      <point x="85" y="613"/>
      <point x="53" y="400" type="curve" smooth="yes"/>
      <point x="15" y="149"/>
      <point x="142" y="-10"/>
    </contour>
    <contour>
      <point x="435" y="160" type="curve" smooth="yes"/>
      <point x="299" y="160"/>
      <point x="236" y="240"/>
      <point x="259" y="384" type="curve" smooth="yes"/>
      <point x="278" y="506"/>
      <point x="350" y="569"/>
      <point x="469" y="569" type="curve" smooth="yes"/>
      <point x="506" y="569"/>
      <point x="543" y="563"/>
      <point x="570" y="550" type="curve"/>
      <point x="490" y="165" type="line"/>
      <point x="474" y="162"/>
      <point x="457" y="160"/>
    </contour>
  </outline>
</glyph>
<glyph name="oe" format="2">
  <advance width="938"/>
  <unicode hex="0153"/>
  <anchor x="424" y="0" name="bottom"/>
  <anchor x="506" y="544" name="top"/>
  <outline>
    <contour>
      <point x="269" y="-10" type="curve" smooth="yes"/>
      <point x="340" y="-10"/>
      <point x="401" y="9"/>
      <point x="449" y="46" type="curve"/>
      <point x="447" y="46" type="line"/>
      <point x="487" y="10"/>
      <point x="545" y="-10"/>
      <point x="618" y="-10" type="curve" smooth="yes"/>
      <point x="758" y="-10"/>
      <point x="868" y="65"/>
      <point x="892" y="177" type="curve"/>
      <point x="713" y="177" type="line"/>
      <point x="704" y="153"/>
      <point x="674" y="132"/>
      <point x="631" y="132" type="curve" smooth="yes"/>
      <point x="577" y="132"/>
      <point x="543" y="158"/>
      <point x="563" y="254" type="curve" smooth="yes"/>
      <point x="578" y="325" type="line" smooth="yes"/>
      <point x="589" y="376"/>
      <point x="612" y="413"/>
      <point x="666" y="413" type="curve" smooth="yes"/>
      <point x="711" y="413"/>
      <point x="737" y="383"/>
      <point x="736" y="339" type="curve"/>
      <point x="738" y="341" type="line"/>
      <point x="564" y="341" type="line"/>
      <point x="542" y="227" type="line"/>
      <point x="904" y="227" type="line"/>
      <point x="948" y="437"/>
      <point x="851" y="554"/>
      <point x="680" y="554" type="curve" smooth="yes"/>
      <point x="608" y="554"/>
      <point x="546" y="534"/>
      <point x="497" y="498" type="curve"/>
      <point x="499" y="498" type="line"/>
      <point x="456" y="535"/>
      <point x="396" y="554"/>
      <point x="324" y="554" type="curve" smooth="yes"/>
      <point x="147" y="554"/>
      <point x="31" y="430"/>
      <point x="24" y="232" type="curve" smooth="yes"/>
      <point x="18" y="72"/>
      <point x="119" y="-10"/>
    </contour>
    <contour>
      <point x="279" y="143" type="curve" smooth="yes"/>
      <point x="238" y="143"/>
      <point x="211" y="174"/>
      <point x="213" y="234" type="curve" smooth="yes"/>
      <point x="217" y="336"/>
      <point x="257" y="401"/>
      <point x="315" y="401" type="curve" smooth="yes"/>
      <point x="356" y="401"/>
      <point x="382" y="370"/>
      <point x="380" y="310" type="curve" smooth="yes"/>
      <point x="377" y="209"/>
      <point x="338" y="143"/>
    </contour>
  </outline>
</glyph>
<glyph name="florin" format="2">
  <advance width="467"/>
  <unicode hex="0192"/>
  <outline>
    <contour>
      <point x="-63" y="-167" type="line"/>
      <point x="23" y="-167" type="line" smooth="yes"/>
      <point x="161" y="-167"/>
      <point x="252" y="-102"/>
      <point x="280" y="33" type="curve" smooth="yes"/>
      <point x="382" y="529" type="line" smooth="yes"/>
      <point x="392" y="575"/>
      <point x="420" y="586"/>
      <point x="458" y="586" type="curve" smooth="yes"/>
      <point x="504" y="586" type="line"/>
      <point x="534" y="729" type="line"/>
      <point x="448" y="729" type="line" smooth="yes"/>
      <point x="310" y="729"/>
      <point x="219" y="664"/>
      <point x="191" y="529" type="curve" smooth="yes"/>
      <point x="89" y="33" type="line" smooth="yes"/>
      <point x="79" y="-13"/>
      <point x="51" y="-24"/>
      <point x="13" y="-24" type="curve" smooth="yes"/>
      <point x="-33" y="-24" type="line"/>
    </contour>
    <contour>
      <point x="64" y="320" type="line"/>
      <point x="434" y="320" type="line"/>
      <point x="463" y="460" type="line"/>
      <point x="93" y="460" type="line"/>
    </contour>
  </outline>
</glyph>
<glyph name="jdotless" format="2">
  <advance width="300"/>
  <unicode hex="0237"/>
  <anchor x="63" y="-200" name="bottom"/>
  <anchor x="207" y="544" name="top"/>
  <outline>
    <contour>
      <point x="-119" y="-167" type="line"/>
      <point x="-24" y="-167" type="line" smooth="yes"/>
      <point x="90" y="-167"/>
      <point x="164" y="-114"/>
      <point x="188" y="-1" type="curve" smooth="yes"/>
      <point x="302" y="544" type="line"/>
      <point x="112" y="544" type="line"/>
      <point x="5" y="35" type="line" smooth="yes"/>
      <point x="-7" y="-21"/>
      <point x="-27" y="-27"/>
      <point x="-72" y="-27" type="curve" smooth="yes"/>
      <point x="-91" y="-27" type="line"/>
    </contour>
  </outline>
</glyph>
<glyph name="gravecomb" format="2">
  <unicode hex="0300"/>
  <anchor x="296" y="678" name="_top"/>
  <outline>
    <contour>
      <point x="237" y="735" type="line"/>
      <point x="379" y="735" type="line"/>
      <point x="353" y="884" type="line"/>
      <point x="167" y="884" type="line"/>
    </contour>
  </outline>
</glyph>
<glyph name="acutecomb" format="2">
  <unicode hex="0301"/>
  <anchor x="195" y="678" name="_top"/>
  <outline>
    <contour>
      <point x="136" y="735" type="line"/>
      <point x="278" y="735" type="line"/>
      <point x="400" y="884" type="line"/>
      <point x="214" y="884" type="line"/>
    </contour>
  </outline>
</glyph>
<glyph name="circumflexcomb" format="2">
  <unicode hex="0302"/>
  <anchor x="329" y="678" name="_top"/>
  <outline>
    <contour>
      <point x="136" y="735" type="line"/>
      <point x="292" y="735" type="line"/>
      <point x="352" y="801" type="line"/>
      <point x="389" y="735" type="line"/>
      <point x="545" y="735" type="line"/>
      <point x="458" y="884" type="line"/>
      <point x="275" y="884" type="line"/>
    </contour>
  </outline>
</glyph>
<glyph name="tildecomb" format="2">
  <unicode hex="0303"/>
  <anchor x="344" y="678" name="_top"/>
  <outline>
    <contour>
      <point x="432" y="736" type="curve" smooth="yes"/>
      <point x="485" y="736"/>
      <point x="540" y="758"/>
      <point x="592" y="846" type="curve"/>
      <point x="518" y="894" type="line"/>
      <point x="495" y="868"/>
      <point x="469" y="857"/>
      <point x="445" y="857" type="curve" smooth="yes"/>
      <point x="401" y="857"/>
      <point x="362" y="892"/>
      <point x="303" y="892" type="curve" smooth="yes"/>
      <point x="256" y="892"/>
      <point x="205" y="869"/>
      <point x="146" y="782" type="curve"/>
      <point x="220" y="734" type="line"/>
      <point x="239" y="755"/>
      <point x="262" y="771"/>
      <point x="292" y="771" type="curve" smooth="yes"/>
      <point x="337" y="771"/>
      <point x="366" y="736"/>
    </contour>
  </outline>
</glyph>
<glyph name="macroncomb" format="2">
  <unicode hex="0304"/>
  <anchor x="308" y="678" name="_top"/>
  <outline>
    <contour>
      <point x="142" y="745" type="line"/>
      <point x="505" y="745" type="line"/>
      <point x="530" y="884" type="line"/>
      <point x="167" y="884" type="line"/>
    </contour>
  </outline>
</glyph>
<glyph name="brevecomb" format="2">
  <unicode hex="0306"/>
  <anchor x="312" y="678" name="_top"/>
  <outline>
    <contour>
      <point x="333" y="720" type="curve" smooth="yes"/>
      <point x="442" y="720"/>
      <point x="516" y="779"/>
      <point x="524" y="884" type="curve"/>
      <point x="405" y="884" type="line"/>
      <point x="403" y="849"/>
      <point x="380" y="825"/>
      <point x="343" y="825" type="curve" smooth="yes"/>
      <point x="305" y="825"/>
      <point x="282" y="846"/>
      <point x="286" y="884" type="curve"/>
      <point x="167" y="884" type="line"/>
      <point x="156" y="786"/>
      <point x="226" y="720"/>
    </contour>
  </outline>
</glyph>
<glyph name="dotaccentcomb" format="2">
  <unicode hex="0307"/>
  <anchor x="225" y="678" name="_top"/>
  <outline>
    <contour>
      <point x="245" y="723" type="curve" smooth="yes"/>
      <point x="309" y="723"/>
      <point x="351" y="758"/>
      <point x="351" y="810" type="curve" smooth="yes"/>
      <point x="351" y="857"/>
      <point x="318" y="889"/>
      <point x="258" y="889" type="curve" smooth="yes"/>
      <point x="194" y="889"/>
      <point x="152" y="854"/>
      <point x="152" y="802" type="curve" smooth="yes"/>
      <point x="152" y="755"/>
      <point x="185" y="723"/>
    </contour>
  </outline>
</glyph>
<glyph name="dieresiscomb" format="2">
  <unicode hex="0308"/>
  <anchor x="329" y="678" name="_top"/>
  <outline>
    <contour>
      <point x="463" y="731" type="curve" smooth="yes"/>
      <point x="521" y="731"/>
      <point x="559" y="763"/>
      <point x="559" y="809" type="curve" smooth="yes"/>
      <point x="559" y="852"/>
      <point x="529" y="881"/>
      <point x="475" y="881" type="curve" smooth="yes"/>
      <point x="417" y="881"/>
      <point x="379" y="849"/>
      <point x="379" y="802" type="curve" smooth="yes"/>
      <point x="379" y="760"/>
      <point x="409" y="731"/>
    </contour>
    <contour>
      <point x="236" y="731" type="curve" smooth="yes"/>
      <point x="294" y="731"/>
      <point x="332" y="763"/>
      <point x="332" y="809" type="curve" smooth="yes"/>
      <point x="332" y="852"/>
      <point x="302" y="881"/>
      <point x="248" y="881" type="curve" smooth="yes"/>
      <point x="190" y="881"/>
      <point x="152" y="849"/>
      <point x="152" y="802" type="curve" smooth="yes"/>
      <point x="152" y="760"/>
      <point x="182" y="731"/>
    </contour>
  </outline>
</glyph>
<glyph name="hookabovecomb" format="2">
  <unicode hex="0309"/>
  <anchor x="255" y="679" name="_top"/>
  <outline>
    <contour>
      <point x="205" y="727" type="line"/>
      <point x="338" y="748"/>
      <point x="428" y="799"/>
      <point x="428" y="879" type="curve" smooth="yes"/>
      <point x="428" y="949"/>
      <point x="362" y="988"/>
      <point x="259" y="988" type="curve" smooth="yes"/>
      <point x="230" y="988"/>
      <point x="208" y="987"/>
      <point x="187" y="981" type="curve"/>
      <point x="170" y="892" type="line"/>
      <point x="182" y="894"/>
      <point x="195" y="895"/>
      <point x="208" y="895" type="curve" smooth="yes"/>
      <point x="231" y="895"/>
      <point x="257" y="891"/>
      <point x="257" y="869" type="curve" smooth="yes"/>
      <point x="257" y="847"/>
      <point x="242" y="833"/>
      <point x="181" y="819" type="curve"/>
    </contour>
  </outline>
</glyph>
<glyph name="ringcomb" format="2">
  <unicode hex="030A"/>
  <anchor x="255" y="678" name="_top"/>
  <outline>
    <contour>
      <point x="282" y="726" type="curve" smooth="yes"/>
      <point x="360" y="726"/>
      <point x="416" y="776"/>
      <point x="419" y="849" type="curve" smooth="yes"/>
      <point x="421" y="919"/>
      <point x="372" y="964"/>
      <point x="297" y="964" type="curve" smooth="yes"/>
      <point x="218" y="964"/>
      <point x="163" y="914"/>
      <point x="160" y="841" type="curve" smooth="yes"/>
      <point x="158" y="771"/>
      <point x="206" y="726"/>
    </contour>
    <contour>
      <point x="287" y="807" type="curve" smooth="yes"/>
      <point x="266" y="807"/>
      <point x="251" y="821"/>
      <point x="252" y="843" type="curve" smooth="yes"/>
      <point x="253" y="869"/>
      <point x="269" y="883"/>
      <point x="292" y="883" type="curve" smooth="yes"/>
      <point x="313" y="883"/>
      <point x="327" y="869"/>
      <point x="327" y="847" type="curve" smooth="yes"/>
      <point x="326" y="821"/>
      <point x="309" y="807"/>
    </contour>
  </outline>
</glyph>
<glyph name="hungarumlautcomb" format="2">
  <unicode hex="030B"/>
  <anchor x="295" y="678" name="_top"/>
  <outline>
    <contour>
      <point x="136" y="735" type="line"/>
      <point x="271" y="735" type="line"/>
      <point x="392" y="884" type="line"/>
      <point x="216" y="884" type="line"/>
    </contour>
    <contour>
      <point x="342" y="735" type="line"/>
      <point x="493" y="735" type="line"/>
      <point x="650" y="884" type="line"/>
      <point x="462" y="884" type="line"/>
    </contour>
  </outline>
</glyph>
<glyph name="caroncomb" format="2">
  <unicode hex="030C"/>
  <anchor x="334" y="678" name="_top"/>
  <outline>
    <contour>
      <point x="254" y="735" type="line"/>
      <point x="437" y="735" type="line"/>
      <point x="576" y="884" type="line"/>
      <point x="420" y="884" type="line"/>
      <point x="360" y="818" type="line"/>
      <point x="323" y="884" type="line"/>
      <point x="167" y="884" type="line"/>
    </contour>
  </outline>
</glyph>
<glyph name="commaturnedabovecomb" format="2">
  <unicode hex="0312"/>
  <anchor x="198" y="678" name="_top"/>
  <outline>
    <contour>
      <point x="136" y="735" type="line"/>
      <point x="284" y="735" type="line"/>
      <point x="290" y="760" type="line" smooth="yes"/>
      <point x="303" y="823"/>
      <point x="318" y="854"/>
      <point x="360" y="895" type="curve"/>
      <point x="305" y="973" type="line"/>
      <point x="209" y="919"/>
      <point x="163" y="865"/>
      <point x="145" y="778" type="curve" smooth="yes"/>
    </contour>
  </outline>
</glyph>
<glyph name="horncomb" format="2">
  <unicode hex="031B"/>
  <anchor x="106" y="590" name="_topright"/>
  <outline>
    <contour>
      <point x="86" y="486" type="line"/>
      <point x="262" y="472"/>
      <point x="362" y="540"/>
      <point x="368" y="676" type="curve"/>
      <point x="220" y="676" type="line"/>
      <point x="217" y="609"/>
      <point x="182" y="583"/>
      <point x="106" y="590" type="curve"/>
    </contour>
  </outline>
</glyph>
<glyph name="dotbelowcomb" format="2">
  <unicode hex="0323"/>
  <anchor x="71" y="0" name="_bottom"/>
  <outline>
    <contour>
      <point x="40" y="-196" type="curve" smooth="yes"/>
      <point x="94" y="-196"/>
      <point x="133" y="-163"/>
      <point x="133" y="-114" type="curve" smooth="yes"/>
      <point x="133" y="-71"/>
      <point x="101" y="-40"/>
      <point x="52" y="-40" type="curve" smooth="yes"/>
      <point x="-2" y="-40"/>
      <point x="-40" y="-73"/>
      <point x="-40" y="-122" type="curve" smooth="yes"/>
      <point x="-40" y="-165"/>
      <point x="-8" y="-196"/>
    </contour>
  </outline>
</glyph>
<glyph name="commaaccentcomb" format="2">
  <unicode hex="0326"/>
  <anchor x="115" y="0" name="_bottom"/>
  <outline>
    <contour>
      <point x="-61" y="-217" type="line"/>
      <point x="83" y="-217" type="line"/>
      <point x="195" y="-57" type="line"/>
      <point x="11" y="-57" type="line"/>
    </contour>
  </outline>
</glyph>
<glyph name="ogonekcomb" format="2">
  <unicode hex="0328"/>
  <anchor x="223" y="0" name="_ogonek"/>
  <outline>
    <contour>
      <point x="82" y="-221" type="curve" smooth="yes"/>
      <point x="122" y="-221"/>
      <point x="167" y="-213"/>
      <point x="196" y="-201" type="curve"/>
      <point x="210" y="-123" type="line"/>
      <point x="196" y="-129"/>
      <point x="182" y="-132"/>
      <point x="168" y="-132" type="curve" smooth="yes"/>
      <point x="144" y="-132"/>
      <point x="130" y="-121"/>
      <point x="130" y="-101" type="curve" smooth="yes"/>
      <point x="130" y="-72"/>
      <point x="160" y="-40"/>
      <point x="223" y="0" type="curve"/>
      <point x="216" y="11" type="line"/>
      <point x="108" y="11" type="line"/>
      <point x="26" y="-22"/>
      <point x="-42" y="-68"/>
      <point x="-42" y="-136" type="curve" smooth="yes"/>
      <point x="-42" y="-191"/>
      <point x="6" y="-221"/>
    </contour>
  </outline>
</glyph>
<glyph name="strokeshortcomb" format="2">
  <unicode hex="0335"/>
  <anchor x="222" y="306" name="_center"/>
  <outline>
    <contour>
      <point x="35" y="248" type="line"/>
      <point x="384" y="248" type="line"/>
      <point x="408" y="364" type="line"/>
      <point x="59" y="364" type="line"/>
    </contour>
  </outline>
</glyph>
<glyph name="strokelongcomb" format="2">
  <unicode hex="0336"/>
  <anchor x="474" y="365" name="_center"/>
  <outline>
    <contour>
      <point x="46" y="300" type="line"/>
      <point x="876" y="300" type="line"/>
      <point x="904" y="438" type="line"/>
      <point x="74" y="438" type="line"/>
    </contour>
  </outline>
</glyph>
<glyph name="slashlongcomb" format="2">
  <unicode hex="0338"/>
  <anchor x="341" y="272" name="_center"/>
  <outline>
    <contour>
      <point x="-29" y="-60" type="line"/>
      <point x="92" y="-60" type="line"/>
      <point x="715" y="604" type="line"/>
      <point x="596" y="604" type="line"/>
    </contour>
  </outline>
</glyph>
<glyph name="mu" format="2">
  <advance width="674"/>
  <unicode hex="03BC"/>
  <outline>
    <contour>
      <point x="-10" y="-132" type="line"/>
      <point x="181" y="-132" type="line"/>
      <point x="213" y="48" type="line"/>
      <point x="116" y="17" type="line"/>
      <point x="132" y="1"/>
      <point x="167" y="-10"/>
      <point x="204" y="-10" type="curve" smooth="yes"/>
      <point x="276" y="-10"/>
      <point x="344" y="23"/>
      <point x="380" y="89" type="curve"/>
      <point x="388" y="89" type="line"/>
      <point x="380" y="0" type="line"/>
      <point x="564" y="0" type="line"/>
      <point x="660" y="544" type="line"/>
      <point x="469" y="544" type="line"/>
      <point x="414" y="236" type="line" smooth="yes"/>
      <point x="405" y="181"/>
      <point x="370" y="144"/>
      <point x="309" y="144" type="curve" smooth="yes"/>
      <point x="258" y="144"/>
      <point x="235" y="173"/>
      <point x="245" y="228" type="curve" smooth="yes"/>
      <point x="301" y="544" type="line"/>
      <point x="110" y="544" type="line"/>
    </contour>
  </outline>
</glyph>
<glyph name="pi" format="2">
  <advance width="661"/>
  <unicode hex="03C0"/>
  <outline>
    <contour>
      <point x="479" y="-6" type="curve" smooth="yes"/>
      <point x="503" y="-6"/>
      <point x="544" y="1"/>
      <point x="572" y="8" type="curve"/>
      <point x="598" y="132" type="line"/>
      <point x="593" y="130"/>
      <point x="581" y="129"/>
      <point x="569" y="129" type="curve" smooth="yes"/>
      <point x="542" y="129"/>
      <point x="525" y="141"/>
      <point x="532" y="175" type="curve" smooth="yes"/>
      <point x="577" y="389" type="line"/>
      <point x="652" y="389" type="line"/>
      <point x="684" y="544" type="line"/>
      <point x="74" y="544" type="line"/>
      <point x="42" y="389" type="line"/>
      <point x="118" y="389" type="line"/>
      <point x="37" y="0" type="line"/>
      <point x="221" y="0" type="line"/>
      <point x="302" y="389" type="line"/>
      <point x="393" y="389" type="line"/>
      <point x="345" y="163" type="line" smooth="yes"/>
      <point x="328" y="74"/>
      <point x="338" y="-6"/>
    </contour>
  </outline>
</glyph>
<glyph name="Germandbls" format="2">
  <advance width="730"/>
  <unicode hex="1E9E"/>
  <outline>
    <contour>
      <point x="2" y="0" type="line"/>
      <point x="203" y="0" type="line"/>
      <point x="321" y="561" type="line"/>
      <point x="521" y="561" type="line"/>
      <point x="394" y="411" type="line"/>
      <point x="375" y="321" type="line"/>
      <point x="412" y="321" type="line" smooth="yes"/>
      <point x="462" y="321"/>
      <point x="487" y="296"/>
      <point x="485" y="254" type="curve" smooth="yes"/>
      <point x="483" y="198"/>
      <point x="448" y="163"/>
      <point x="377" y="163" type="curve" smooth="yes"/>
      <point x="306" y="163" type="line"/>
      <point x="271" y="0" type="line"/>
      <point x="407" y="0" type="line" smooth="yes"/>
      <point x="588" y="0"/>
      <point x="693" y="93"/>
      <point x="698" y="232" type="curve" smooth="yes"/>
      <point x="701" y="328"/>
      <point x="644" y="404"/>
      <point x="551" y="404" type="curve" smooth="yes"/>
      <point x="540" y="404" type="line"/>
      <point x="583" y="355" type="line"/>
      <point x="593" y="410" type="line"/>
      <point x="715" y="546" type="line"/>
      <point x="753" y="729" type="line"/>
      <point x="155" y="729" type="line"/>
    </contour>
  </outline>
</glyph>
<glyph name="endash" format="2">
  <advance width="572"/>
  <unicode hex="2013"/>
  <outline>
    <contour>
      <point x="22" y="192" type="line"/>
      <point x="517" y="192" type="line"/>
      <point x="550" y="352" type="line"/>
      <point x="55" y="352" type="line"/>
    </contour>
  </outline>
</glyph>
<glyph name="emdash" format="2">
  <advance width="746"/>
  <unicode hex="2014"/>
  <outline>
    <contour>
      <point x="22" y="192" type="line"/>
      <point x="691" y="192" type="line"/>
      <point x="724" y="352" type="line"/>
      <point x="55" y="352" type="line"/>
    </contour>
  </outline>
</glyph>
<glyph name="bullet" format="2">
  <advance width="303"/>
  <unicode hex="2022"/>
  <outline>
    <contour>
      <point x="147" y="142" type="curve" smooth="yes"/>
      <point x="230" y="142"/>
      <point x="287" y="202"/>
      <point x="287" y="281" type="curve" smooth="yes"/>
      <point x="287" y="356"/>
      <point x="236" y="412"/>
      <point x="157" y="412" type="curve" smooth="yes"/>
      <point x="79" y="412"/>
      <point x="17" y="352"/>
      <point x="17" y="273" type="curve" smooth="yes"/>
      <point x="17" y="198"/>
      <point x="71" y="142"/>
    </contour>
  </outline>
</glyph>
<glyph name="perthousand" format="2">
  <advance width="1247"/>
  <unicode hex="2030"/>
  <outline>
    <contour>
      <point x="95" y="0" type="line"/>
      <point x="230" y="0" type="line"/>
      <point x="842" y="729" type="line"/>
      <point x="708" y="729" type="line"/>
    </contour>
    <contour>
      <point x="241" y="333" type="curve" smooth="yes"/>
      <point x="357" y="333"/>
      <point x="428" y="434"/>
      <point x="428" y="569" type="curve" smooth="yes"/>
      <point x="428" y="666"/>
      <point x="377" y="729"/>
      <point x="285" y="729" type="curve" smooth="yes"/>
      <point x="169" y="729"/>
      <point x="98" y="628"/>
      <point x="98" y="493" type="curve" smooth="yes"/>
      <point x="98" y="396"/>
      <point x="149" y="333"/>
    </contour>
    <contour>
      <point x="250" y="437" type="curve" smooth="yes"/>
      <point x="214" y="437"/>
      <point x="214" y="484"/>
      <point x="222" y="538" type="curve" smooth="yes"/>
      <point x="231" y="590"/>
      <point x="246" y="625"/>
      <point x="276" y="625" type="curve" smooth="yes"/>
      <point x="312" y="625"/>
      <point x="312" y="578"/>
      <point x="304" y="524" type="curve" smooth="yes"/>
      <point x="295" y="472"/>
      <point x="280" y="437"/>
    </contour>
    <contour>
      <point x="649" y="-9" type="curve" smooth="yes"/>
      <point x="765" y="-9"/>
      <point x="836" y="92"/>
      <point x="836" y="227" type="curve" smooth="yes"/>
      <point x="836" y="324"/>
      <point x="785" y="387"/>
      <point x="693" y="387" type="curve" smooth="yes"/>
      <point x="577" y="387"/>
      <point x="506" y="286"/>
      <point x="506" y="151" type="curve" smooth="yes"/>
      <point x="506" y="54"/>
      <point x="557" y="-9"/>
    </contour>
    <contour>
      <point x="658" y="95" type="curve" smooth="yes"/>
      <point x="622" y="95"/>
      <point x="622" y="142"/>
      <point x="630" y="196" type="curve" smooth="yes"/>
      <point x="639" y="248"/>
      <point x="654" y="283"/>
      <point x="684" y="283" type="curve" smooth="yes"/>
      <point x="720" y="283"/>
      <point x="720" y="236"/>
      <point x="712" y="182" type="curve" smooth="yes"/>
      <point x="703" y="130"/>
      <point x="688" y="95"/>
    </contour>
    <contour>
      <point x="998" y="-9" type="curve" smooth="yes"/>
      <point x="1114" y="-9"/>
      <point x="1185" y="92"/>
      <point x="1185" y="227" type="curve" smooth="yes"/>
      <point x="1185" y="324"/>
      <point x="1134" y="387"/>
      <point x="1042" y="387" type="curve" smooth="yes"/>
      <point x="926" y="387"/>
      <point x="855" y="286"/>
      <point x="855" y="151" type="curve" smooth="yes"/>
      <point x="855" y="54"/>
      <point x="906" y="-9"/>
    </contour>
    <contour>
      <point x="1007" y="95" type="curve" smooth="yes"/>
      <point x="971" y="95"/>
      <point x="971" y="142"/>
      <point x="979" y="196" type="curve" smooth="yes"/>
      <point x="988" y="248"/>
      <point x="1003" y="283"/>
      <point x="1033" y="283" type="curve" smooth="yes"/>
      <point x="1069" y="283"/>
      <point x="1069" y="236"/>
      <point x="1061" y="182" type="curve" smooth="yes"/>
      <point x="1052" y="130"/>
      <point x="1037" y="95"/>
    </contour>
  </outline>
</glyph>
<glyph name="guilsinglleft" format="2">
  <advance width="333"/>
  <unicode hex="2039"/>
  <outline>
    <contour>
      <point x="102" y="0" type="line"/>
      <point x="259" y="0" type="line"/>
      <point x="186" y="257" type="line"/>
      <point x="366" y="544" type="line"/>
      <point x="199" y="544" type="line"/>
      <point x="22" y="275" type="line"/>
    </contour>
  </outline>
</glyph>
<glyph name="fraction" format="2">
  <advance width="167"/>
  <unicode hex="2044"/>
  <outline>
    <contour>
      <point x="-285" y="0" type="line"/>
      <point x="-136" y="0" type="line"/>
      <point x="489" y="721" type="line"/>
      <point x="339" y="721" type="line"/>
    </contour>
  </outline>
</glyph>
<glyph name="zeroinferior" format="2">
  <advance width="408"/>
  <unicode hex="2080"/>
  <anchor x="184" y="177" name="_center"/>
  <outline>
    <contour>
      <point x="154" y="-46" type="curve" smooth="yes"/>
      <point x="252" y="-46"/>
      <point x="324" y="21"/>
      <point x="350" y="142" type="curve" smooth="yes"/>
      <point x="384" y="300"/>
      <point x="334" y="397"/>
      <point x="214" y="397" type="curve" smooth="yes"/>
      <point x="120" y="397"/>
      <point x="46" y="336"/>
      <point x="18" y="208" type="curve" smooth="yes"/>
      <point x="-15" y="55"/>
      <point x="36" y="-46"/>
    </contour>
    <contour>
      <point x="164" y="61" type="curve" smooth="yes"/>
      <point x="127" y="61"/>
      <point x="126" y="107"/>
      <point x="142" y="187" type="curve" smooth="yes"/>
      <point x="160" y="275"/>
      <point x="179" y="291"/>
      <point x="205" y="291" type="curve" smooth="yes"/>
      <point x="241" y="291"/>
      <point x="243" y="243"/>
      <point x="227" y="167" type="curve" smooth="yes"/>
      <point x="209" y="77"/>
      <point x="189" y="61"/>
    </contour>
  </outline>
</glyph>
<glyph name="oneinferior" format="2">
  <advance width="310"/>
  <unicode hex="2081"/>
  <anchor x="157" y="177" name="_center"/>
  <outline>
    <contour>
      <point x="62" y="-40" type="line"/>
      <point x="191" y="-40" type="line"/>
      <point x="282" y="393" type="line"/>
      <point x="161" y="393" type="line"/>
      <point x="145" y="345"/>
      <point x="96" y="313"/>
      <point x="45" y="313" type="curve" smooth="yes"/>
      <point x="27" y="313" type="line"/>
      <point x="6" y="214" type="line"/>
      <point x="115" y="214" type="line"/>
    </contour>
  </outline>
</glyph>
<glyph name="twoinferior" format="2">
  <advance width="387"/>
  <unicode hex="2082"/>
  <anchor x="155" y="177" name="_center"/>
  <outline>
    <contour>
      <point x="-34" y="-40" type="line"/>
      <point x="292" y="-40" type="line"/>
      <point x="315" y="70" type="line"/>
      <point x="144" y="70" type="line"/>
      <point x="198" y="115"/>
      <point x="343" y="151"/>
      <point x="343" y="273" type="curve" smooth="yes"/>
      <point x="343" y="348"/>
      <point x="285" y="398"/>
      <point x="198" y="398" type="curve" smooth="yes"/>
      <point x="105" y="398"/>
      <point x="36" y="337"/>
      <point x="26" y="249" type="curve"/>
      <point x="147" y="249" type="line"/>
      <point x="146" y="278"/>
      <point x="165" y="293"/>
      <point x="187" y="293" type="curve" smooth="yes"/>
      <point x="206" y="293"/>
      <point x="219" y="281"/>
      <point x="219" y="262" type="curve" smooth="yes"/>
      <point x="219" y="184"/>
      <point x="-11" y="162"/>
      <point x="-33" y="-32" type="curve" smooth="yes"/>
    </contour>
  </outline>
</glyph>
<glyph name="threeinferior" format="2">
  <advance width="393"/>
  <unicode hex="2083"/>
  <anchor x="169" y="177" name="_center"/>
  <outline>
    <contour>
      <point x="146" y="-46" type="curve" smooth="yes"/>
      <point x="249" y="-46"/>
      <point x="327" y="8"/>
      <point x="327" y="89" type="curve" smooth="yes"/>
      <point x="327" y="134"/>
      <point x="301" y="168"/>
      <point x="271" y="179" type="curve"/>
      <point x="272" y="183" type="line"/>
      <point x="316" y="198"/>
      <point x="351" y="235"/>
      <point x="351" y="287" type="curve" smooth="yes"/>
      <point x="351" y="354"/>
      <point x="292" y="397"/>
      <point x="212" y="397" type="curve" smooth="yes"/>
      <point x="109" y="397"/>
      <point x="33" y="347"/>
      <point x="23" y="260" type="curve"/>
      <point x="149" y="260" type="line"/>
      <point x="152" y="281"/>
      <point x="171" y="289"/>
      <point x="189" y="289" type="curve" smooth="yes"/>
      <point x="204" y="289"/>
      <point x="217" y="279"/>
      <point x="217" y="263" type="curve" smooth="yes"/>
      <point x="217" y="241"/>
      <point x="199" y="226"/>
      <point x="171" y="226" type="curve" smooth="yes"/>
      <point x="129" y="226" type="line"/>
      <point x="108" y="132" type="line"/>
      <point x="158" y="132" type="line" smooth="yes"/>
      <point x="176" y="132"/>
      <point x="196" y="125"/>
      <point x="196" y="99" type="curve" smooth="yes"/>
      <point x="196" y="75"/>
      <point x="179" y="62"/>
      <point x="154" y="62" type="curve" smooth="yes"/>
      <point x="132" y="62"/>
      <point x="114" y="71"/>
      <point x="112" y="94" type="curve"/>
      <point x="-13" y="94" type="line"/>
      <point x="-12" y="6"/>
      <point x="48" y="-46"/>
    </contour>
  </outline>
</glyph>
<glyph name="fourinferior" format="2">
  <advance width="420"/>
  <unicode hex="2084"/>
  <anchor x="175" y="177" name="_center"/>
  <outline>
    <contour>
      <point x="146" y="-40" type="line"/>
      <point x="274" y="-40" type="line"/>
      <point x="364" y="393" type="line"/>
      <point x="209" y="393" type="line"/>
      <point x="-7" y="141" type="line"/>
      <point x="-26" y="47" type="line"/>
      <point x="354" y="47" type="line"/>
      <point x="376" y="151" type="line"/>
      <point x="120" y="151" type="line"/>
      <point x="208" y="257" type="line"/>
      <point x="207" y="257" type="line"/>
    </contour>
  </outline>
</glyph>
<glyph name="fiveinferior" format="2">
  <advance width="405"/>
  <unicode hex="2085"/>
  <anchor x="187" y="177" name="_center"/>
  <outline>
    <contour>
      <point x="156" y="-46" type="curve" smooth="yes"/>
      <point x="264" y="-46"/>
      <point x="341" y="19"/>
      <point x="341" y="118" type="curve" smooth="yes"/>
      <point x="341" y="191"/>
      <point x="293" y="243"/>
      <point x="220" y="243" type="curve" smooth="yes"/>
      <point x="201" y="243"/>
      <point x="179" y="241"/>
      <point x="160" y="230" type="curve"/>
      <point x="156" y="232" type="line"/>
      <point x="174" y="282" type="line"/>
      <point x="352" y="282" type="line"/>
      <point x="375" y="393" type="line"/>
      <point x="81" y="393" type="line"/>
      <point x="10" y="116" type="line"/>
      <point x="133" y="116" type="line"/>
      <point x="136" y="132"/>
      <point x="153" y="144"/>
      <point x="175" y="144" type="curve" smooth="yes"/>
      <point x="197" y="144"/>
      <point x="212" y="130"/>
      <point x="212" y="109" type="curve" smooth="yes"/>
      <point x="212" y="82"/>
      <point x="196" y="62"/>
      <point x="167" y="62" type="curve" smooth="yes"/>
      <point x="148" y="62"/>
      <point x="136" y="70"/>
      <point x="130" y="84" type="curve"/>
      <point x="-1" y="84" type="line"/>
      <point x="2" y="4"/>
      <point x="63" y="-46"/>
    </contour>
  </outline>
</glyph>
<glyph name="sixinferior" format="2">
  <advance width="417"/>
  <unicode hex="2086"/>
  <anchor x="196" y="177" name="_center"/>
  <outline>
    <contour>
      <point x="178" y="-46" type="curve" smooth="yes"/>
      <point x="277" y="-46"/>
      <point x="354" y="16"/>
      <point x="354" y="115" type="curve" smooth="yes"/>
      <point x="354" y="194"/>
      <point x="294" y="244"/>
      <point x="222" y="244" type="curve" smooth="yes"/>
      <point x="190" y="244"/>
      <point x="159" y="233"/>
      <point x="145" y="219" type="curve"/>
      <point x="141" y="221" type="line"/>
      <point x="150" y="273"/>
      <point x="178" y="291"/>
      <point x="211" y="291" type="curve" smooth="yes"/>
      <point x="234" y="291"/>
      <point x="252" y="283"/>
      <point x="255" y="267" type="curve"/>
      <point x="381" y="267" type="line"/>
      <point x="375" y="346"/>
      <point x="311" y="397"/>
      <point x="222" y="397" type="curve" smooth="yes"/>
      <point x="80" y="397"/>
      <point x="10" y="282"/>
      <point x="10" y="136" type="curve" smooth="yes"/>
      <point x="10" y="27"/>
      <point x="65" y="-46"/>
    </contour>
    <contour>
      <point x="175" y="62" type="curve" smooth="yes"/>
      <point x="151" y="62"/>
      <point x="135" y="79"/>
      <point x="135" y="102" type="curve" smooth="yes"/>
      <point x="135" y="129"/>
      <point x="149" y="154"/>
      <point x="184" y="154" type="curve" smooth="yes"/>
      <point x="209" y="154"/>
      <point x="225" y="137"/>
      <point x="225" y="113" type="curve" smooth="yes"/>
      <point x="225" y="82"/>
      <point x="207" y="62"/>
    </contour>
  </outline>
</glyph>
<glyph name="seveninferior" format="2">
  <advance width="384"/>
  <unicode hex="2087"/>
  <anchor x="203" y="177" name="_center"/>
  <outline>
    <contour>
      <point x="45" y="-40" type="curve"/>
      <point x="178" y="-40" type="line"/>
      <point x="227" y="117"/>
      <point x="298" y="207"/>
      <point x="373" y="301" type="curve"/>
      <point x="392" y="393" type="line"/>
      <point x="50" y="393" type="line"/>
      <point x="14" y="220" type="line"/>
      <point x="115" y="220" type="line"/>
      <point x="128" y="282" type="line"/>
      <point x="231" y="282" type="line"/>
      <point x="158" y="204"/>
      <point x="85" y="81"/>
    </contour>
  </outline>
</glyph>
<glyph name="eightinferior" format="2">
  <advance width="407"/>
  <unicode hex="2088"/>
  <anchor x="176" y="177" name="_center"/>
  <outline>
    <contour>
      <point x="161" y="-46" type="curve" smooth="yes"/>
      <point x="268" y="-46"/>
      <point x="340" y="-2"/>
      <point x="340" y="78" type="curve" smooth="yes"/>
      <point x="340" y="122"/>
      <point x="308" y="159"/>
      <point x="272" y="171" type="curve"/>
      <point x="273" y="176" type="line"/>
      <point x="325" y="190"/>
      <point x="360" y="227"/>
      <point x="360" y="279" type="curve" smooth="yes"/>
      <point x="360" y="349"/>
      <point x="298" y="397"/>
      <point x="203" y="397" type="curve" smooth="yes"/>
      <point x="113" y="397"/>
      <point x="41" y="352"/>
      <point x="41" y="273" type="curve" smooth="yes"/>
      <point x="41" y="238"/>
      <point x="59" y="204"/>
      <point x="89" y="191" type="curve"/>
      <point x="88" y="185" type="line"/>
      <point x="31" y="174"/>
      <point x="-9" y="131"/>
      <point x="-9" y="75" type="curve" smooth="yes"/>
      <point x="-9" y="2"/>
      <point x="50" y="-46"/>
    </contour>
    <contour>
      <point x="162" y="62" type="curve" smooth="yes"/>
      <point x="134" y="62"/>
      <point x="120" y="77"/>
      <point x="120" y="98" type="curve" smooth="yes"/>
      <point x="120" y="121"/>
      <point x="136" y="137"/>
      <point x="167" y="137" type="curve" smooth="yes"/>
      <point x="194" y="137"/>
      <point x="209" y="121"/>
      <point x="209" y="100" type="curve" smooth="yes"/>
      <point x="209" y="78"/>
      <point x="193" y="62"/>
    </contour>
    <contour>
      <point x="197" y="229" type="curve" smooth="yes"/>
      <point x="176" y="229"/>
      <point x="160" y="241"/>
      <point x="160" y="261" type="curve" smooth="yes"/>
      <point x="160" y="281"/>
      <point x="176" y="295"/>
      <point x="204" y="295" type="curve" smooth="yes"/>
      <point x="225" y="295"/>
      <point x="241" y="282"/>
      <point x="241" y="264" type="curve" smooth="yes"/>
      <point x="241" y="242"/>
      <point x="224" y="229"/>
    </contour>
  </outline>
</glyph>
<glyph name="peseta" format="2">
  <advance width="1615"/>
  <unicode hex="20A7"/>
  <outline>
    <contour>
      <point x="14" y="0" type="line"/>
      <point x="217" y="0" type="line"/>
      <point x="334" y="569" type="line"/>
      <point x="316" y="552" type="line"/>
      <point x="416" y="552" type="line" smooth="yes"/>
      <point x="452" y="552"/>
      <point x="472" y="527"/>
      <point x="470" y="484" type="curve" smooth="yes"/>
      <point x="468" y="428"/>
      <point x="437" y="393"/>
      <point x="381" y="393" type="curve" smooth="yes"/>
      <point x="283" y="393" type="line"/>
      <point x="249" y="232" type="line"/>
      <point x="383" y="232" type="line" smooth="yes"/>
      <point x="551" y="232"/>
      <point x="672" y="336"/>
      <point x="678" y="506" type="curve" smooth="yes"/>
      <point x="682" y="640"/>
      <point x="599" y="729"/>
      <point x="448" y="729" type="curve" smooth="yes"/>
      <point x="165" y="729" type="line"/>
    </contour>
    <contour>
      <point x="883" y="0" type="curve" smooth="yes"/>
      <point x="997" y="0" type="line"/>
      <point x="1029" y="153" type="line"/>
      <point x="974" y="153" type="line" smooth="yes"/>
      <point x="946" y="153"/>
      <point x="932" y="160"/>
      <point x="938" y="188" type="curve" smooth="yes"/>
      <point x="981" y="391" type="line"/>
      <point x="1079" y="391" type="line"/>
      <point x="1111" y="544" type="line"/>
      <point x="1013" y="544" type="line"/>
      <point x="1045" y="699" type="line"/>
      <point x="853" y="683" type="line"/>
      <point x="824" y="544" type="line"/>
      <point x="734" y="544" type="line"/>
      <point x="702" y="391" type="line"/>
      <point x="792" y="391" type="line"/>
      <point x="744" y="166" type="line" smooth="yes"/>
      <point x="723" y="66"/>
      <point x="766" y="0"/>
    </contour>
    <contour>
      <point x="1297" y="-10" type="curve" smooth="yes"/>
      <point x="1459" y="-10"/>
      <point x="1557" y="61"/>
      <point x="1562" y="184" type="curve" smooth="yes"/>
      <point x="1565" y="280"/>
      <point x="1514" y="324"/>
      <point x="1397" y="345" type="curve" smooth="yes"/>
      <point x="1337" y="356"/>
      <point x="1317" y="362"/>
      <point x="1318" y="387" type="curve" smooth="yes"/>
      <point x="1319" y="410"/>
      <point x="1337" y="422"/>
      <point x="1366" y="422" type="curve" smooth="yes"/>
      <point x="1393" y="422"/>
      <point x="1412" y="405"/>
      <point x="1411" y="380" type="curve"/>
      <point x="1588" y="380" type="line"/>
      <point x="1592" y="491"/>
      <point x="1506" y="554"/>
      <point x="1372" y="554" type="curve" smooth="yes"/>
      <point x="1224" y="554"/>
      <point x="1127" y="479"/>
      <point x="1123" y="359" type="curve" smooth="yes"/>
      <point x="1120" y="268"/>
      <point x="1171" y="225"/>
      <point x="1299" y="200" type="curve" smooth="yes"/>
      <point x="1350" y="190"/>
      <point x="1366" y="185"/>
      <point x="1365" y="162" type="curve" smooth="yes"/>
      <point x="1364" y="133"/>
      <point x="1340" y="122"/>
      <point x="1307" y="122" type="curve" smooth="yes"/>
      <point x="1268" y="122"/>
      <point x="1247" y="140"/>
      <point x="1249" y="174" type="curve"/>
      <point x="1067" y="174" type="line"/>
      <point x="1063" y="64"/>
      <point x="1148" y="-10"/>
    </contour>
  </outline>
</glyph>
<glyph name="won" format="2">
  <advance width="1013"/>
  <unicode hex="20A9"/>
  <outline>
    <contour>
      <point x="115" y="0" type="line"/>
      <point x="400" y="0" type="line"/>
      <point x="512" y="381" type="line"/>
      <point x="561" y="553" type="line"/>
      <point x="572" y="553" type="line"/>
      <point x="550" y="379" type="line"/>
      <point x="506" y="0" type="line"/>
      <point x="795" y="0" type="line"/>
      <point x="1058" y="729" type="line"/>
      <point x="844" y="729" type="line"/>
      <point x="730" y="325" type="line"/>
      <point x="682" y="157" type="line"/>
      <point x="669" y="157" type="line"/>
      <point x="688" y="324" type="line"/>
      <point x="732" y="729" type="line"/>
      <point x="474" y="729" type="line"/>
      <point x="356" y="345" type="line"/>
      <point x="299" y="159" type="line"/>
      <point x="284" y="159" type="line"/>
      <point x="309" y="345" type="line"/>
      <point x="360" y="729" type="line"/>
      <point x="145" y="729" type="line"/>
    </contour>
    <contour>
      <point x="38" y="282" type="line"/>
      <point x="978" y="282" type="line"/>
      <point x="1006" y="418" type="line"/>
      <point x="66" y="418" type="line"/>
    </contour>
  </outline>
</glyph>
<glyph name="sheqel" format="2">
  <advance width="835"/>
  <unicode hex="20AA"/>
  <outline>
    <contour>
      <point x="215" y="0" type="line"/>
      <point x="565" y="0" type="line" smooth="yes"/>
      <point x="654" y="0"/>
      <point x="725" y="55"/>
      <point x="745" y="153" type="curve" smooth="yes"/>
      <point x="864" y="729" type="line"/>
      <point x="703" y="729" type="line"/>
      <point x="584" y="151" type="line"/>
      <point x="375" y="151" type="line"/>
      <point x="455" y="540" type="line"/>
      <point x="326" y="540" type="line"/>
    </contour>
    <contour>
      <point x="14" y="0" type="line"/>
      <point x="175" y="0" type="line"/>
      <point x="294" y="579" type="line"/>
      <point x="503" y="579" type="line"/>
      <point x="423" y="190" type="line"/>
      <point x="552" y="190" type="line"/>
      <point x="632" y="576" type="line" smooth="yes"/>
      <point x="651" y="668"/>
      <point x="621" y="729"/>
      <point x="514" y="729" type="curve" smooth="yes"/>
      <point x="164" y="729" type="line"/>
    </contour>
  </outline>
</glyph>
<glyph name="euro" format="2">
  <advance width="839"/>
  <unicode hex="20AC"/>
  <outline>
    <contour>
      <point x="460" y="-9" type="curve" smooth="yes"/>
      <point x="643" y="-9"/>
      <point x="774" y="93"/>
      <point x="802" y="255" type="curve"/>
      <point x="598" y="255" type="line"/>
      <point x="578" y="192"/>
      <point x="531" y="159"/>
      <point x="457" y="159" type="curve" smooth="yes"/>
      <point x="379" y="159"/>
      <point x="323" y="208"/>
      <point x="323" y="317" type="curve" smooth="yes"/>
      <point x="323" y="468"/>
      <point x="394" y="569"/>
      <point x="508" y="569" type="curve" smooth="yes"/>
      <point x="581" y="569"/>
      <point x="634" y="531"/>
      <point x="641" y="469" type="curve"/>
      <point x="843" y="469" type="line"/>
      <point x="839" y="628"/>
      <point x="707" y="737"/>
      <point x="509" y="737" type="curve" smooth="yes"/>
      <point x="278" y="737"/>
      <point x="116" y="573"/>
      <point x="116" y="320" type="curve" smooth="yes"/>
      <point x="116" y="122"/>
      <point x="237" y="-9"/>
    </contour>
    <contour>
      <point x="30" y="245" type="line"/>
      <point x="487" y="245" type="line"/>
      <point x="521" y="341" type="line"/>
      <point x="50" y="341" type="line"/>
    </contour>
    <contour>
      <point x="60" y="388" type="line"/>
      <point x="538" y="388" type="line"/>
      <point x="572" y="482" type="line"/>
      <point x="80" y="482" type="line"/>
    </contour>
  </outline>
</glyph>
<glyph name="tenge" format="2">
  <advance width="638"/>
  <unicode hex="20B8"/>
  <outline>
    <contour>
      <point x="245" y="379" type="line"/>
      <point x="167" y="0" type="line"/>
      <point x="360" y="0" type="line"/>
      <point x="438" y="379" type="line"/>
    </contour>
    <contour>
      <point x="614" y="363" type="line"/>
      <point x="646" y="519" type="line"/>
      <point x="95" y="519" type="line"/>
      <point x="63" y="363" type="line"/>
    </contour>
    <contour>
      <point x="657" y="571" type="line"/>
      <point x="689" y="729" type="line"/>
      <point x="138" y="729" type="line"/>
      <point x="106" y="571" type="line"/>
    </contour>
  </outline>
</glyph>
<glyph name="rupeeIndian" format="2">
  <advance width="630"/>
  <unicode hex="20B9"/>
  <outline>
    <contour>
      <point x="251" y="0" type="line"/>
      <point x="459" y="0" type="line"/>
      <point x="443" y="175" type="line" smooth="yes"/>
      <point x="436" y="257"/>
      <point x="411" y="287"/>
      <point x="368" y="305" type="curve"/>
      <point x="369" y="311" type="line"/>
      <point x="447" y="323"/>
      <point x="513" y="364"/>
      <point x="536" y="423" type="curve"/>
      <point x="623" y="423" type="line"/>
      <point x="646" y="539" type="line"/>
      <point x="556" y="539" type="line"/>
      <point x="554" y="564"/>
      <point x="542" y="591"/>
      <point x="524" y="606" type="curve"/>
      <point x="525" y="613" type="line"/>
      <point x="663" y="613" type="line"/>
      <point x="687" y="729" type="line"/>
      <point x="146" y="729" type="line"/>
      <point x="117" y="587" type="line"/>
      <point x="247" y="587" type="line" smooth="yes"/>
      <point x="322" y="587"/>
      <point x="348" y="568"/>
      <point x="354" y="533" type="curve"/>
      <point x="105" y="533" type="line"/>
      <point x="85" y="438" type="line"/>
      <point x="336" y="438" type="line"/>
      <point x="324" y="403"/>
      <point x="291" y="384"/>
      <point x="219" y="384" type="curve" smooth="yes"/>
      <point x="75" y="384" type="line"/>
      <point x="45" y="244" type="line"/>
      <point x="154" y="244" type="line" smooth="yes"/>
      <point x="213" y="244"/>
      <point x="235" y="232"/>
      <point x="240" y="156" type="curve" smooth="yes"/>
    </contour>
  </outline>
</glyph>
<glyph name="liraTurkish" format="2">
  <advance width="722"/>
  <unicode hex="20BA"/>
  <outline>
    <contour>
      <point x="62" y="0" type="line"/>
      <point x="216" y="0" type="line" smooth="yes"/>
      <point x="461" y="0"/>
      <point x="655" y="128"/>
      <point x="712" y="356" type="curve"/>
      <point x="514" y="356" type="line"/>
      <point x="484" y="254"/>
      <point x="431" y="185"/>
      <point x="290" y="184" type="curve"/>
      <point x="402" y="729" type="line"/>
      <point x="212" y="729" type="line"/>
    </contour>
    <contour>
      <point x="30" y="205" type="line"/>
      <point x="467" y="367" type="line"/>
      <point x="496" y="509" type="line"/>
      <point x="59" y="347" type="line"/>
    </contour>
    <contour>
      <point x="71" y="404" type="line"/>
      <point x="508" y="566" type="line"/>
      <point x="537" y="708" type="line"/>
      <point x="101" y="546" type="line"/>
    </contour>
  </outline>
</glyph>
<glyph name="literSign" format="2">
  <advance width="544"/>
  <unicode hex="2113"/>
  <outline>
    <contour>
      <point x="264" y="-10" type="curve" smooth="yes"/>
      <point x="352" y="-10"/>
      <point x="438" y="38"/>
      <point x="481" y="115" type="curve"/>
      <point x="361" y="183" type="line"/>
      <point x="340" y="144"/>
      <point x="317" y="134"/>
      <point x="298" y="134" type="curve" smooth="yes"/>
      <point x="267" y="134"/>
      <point x="250" y="151"/>
      <point x="250" y="210" type="curve" smooth="yes"/>
      <point x="250" y="424"/>
      <point x="291" y="568"/>
      <point x="358" y="568" type="curve" smooth="yes"/>
      <point x="370" y="568"/>
      <point x="384" y="558"/>
      <point x="384" y="533" type="curve" smooth="yes"/>
      <point x="384" y="419"/>
      <point x="203" y="294"/>
      <point x="33" y="268" type="curve"/>
      <point x="9" y="144" type="line"/>
      <point x="287" y="162"/>
      <point x="551" y="346"/>
      <point x="551" y="570" type="curve" smooth="yes"/>
      <point x="551" y="677"/>
      <point x="491" y="737"/>
      <point x="400" y="737" type="curve" smooth="yes"/>
      <point x="209" y="737"/>
      <point x="81" y="542"/>
      <point x="81" y="250" type="curve" smooth="yes"/>
      <point x="81" y="94"/>
      <point x="132" y="-10"/>
    </contour>
  </outline>
</glyph>
<glyph name="numero" format="2">
  <advance width="1215"/>
  <unicode hex="2116"/>
  <outline>
    <contour>
      <point x="14" y="0" type="line"/>
      <point x="215" y="0" type="line"/>
      <point x="264" y="236" type="line"/>
      <point x="294" y="431" type="line"/>
      <point x="302" y="431" type="line"/>
      <point x="437" y="0" type="line"/>
      <point x="664" y="0" type="line"/>
      <point x="816" y="729" type="line"/>
      <point x="617" y="729" type="line"/>
      <point x="568" y="494" type="line"/>
      <point x="537" y="292" type="line"/>
      <point x="529" y="292" type="line"/>
      <point x="393" y="729" type="line"/>
      <point x="165" y="729" type="line"/>
    </contour>
    <contour>
      <point x="797" y="139" type="line"/>
      <point x="1126" y="139" type="line"/>
      <point x="1150" y="255" type="line"/>
      <point x="821" y="255" type="line"/>
    </contour>
    <contour>
      <point x="999" y="292" type="curve" smooth="yes"/>
      <point x="1141" y="292"/>
      <point x="1228" y="406"/>
      <point x="1228" y="558" type="curve" smooth="yes"/>
      <point x="1228" y="668"/>
      <point x="1166" y="739"/>
      <point x="1052" y="739" type="curve" smooth="yes"/>
      <point x="910" y="739"/>
      <point x="823" y="625"/>
      <point x="823" y="473" type="curve" smooth="yes"/>
      <point x="823" y="364"/>
      <point x="885" y="292"/>
    </contour>
    <contour>
      <point x="1009" y="410" type="curve" smooth="yes"/>
      <point x="966" y="410"/>
      <point x="966" y="463"/>
      <point x="975" y="524" type="curve" smooth="yes"/>
      <point x="987" y="582"/>
      <point x="1004" y="621"/>
      <point x="1042" y="621" type="curve" smooth="yes"/>
      <point x="1085" y="621"/>
      <point x="1085" y="569"/>
      <point x="1076" y="507" type="curve" smooth="yes"/>
      <point x="1065" y="449"/>
      <point x="1047" y="410"/>
    </contour>
  </outline>
</glyph>
<glyph name="trademark" format="2">
  <advance width="857"/>
  <unicode hex="2122"/>
  <outline>
    <contour>
      <point x="395" y="415" type="line"/>
      <point x="505" y="415" type="line"/>
      <point x="525" y="507" type="line"/>
      <point x="541" y="590" type="line"/>
      <point x="544" y="590" type="line"/>
      <point x="561" y="415" type="line"/>
      <point x="650" y="415" type="line"/>
      <point x="741" y="590" type="line"/>
      <point x="744" y="590" type="line"/>
      <point x="726" y="507" type="line"/>
      <point x="707" y="415" type="line"/>
      <point x="817" y="415" type="line"/>
      <point x="883" y="729" type="line"/>
      <point x="725" y="729" type="line"/>
      <point x="640" y="562" type="line"/>
      <point x="636" y="562" type="line"/>
      <point x="620" y="729" type="line"/>
      <point x="460" y="729" type="line"/>
    </contour>
    <contour>
      <point x="149" y="415" type="line"/>
      <point x="267" y="415" type="line"/>
      <point x="312" y="627" type="line"/>
      <point x="396" y="627" type="line"/>
      <point x="417" y="729" type="line"/>
      <point x="134" y="729" type="line"/>
      <point x="112" y="627" type="line"/>
      <point x="194" y="627" type="line"/>
    </contour>
  </outline>
</glyph>
<glyph name="leftArrow" format="2">
  <advance width="761"/>
  <unicode hex="2190"/>
  <outline>
    <contour>
      <point x="671" y="447" type="line"/>
      <point x="309" y="447" type="line"/>
      <point x="405" y="595" type="line"/>
      <point x="239" y="595" type="line"/>
      <point x="90" y="365" type="line"/>
      <point x="239" y="135" type="line"/>
      <point x="405" y="135" type="line"/>
      <point x="309" y="283" type="line"/>
      <point x="671" y="283" type="line"/>
    </contour>
  </outline>
</glyph>
<glyph name="upArrow" format="2">
  <advance width="591"/>
  <unicode hex="2191"/>
  <outline>
    <contour>
      <point x="235" y="74" type="line"/>
      <point x="399" y="74" type="line"/>
      <point x="399" y="436" type="line"/>
      <point x="547" y="340" type="line"/>
      <point x="547" y="506" type="line"/>
      <point x="317" y="655" type="line"/>
      <point x="87" y="506" type="line"/>
      <point x="87" y="340" type="line"/>
      <point x="235" y="436" type="line"/>
    </contour>
  </outline>
</glyph>
<glyph name="rightArrow" format="2">
  <advance width="761"/>
  <unicode hex="2192"/>
  <outline>
    <contour>
      <point x="114" y="447" type="line"/>
      <point x="114" y="283" type="line"/>
      <point x="476" y="283" type="line"/>
      <point x="380" y="135" type="line"/>
      <point x="546" y="135" type="line"/>
      <point x="695" y="365" type="line"/>
      <point x="546" y="595" type="line"/>
      <point x="380" y="595" type="line"/>
      <point x="476" y="447" type="line"/>
    </contour>
  </outline>
</glyph>
<glyph name="downArrow" format="2">
  <advance width="603"/>
  <unicode hex="2193"/>
  <outline>
    <contour>
      <point x="215" y="655" type="line"/>
      <point x="215" y="293" type="line"/>
      <point x="67" y="389" type="line"/>
      <point x="67" y="223" type="line"/>
      <point x="297" y="74" type="line"/>
      <point x="527" y="223" type="line"/>
      <point x="527" y="389" type="line"/>
      <point x="379" y="293" type="line"/>
      <point x="379" y="655" type="line"/>
    </contour>
  </outline>
</glyph>
<glyph name="leftRightArrow" format="2">
  <advance width="850"/>
  <unicode hex="2194"/>
  <outline>
    <contour>
      <point x="187" y="135" type="line"/>
      <point x="353" y="135" type="line"/>
      <point x="257" y="283" type="line"/>
      <point x="610" y="283" type="line"/>
      <point x="514" y="135" type="line"/>
      <point x="680" y="135" type="line"/>
      <point x="829" y="365" type="line"/>
      <point x="680" y="595" type="line"/>
      <point x="514" y="595" type="line"/>
      <point x="610" y="447" type="line"/>
      <point x="257" y="447" type="line"/>
      <point x="353" y="595" type="line"/>
      <point x="187" y="595" type="line"/>
      <point x="38" y="365" type="line"/>
    </contour>
  </outline>
</glyph>
<glyph name="emptyset" format="2">
  <advance width="772"/>
  <unicode hex="2205"/>
  <outline>
    <contour>
      <point x="405" y="0" type="curve" smooth="yes"/>
      <point x="609" y="0"/>
      <point x="763" y="149"/>
      <point x="763" y="366" type="curve" smooth="yes"/>
      <point x="763" y="579"/>
      <point x="609" y="729"/>
      <point x="405" y="729" type="curve" smooth="yes"/>
      <point x="201" y="729"/>
      <point x="47" y="580"/>
      <point x="47" y="366" type="curve" smooth="yes"/>
      <point x="47" y="149"/>
      <point x="201" y="0"/>
    </contour>
    <contour>
      <point x="405" y="71" type="curve" smooth="yes"/>
      <point x="310" y="71"/>
      <point x="226" y="116"/>
      <point x="175" y="189" type="curve"/>
      <point x="665" y="488" type="line"/>
      <point x="680" y="451"/>
      <point x="688" y="410"/>
      <point x="688" y="366" type="curve" smooth="yes"/>
      <point x="688" y="193"/>
      <point x="565" y="71"/>
    </contour>
    <contour>
      <point x="143" y="249" type="line"/>
      <point x="130" y="284"/>
      <point x="122" y="324"/>
      <point x="122" y="366" type="curve" smooth="yes"/>
      <point x="122" y="538"/>
      <point x="247" y="658"/>
      <point x="405" y="658" type="curve" smooth="yes"/>
      <point x="499" y="658"/>
      <point x="579" y="617"/>
      <point x="631" y="548" type="curve"/>
    </contour>
  </outline>
</glyph>
<glyph name="product" format="2">
  <advance width="764"/>
  <unicode hex="220F"/>
  <outline>
    <contour>
      <point x="-36" y="-151" type="line"/>
      <point x="165" y="-151" type="line"/>
      <point x="311" y="547" type="line"/>
      <point x="567" y="547" type="line"/>
      <point x="420" y="-151" type="line"/>
      <point x="621" y="-151" type="line"/>
      <point x="807" y="729" type="line"/>
      <point x="149" y="729" type="line"/>
    </contour>
  </outline>
</glyph>
<glyph name="summation" format="2">
  <advance width="566"/>
  <unicode hex="2211"/>
  <outline>
    <contour>
      <point x="-60" y="-151" type="line"/>
      <point x="450" y="-151" type="line"/>
      <point x="492" y="48" type="line"/>
      <point x="362" y="48" type="line"/>
      <point x="253" y="46" type="line"/>
      <point x="255" y="56" type="line"/>
      <point x="499" y="284" type="line"/>
      <point x="317" y="522" type="line"/>
      <point x="319" y="532" type="line"/>
      <point x="426" y="530" type="line"/>
      <point x="592" y="530" type="line"/>
      <point x="635" y="729" type="line"/>
      <point x="125" y="729" type="line"/>
      <point x="80" y="518" type="line"/>
      <point x="228" y="308" type="line"/>
      <point x="223" y="282" type="line"/>
      <point x="-15" y="60" type="line"/>
    </contour>
  </outline>
</glyph>
<glyph name="minus" format="2">
  <advance width="600"/>
  <unicode hex="2212"/>
  <outline>
    <contour>
      <point x="69" y="286" type="line"/>
      <point x="537" y="286" type="line"/>
      <point x="568" y="435" type="line"/>
      <point x="100" y="435" type="line"/>
    </contour>
  </outline>
</glyph>
<glyph name="radical" format="2">
  <advance width="795"/>
  <unicode hex="221A"/>
  <outline>
    <contour>
      <point x="158" y="-151" type="line"/>
      <point x="429" y="-151" type="line"/>
      <point x="885" y="729" type="line"/>
      <point x="662" y="729" type="line"/>
      <point x="329" y="47" type="line"/>
      <point x="322" y="47" type="line"/>
      <point x="302" y="493" type="line"/>
      <point x="60" y="493" type="line"/>
      <point x="22" y="312" type="line"/>
      <point x="118" y="312" type="line"/>
    </contour>
  </outline>
</glyph>
<glyph name="infinity" format="2">
  <advance width="924"/>
  <unicode hex="221E"/>
  <outline>
    <contour>
      <point x="281" y="121" type="curve" smooth="yes"/>
      <point x="368" y="121"/>
      <point x="439" y="166"/>
      <point x="480" y="234" type="curve"/>
      <point x="523" y="166"/>
      <point x="591" y="121"/>
      <point x="680" y="121" type="curve" smooth="yes"/>
      <point x="809" y="121"/>
      <point x="914" y="216"/>
      <point x="914" y="362" type="curve" smooth="yes"/>
      <point x="914" y="504"/>
      <point x="811" y="608"/>
      <point x="679" y="608" type="curve" smooth="yes"/>
      <point x="590" y="608"/>
      <point x="521" y="555"/>
      <point x="480" y="490" type="curve"/>
      <point x="440" y="555"/>
      <point x="370" y="608"/>
      <point x="282" y="608" type="curve" smooth="yes"/>
      <point x="150" y="608"/>
      <point x="48" y="504"/>
      <point x="48" y="362" type="curve" smooth="yes"/>
      <point x="48" y="216"/>
      <point x="152" y="121"/>
    </contour>
    <contour>
      <point x="294" y="297" type="curve" smooth="yes"/>
      <point x="251" y="297"/>
      <point x="227" y="329"/>
      <point x="227" y="366" type="curve" smooth="yes"/>
      <point x="227" y="402"/>
      <point x="252" y="433"/>
      <point x="294" y="433" type="curve" smooth="yes"/>
      <point x="339" y="433"/>
      <point x="375" y="397"/>
      <point x="395" y="366" type="curve"/>
      <point x="374" y="334"/>
      <point x="339" y="297"/>
    </contour>
    <contour>
      <point x="666" y="297" type="curve" smooth="yes"/>
      <point x="623" y="297"/>
      <point x="588" y="332"/>
      <point x="567" y="366" type="curve"/>
      <point x="586" y="397"/>
      <point x="622" y="433"/>
      <point x="666" y="433" type="curve" smooth="yes"/>
      <point x="708" y="433"/>
      <point x="733" y="402"/>
      <point x="733" y="366" type="curve" smooth="yes"/>
      <point x="733" y="329"/>
      <point x="708" y="297"/>
    </contour>
  </outline>
</glyph>
<glyph name="integral" format="2">
  <advance width="476"/>
  <unicode hex="222B"/>
  <outline>
    <contour>
      <point x="-78" y="-151" type="line"/>
      <point x="86" y="-151" type="line" smooth="yes"/>
      <point x="181" y="-151"/>
      <point x="253" y="-107"/>
      <point x="277" y="7" type="curve" smooth="yes"/>
      <point x="396" y="577" type="line"/>
      <point x="529" y="577" type="line"/>
      <point x="561" y="729" type="line"/>
      <point x="396" y="729" type="line" smooth="yes"/>
      <point x="301" y="729"/>
      <point x="227" y="678"/>
      <point x="206" y="570" type="curve" smooth="yes"/>
      <point x="86" y="0" type="line"/>
      <point x="-46" y="0" type="line"/>
    </contour>
  </outline>
</glyph>
<glyph name="approxequal" format="2">
  <advance width="600"/>
  <unicode hex="2248"/>
  <outline>
    <contour>
      <point x="363" y="147" type="curve" smooth="yes"/>
      <point x="426" y="147"/>
      <point x="506" y="189"/>
      <point x="526" y="331" type="curve"/>
      <point x="446" y="331" type="line"/>
      <point x="440" y="306"/>
      <point x="421" y="279"/>
      <point x="380" y="279" type="curve" smooth="yes"/>
      <point x="320" y="279"/>
      <point x="297" y="334"/>
      <point x="221" y="334" type="curve" smooth="yes"/>
      <point x="158" y="334"/>
      <point x="81" y="290"/>
      <point x="62" y="153" type="curve"/>
      <point x="143" y="153" type="line"/>
      <point x="145" y="177"/>
      <point x="166" y="205"/>
      <point x="197" y="205" type="curve" smooth="yes"/>
      <point x="248" y="205"/>
      <point x="274" y="147"/>
    </contour>
    <contour>
      <point x="413" y="387" type="curve" smooth="yes"/>
      <point x="476" y="387"/>
      <point x="557" y="432"/>
      <point x="577" y="572" type="curve"/>
      <point x="497" y="572" type="line"/>
      <point x="489" y="541"/>
      <point x="468" y="518"/>
      <point x="430" y="518" type="curve" smooth="yes"/>
      <point x="369" y="518"/>
      <point x="347" y="575"/>
      <point x="271" y="575" type="curve" smooth="yes"/>
      <point x="210" y="575"/>
      <point x="131" y="528"/>
      <point x="112" y="391" type="curve"/>
      <point x="193" y="391" type="line"/>
      <point x="193" y="410"/>
      <point x="211" y="443"/>
      <point x="247" y="443" type="curve" smooth="yes"/>
      <point x="298" y="443"/>
      <point x="324" y="387"/>
    </contour>
  </outline>
</glyph>
<glyph name="notequal" format="2">
  <advance width="600"/>
  <unicode hex="2260"/>
  <outline>
    <contour>
      <point x="82" y="101" type="line"/>
      <point x="203" y="101" type="line"/>
      <point x="555" y="629" type="line"/>
      <point x="435" y="629" type="line"/>
    </contour>
    <contour>
      <point x="44" y="166" type="line"/>
      <point x="512" y="166" type="line"/>
      <point x="543" y="315" type="line"/>
      <point x="75" y="315" type="line"/>
    </contour>
    <contour>
      <point x="94" y="406" type="line"/>
      <point x="562" y="406" type="line"/>
      <point x="594" y="555" type="line"/>
      <point x="126" y="555" type="line"/>
    </contour>
  </outline>
</glyph>
<glyph name="lessequal" format="2">
  <advance width="600"/>
  <unicode hex="2264"/>
  <outline>
    <contour>
      <point x="523" y="158" type="line"/>
      <point x="559" y="328" type="line"/>
      <point x="261" y="407" type="line"/>
      <point x="263" y="416" type="line"/>
      <point x="592" y="489" type="line"/>
      <point x="628" y="659" type="line"/>
      <point x="95" y="516" type="line"/>
      <point x="51" y="307" type="line"/>
    </contour>
    <contour>
      <point x="-13" y="0" type="line"/>
      <point x="490" y="0" type="line"/>
      <point x="517" y="132" type="line"/>
      <point x="14" y="132" type="line"/>
    </contour>
  </outline>
</glyph>
<glyph name="greaterequal" format="2">
  <advance width="600"/>
  <unicode hex="2265"/>
  <outline>
    <contour>
      <point x="30" y="158" type="line"/>
      <point x="564" y="307" type="line"/>
      <point x="608" y="516" type="line"/>
      <point x="135" y="659" type="line"/>
      <point x="99" y="489" type="line"/>
      <point x="397" y="416" type="line"/>
      <point x="396" y="407" type="line"/>
      <point x="66" y="328" type="line"/>
    </contour>
    <contour>
      <point x="-3" y="0" type="line"/>
      <point x="500" y="0" type="line"/>
      <point x="527" y="132" type="line"/>
      <point x="24" y="132" type="line"/>
    </contour>
  </outline>
</glyph>
<glyph name="whiteCircle" format="2">
  <advance width="873"/>
  <unicode hex="25CB"/>
  <anchor x="456" y="365" name="center"/>
  <outline>
    <contour>
      <point x="456" y="-9" type="curve" smooth="yes"/>
      <point x="679" y="-9"/>
      <point x="843" y="141"/>
      <point x="843" y="365" type="curve" smooth="yes"/>
      <point x="843" y="589"/>
      <point x="679" y="739"/>
      <point x="456" y="739" type="curve" smooth="yes"/>
      <point x="232" y="739"/>
      <point x="68" y="589"/>
      <point x="68" y="365" type="curve" smooth="yes"/>
      <point x="68" y="141"/>
      <point x="232" y="-9"/>
    </contour>
    <contour>
      <point x="456" y="68" type="curve" smooth="yes"/>
      <point x="274" y="68"/>
      <point x="152" y="187"/>
      <point x="152" y="365" type="curve" smooth="yes"/>
      <point x="152" y="544"/>
      <point x="275" y="663"/>
      <point x="456" y="663" type="curve" smooth="yes"/>
      <point x="636" y="663"/>
      <point x="759" y="544"/>
      <point x="759" y="365" type="curve" smooth="yes"/>
      <point x="759" y="187"/>
      <point x="637" y="68"/>
    </contour>
  </outline>
</glyph>
<glyph name="blackCircle" format="2">
  <advance width="873"/>
  <unicode hex="25CF"/>
  <anchor x="455.5" y="365" name="center"/>
  <outline>
    <contour>
      <point x="456" y="-9" type="curve" smooth="yes"/>
      <point x="232" y="-9"/>
      <point x="68" y="141"/>
      <point x="68" y="365" type="curve" smooth="yes"/>
      <point x="68" y="589"/>
      <point x="232" y="739"/>
      <point x="456" y="739" type="curve" smooth="yes"/>
      <point x="679" y="739"/>
      <point x="843" y="589"/>
      <point x="843" y="365" type="curve" smooth="yes"/>
      <point x="843" y="141"/>
      <point x="679" y="-9"/>
    </contour>
  </outline>
</glyph>
<glyph name="whiteFrowningFace" format="2">
  <advance width="857"/>
  <unicode hex="2639"/>
  <outline>
    <contour>
      <point x="448" y="-10" type="curve" smooth="yes"/>
      <point x="666" y="-10"/>
      <point x="827" y="143"/>
      <point x="827" y="367" type="curve" smooth="yes"/>
      <point x="827" y="585"/>
      <point x="666" y="739"/>
      <point x="448" y="739" type="curve" smooth="yes"/>
      <point x="230" y="739"/>
      <point x="69" y="586"/>
      <point x="69" y="367" type="curve" smooth="yes"/>
      <point x="69" y="143"/>
      <point x="230" y="-10"/>
    </contour>
    <contour>
      <point x="228" y="191" type="curve"/>
      <point x="291" y="191" type="line"/>
      <point x="319" y="235"/>
      <point x="378" y="265"/>
      <point x="448" y="265" type="curve" smooth="yes"/>
      <point x="514" y="265"/>
      <point x="575" y="238"/>
      <point x="605" y="191" type="curve"/>
      <point x="668" y="191" type="line"/>
      <point x="639" y="275"/>
      <point x="550" y="322"/>
      <point x="448" y="322" type="curve" smooth="yes"/>
      <point x="346" y="322"/>
      <point x="257" y="275"/>
    </contour>
    <contour>
      <point x="448" y="63" type="curve" smooth="yes"/>
      <point x="267" y="63"/>
      <point x="146" y="185"/>
      <point x="146" y="367" type="curve" smooth="yes"/>
      <point x="146" y="546"/>
      <point x="267" y="666"/>
      <point x="448" y="666" type="curve" smooth="yes"/>
      <point x="629" y="666"/>
      <point x="750" y="546"/>
      <point x="750" y="367" type="curve" smooth="yes"/>
      <point x="750" y="185"/>
      <point x="629" y="63"/>
    </contour>
    <contour>
      <point x="366" y="403" type="curve" smooth="yes"/>
      <point x="396" y="403"/>
      <point x="419" y="424"/>
      <point x="419" y="454" type="curve" smooth="yes"/>
      <point x="419" y="484"/>
      <point x="396" y="505"/>
      <point x="366" y="505" type="curve" smooth="yes"/>
      <point x="336" y="505"/>
      <point x="312" y="484"/>
      <point x="312" y="454" type="curve" smooth="yes"/>
      <point x="312" y="424"/>
      <point x="336" y="403"/>
    </contour>
    <contour>
      <point x="532" y="403" type="curve" smooth="yes"/>
      <point x="562" y="403"/>
      <point x="585" y="424"/>
      <point x="585" y="454" type="curve" smooth="yes"/>
      <point x="585" y="484"/>
      <point x="562" y="505"/>
      <point x="532" y="505" type="curve" smooth="yes"/>
      <point x="502" y="505"/>
      <point x="478" y="484"/>
      <point x="478" y="454" type="curve" smooth="yes"/>
      <point x="478" y="424"/>
      <point x="502" y="403"/>
    </contour>
  </outline>
</glyph>
<glyph name="checkmark" format="2">
  <advance width="903"/>
  <unicode hex="2713"/>
  <outline>
    <contour>
      <point x="340" y="67" type="line"/>
      <point x="847" y="533" type="line"/>
      <point x="747" y="658" type="line"/>
      <point x="361" y="299" type="line"/>
      <point x="227" y="463" type="line"/>
      <point x="107" y="356" type="line"/>
    </contour>
  </outline>
</glyph>
<glyph name="fi" format="2">
  <advance width="697"/>
  <unicode hex="FB01"/>
  <outline>
    <contour>
      <point x="40" y="0" type="line"/>
      <point x="229" y="0" type="line"/>
      <point x="311" y="391" type="line"/>
      <point x="475" y="391" type="line"/>
      <point x="393" y="0" type="line"/>
      <point x="584" y="0" type="line"/>
      <point x="699" y="544" type="line"/>
      <point x="343" y="544" type="line"/>
      <point x="347" y="560" type="line" smooth="yes"/>
      <point x="354" y="591"/>
      <point x="375" y="599"/>
      <point x="412" y="599" type="curve" smooth="yes"/>
      <point x="467" y="599" type="line"/>
      <point x="494" y="729" type="line"/>
      <point x="360" y="729" type="line" smooth="yes"/>
      <point x="240" y="729"/>
      <point x="181" y="676"/>
      <point x="164" y="593" type="curve" smooth="yes"/>
      <point x="154" y="544" type="line"/>
      <point x="73" y="544" type="line"/>
      <point x="42" y="391" type="line"/>
      <point x="122" y="391" type="line"/>
    </contour>
    <contour>
      <point x="623" y="589" type="curve" smooth="yes"/>
      <point x="687" y="589"/>
      <point x="729" y="624"/>
      <point x="729" y="676" type="curve" smooth="yes"/>
      <point x="729" y="723"/>
      <point x="696" y="755"/>
      <point x="636" y="755" type="curve" smooth="yes"/>
      <point x="572" y="755"/>
      <point x="530" y="720"/>
      <point x="530" y="668" type="curve" smooth="yes"/>
      <point x="530" y="621"/>
      <point x="563" y="589"/>
    </contour>
  </outline>
</glyph>
<glyph name="fl" format="2">
  <advance width="707"/>
  <unicode hex="FB02"/>
  <outline>
    <contour>
      <point x="40" y="0" type="line"/>
      <point x="229" y="0" type="line"/>
      <point x="311" y="391" type="line"/>
      <point x="487" y="391" type="line"/>
      <point x="405" y="0" type="line"/>
      <point x="595" y="0" type="line"/>
      <point x="748" y="729" type="line"/>
      <point x="557" y="729" type="line"/>
      <point x="518" y="544" type="line"/>
      <point x="343" y="544" type="line"/>
      <point x="347" y="560" type="line" smooth="yes"/>
      <point x="354" y="591"/>
      <point x="375" y="599"/>
      <point x="412" y="599" type="curve" smooth="yes"/>
      <point x="467" y="599" type="line"/>
      <point x="494" y="729" type="line"/>
      <point x="360" y="729" type="line" smooth="yes"/>
      <point x="240" y="729"/>
      <point x="181" y="676"/>
      <point x="164" y="593" type="curve" smooth="yes"/>
      <point x="154" y="544" type="line"/>
      <point x="73" y="544" type="line"/>
      <point x="42" y="391" type="line"/>
      <point x="122" y="391" type="line"/>
    </contour>
  </outline>
</glyph>
<glyph name="G.ss06" format="2">
  <advance width="776"/>
  <anchor x="379" y="0" name="bottom"/>
  <anchor x="458" y="729" name="top"/>
  <outline>
    <contour>
      <point x="377" y="-10" type="curve" smooth="yes"/>
      <point x="562" y="-10"/>
      <point x="712" y="77"/>
      <point x="756" y="305" type="curve" smooth="yes"/>
      <point x="774" y="398" type="line"/>
      <point x="422" y="398" type="line"/>
      <point x="394" y="267" type="line"/>
      <point x="575" y="267" type="line"/>
      <point x="546" y="300" type="line"/>
      <point x="542" y="278" type="line" smooth="yes"/>
      <point x="527" y="195"/>
      <point x="477" y="157"/>
      <point x="393" y="157" type="curve" smooth="yes"/>
      <point x="308" y="157"/>
      <point x="252" y="207"/>
      <point x="252" y="324" type="curve" smooth="yes"/>
      <point x="252" y="471"/>
      <point x="325" y="570"/>
      <point x="447" y="570" type="curve" smooth="yes"/>
      <point x="512" y="570"/>
      <point x="558" y="538"/>
      <point x="565" y="481" type="curve"/>
      <point x="770" y="481" type="line"/>
      <point x="765" y="635"/>
      <point x="639" y="737"/>
      <point x="454" y="737" type="curve" smooth="yes"/>
      <point x="215" y="737"/>
      <point x="47" y="576"/>
      <point x="47" y="319" type="curve" smooth="yes"/>
      <point x="47" y="121"/>
      <point x="164" y="-10"/>
    </contour>
  </outline>
</glyph>
<glyph name="I.ss02" format="2">
  <advance width="584"/>
  <anchor x="237" y="0" name="bottom"/>
  <anchor x="494" y="0" name="ogonek"/>
  <anchor x="387" y="729" name="top"/>
  <anchor x="141" y="729" name="topleft"/>
  <outline>
    <contour>
      <point x="165" y="158" type="line"/>
      <point x="368" y="158" type="line"/>
      <point x="452" y="571" type="line"/>
      <point x="249" y="571" type="line"/>
    </contour>
    <contour>
      <point x="93" y="555" type="line"/>
      <point x="608" y="555" type="line"/>
      <point x="644" y="729" type="line"/>
      <point x="129" y="729" type="line"/>
    </contour>
    <contour>
      <point x="-21" y="0" type="line"/>
      <point x="494" y="0" type="line"/>
      <point x="530" y="174" type="line"/>
      <point x="15" y="174" type="line"/>
    </contour>
  </outline>
</glyph>
<glyph name="_B.currency" format="2">
  <advance width="725"/>
  <anchor x="367" y="0" name="bottom"/>
  <outline>
    <contour>
      <point x="14" y="0" type="line"/>
      <point x="379" y="0" type="line" smooth="yes"/>
      <point x="553" y="0"/>
      <point x="671" y="72"/>
      <point x="676" y="224" type="curve" smooth="yes"/>
      <point x="679" y="296"/>
      <point x="643" y="355"/>
      <point x="589" y="370" type="curve"/>
      <point x="591" y="379" type="line"/>
      <point x="658" y="398"/>
      <point x="717" y="464"/>
      <point x="720" y="555" type="curve" smooth="yes"/>
      <point x="724" y="657"/>
      <point x="659" y="729"/>
      <point x="505" y="729" type="curve" smooth="yes"/>
      <point x="165" y="729" type="line"/>
    </contour>
    <contour>
      <point x="241" y="153" type="line"/>
      <point x="272" y="300" type="line"/>
      <point x="404" y="300" type="line" smooth="yes"/>
      <point x="443" y="300"/>
      <point x="473" y="282"/>
      <point x="472" y="236" type="curve" smooth="yes"/>
      <point x="470" y="182"/>
      <point x="435" y="153"/>
      <point x="377" y="153" type="curve" smooth="yes"/>
    </contour>
    <contour>
      <point x="303" y="445" type="line"/>
      <point x="330" y="576" type="line"/>
      <point x="453" y="576" type="line" smooth="yes"/>
      <point x="493" y="576"/>
      <point x="516" y="557"/>
      <point x="514" y="522" type="curve" smooth="yes"/>
      <point x="513" y="472"/>
      <point x="478" y="445"/>
      <point x="424" y="445" type="curve" smooth="yes"/>
    </contour>
  </outline>
</glyph>
<glyph name="_Thorn.bowl" format="2">
  <advance width="537"/>
  <anchor x="-57" y="0" name="_bottom"/>
  <outline>
    <contour>
      <point x="23" y="116" type="line"/>
      <point x="211" y="116" type="line" smooth="yes"/>
      <point x="366" y="116"/>
      <point x="482" y="198"/>
      <point x="510" y="335" type="curve" smooth="yes"/>
      <point x="536" y="467"/>
      <point x="490" y="613"/>
      <point x="276" y="613" type="curve" smooth="yes"/>
      <point x="111" y="613" type="line"/>
      <point x="80" y="436" type="line"/>
      <point x="244" y="436" type="line" smooth="yes"/>
      <point x="293" y="436"/>
      <point x="317" y="400"/>
      <point x="306" y="348" type="curve" smooth="yes"/>
      <point x="297" y="303"/>
      <point x="263" y="277"/>
      <point x="209" y="277" type="curve" smooth="yes"/>
      <point x="52" y="277" type="line"/>
    </contour>
  </outline>
</glyph>
<glyph name="_baht.bar" format="2">
  <advance width="190"/>
  <anchor x="127" y="0" name="_bottom"/>
  <outline>
    <contour>
      <point x="-34" y="-85" type="line"/>
      <point x="76" y="-85" type="line"/>
      <point x="112" y="90" type="line"/>
      <point x="2" y="90" type="line"/>
    </contour>
    <contour>
      <point x="127" y="689" type="line"/>
      <point x="236" y="689" type="line"/>
      <point x="262" y="815" type="line"/>
      <point x="153" y="815" type="line"/>
    </contour>
  </outline>
</glyph>
<glyph name="_bitcoin.bars" format="2">
  <advance width="369"/>
  <anchor x="227" y="0" name="_bottom"/>
  <outline>
    <contour>
      <point x="-34" y="-85" type="line"/>
      <point x="76" y="-85" type="line"/>
      <point x="112" y="90" type="line"/>
      <point x="2" y="90" type="line"/>
    </contour>
    <contour>
      <point x="145" y="-85" type="line"/>
      <point x="255" y="-85" type="line"/>
      <point x="291" y="90" type="line"/>
      <point x="181" y="90" type="line"/>
    </contour>
    <contour>
      <point x="127" y="689" type="line"/>
      <point x="236" y="689" type="line"/>
      <point x="262" y="815" type="line"/>
      <point x="153" y="815" type="line"/>
    </contour>
    <contour>
      <point x="306" y="689" type="line"/>
      <point x="415" y="689" type="line"/>
      <point x="441" y="815" type="line"/>
      <point x="332" y="815" type="line"/>
    </contour>
  </outline>
</glyph>
